<?xml version="1.0" encoding="utf-8"?>
<!-- Generator: Adobe Illustrator 16.0.0, SVG Export Plug-In . SVG Version: 6.00 Build 0)  -->
<!DOCTYPE svg PUBLIC "-//W3C//DTD SVG 1.1//EN" "http://www.w3.org/Graphics/SVG/1.1/DTD/svg11.dtd">
<svg version="1.1" id="Layer_1" xmlns="http://www.w3.org/2000/svg" xmlns:xlink="http://www.w3.org/1999/xlink" x="0px" y="0px"
	 width="200px" height="781.955px" viewBox="0 0 200 781.955" enable-background="new 0 0 200 781.955" xml:space="preserve">
<g>
	<g>
		<path fill="#EF3F5E" d="M-299.349,376.744c0.53-0.551,0.976-1.178,1.377-1.827c0.046-0.075,0.094-0.15,0.142-0.225
			c0.259-0.407-0.401,0.468-0.105,0.124c0.286-0.332-0.541,0.344-0.17,0.124c-0.131,0.057-0.262,0.113-0.393,0.17
			c-0.471,0.042-0.569,0.056-0.292,0.041c1.361-0.056,2.5-1.095,2.5-2.5c0-1.32-1.138-2.556-2.5-2.5
			c-1.077,0.044-2.147,0.431-2.826,1.309c-0.301,0.389-0.565,0.763-0.824,1.177c-0.083,0.132-0.169,0.261-0.258,0.39
			c0.402-0.582-0.073,0.065-0.186,0.183c-0.944,0.981-0.978,2.558,0,3.535C-301.935,377.693-300.293,377.727-299.349,376.744
			L-299.349,376.744z"/>
	</g>
</g>
<g>
	<g>
		<path fill="#EF3F5E" d="M-280.186,319.337c3.224,0,3.224-5,0-5S-283.41,319.337-280.186,319.337L-280.186,319.337z"/>
	</g>
</g>
</svg>
