<?xml version="1.0" encoding="utf-8"?>
<!-- Generator: Adobe Illustrator 16.0.0, SVG Export Plug-In . SVG Version: 6.00 Build 0)  -->
<!DOCTYPE svg PUBLIC "-//W3C//DTD SVG 1.1//EN" "http://www.w3.org/Graphics/SVG/1.1/DTD/svg11.dtd">
<svg version="1.1" id="Layer_1" xmlns="http://www.w3.org/2000/svg" xmlns:xlink="http://www.w3.org/1999/xlink" x="0px" y="0px"
	 width="196.667px" height="200px" viewBox="0 0 196.667 200" enable-background="new 0 0 196.667 200" xml:space="preserve">
<g>
	<g>
		<g>
			<path fill="#4B97FF" d="M54.053,18.38c6.22-1.388,11.967-1.968,17.432-2.188c6.311-0.308,12.337-0.125,18.23,0.439
				c5.894,0.562,11.664,1.478,17.378,2.741c11.419,2.552,22.687,6.38,33.888,12.61l1.047,0.586l0.522,0.294l0.603,0.361l2.397,1.469
				c1.603,0.974,3.123,2.069,4.662,3.131c1.511,1.103,2.996,2.24,4.441,3.417c1.412,1.218,2.861,2.395,4.182,3.706
				c5.388,5.126,10.062,10.981,13.537,17.508c7.18,12.974,9.107,28.474,6.269,43.116c-0.384,1.828-0.81,3.652-1.257,5.471
				c-0.52,1.8-1.067,3.598-1.645,5.384c-0.631,1.769-1.307,3.527-1.998,5.277c-0.701,1.685-1.428,3.219-2.168,4.823l-0.557,1.175
				l-0.543,1.036l-1.096,2.068c-0.721,1.403-1.494,2.706-2.273,4.004c-1.531,2.662-3.189,5.074-4.826,7.541
				c-1.621,2.233-3.168,4.424-4.941,6.721c-0.887,1.146-1.676,2.25-2.651,3.429l-3.002,3.545l-0.756,0.883l-0.849,0.902
				l-1.711,1.797l-1.725,1.785c-0.602,0.606-1.363,1.293-2.045,1.928c-1.418,1.274-2.799,2.599-4.301,3.771
				c-1.494,1.183-2.998,2.358-4.535,3.48c-6.213,4.409-13.078,7.885-20.355,10.055c-7.271,2.168-14.967,2.947-22.556,2.217
				c-7.59-0.715-15.069-2.859-21.969-6.307c-6.916-3.414-13.292-8.007-18.944-13.365c-1.035-0.959-1.827-1.848-2.709-2.771
				c-0.866-0.918-1.745-1.849-2.476-2.737c-0.763-0.9-1.539-1.8-2.284-2.713c-0.715-0.923-1.433-1.848-2.151-2.773
				c-2.78-3.739-5.366-7.578-7.637-11.562c-4.579-7.953-8.248-16.35-10.971-25.232c-2.708-8.894-4.469-18.252-4.742-28.314
				c-0.223-11.176,1.657-22.622,6.39-32.77c2.372-5.065,5.429-9.8,9.106-13.992c3.677-4.193,7.981-7.814,12.682-10.805
				c4.741-2.937,9.87-5.205,15.179-6.91c2.682-0.769,5.365-1.543,8.119-2.016c1.371-0.247,2.74-0.555,4.117-0.712
				c1.377-0.175,2.756-0.335,4.134-0.482l1.034-0.107l0.517-0.052l0.45-0.024l1.79-0.088l3.577-0.154
				c2.317,0.001,4.658,0.026,6.911,0.101l3.226,0.214l1.609,0.11c0.533,0.037,1.051,0.069,1.708,0.143
				c1.239,0.137,2.479,0.272,3.719,0.408c1.249,0.169,2.533,0.42,3.793,0.641c5.021,0.983,9.849,2.352,14.354,4.183
				c4.523,1.805,8.839,3.906,12.855,6.384c-4.736-2.982-9.758-5.578-15.148-7.604c-2.7-1-5.442-1.938-8.311-2.655l-2.139-0.555
				l-2.197-0.447c-1.468-0.293-2.949-0.591-4.365-0.748l-2.154-0.276l-1.075-0.132l-0.926-0.086l-3.707-0.337
				c-0.626-0.05-1.218-0.121-1.875-0.152l-1.992-0.077l-3.991-0.132l-4.116,0.089l-2.061,0.061l-2.392,0.207
				c-1.595,0.157-3.192,0.294-4.783,0.521c-1.589,0.256-3.178,0.533-4.762,0.829c-6.307,1.306-12.47,3.35-18.197,6.289
				c-5.726,2.929-10.998,6.757-15.502,11.37c-4.5,4.616-8.216,9.996-11.035,15.833c-2.823,5.838-4.76,12.127-5.852,18.591
				c-0.248,1.619-0.463,3.248-0.666,4.877c-0.163,1.634-0.265,3.278-0.368,4.921c-0.084,1.64-0.075,3.271-0.085,4.909
				c0.003,0.396-0.007,0.847,0.01,1.199l0.045,1.079l0.1,2.159c0.338,5.731,1.173,11.267,2.379,16.636
				c2.411,10.744,6.349,20.801,11.555,30.353c2.608,4.772,5.583,9.399,8.991,13.854c3.454,4.486,7.042,8.608,11.979,13.102
				c9.929,9.006,22.07,15.76,35.211,18.207c6.548,1.24,13.299,1.43,19.91,0.473c6.613-0.938,13.07-2.959,19.145-5.865
				c6.059-2.951,11.703-6.783,16.916-11.172c1.283-1.121,2.555-2.263,3.811-3.42c0.675-0.604,1.142-1.101,1.669-1.631l1.551-1.584
				c2.158-2.146,3.849-4.199,5.685-6.306l0.674-0.786l0.592-0.752l1.184-1.505l2.348-3.013l2.213-2.946l1.107-1.483l1.135-1.646
				l2.254-3.312l2.172-3.496c0.73-1.143,1.412-2.398,2.101-3.636c0.688-1.274,1.353-2.378,2.063-3.903
				c0.699-1.447,1.386-2.869,2.056-4.361c0.666-1.594,1.312-3.201,1.935-4.816c1.174-3.253,2.231-6.557,3.004-9.928
				c1.592-6.727,2.285-13.66,1.905-20.546c-0.389-6.878-1.782-13.727-4.34-20.154c-2.53-6.435-6.071-12.481-10.416-17.943
				c-4.34-5.467-9.479-10.352-15.166-14.58c-1.437-1.037-2.864-2.092-4.354-3.062l-2.246-1.443l-1.131-0.71l-0.983-0.587
				c-2.588-1.548-5.181-2.962-7.774-4.25c-10.396-5.143-20.812-8.55-31.412-10.874c-10.626-2.274-21.388-3.501-33.09-3.145
				c9.208-3.039,19.273-4.896,30.274-4.912c10.996,0.018,22.977,1.748,35.863,6.909c3.852,1.718,7.67,3.533,11.545,5.752
				l0.721,0.404l0.777,0.448l1.744,1.049c1.153,0.71,2.312,1.414,3.438,2.165c2.246,1.509,4.469,3.046,6.582,4.717
				c2.148,1.627,4.164,3.401,6.164,5.184c1.938,1.845,3.881,3.684,5.643,5.68c3.611,3.913,6.793,8.174,9.557,12.657
				c2.791,4.47,5.066,9.229,6.892,14.133c1.86,4.894,3.093,10.003,3.892,15.154c0.844,5.153,0.989,10.393,0.836,15.601
				c-0.295,5.208-0.922,10.412-2.146,15.505c-0.545,2.56-1.272,5.074-2.06,7.576c-0.739,2.51-1.703,4.952-2.646,7.396l-0.729,1.812
				l-0.727,1.629l-1.494,3.236l-0.758,1.58l-0.711,1.346l-1.436,2.682l-0.726,1.334l-0.743,1.26l-1.5,2.5
				c-0.998,1.701-2.033,3.23-3.07,4.788l-1.562,2.327l-1.479,2.041l-1.475,2.021l-0.74,1.01l-0.795,1.049l-3.205,4.183
				c-1.164,1.448-2.494,2.991-3.748,4.467c-1.192,1.451-2.758,3.062-4.217,4.593l-2.229,2.301c-0.916,0.877-1.869,1.764-2.816,2.629
				c-7.581,6.955-16.133,12.785-25.393,16.832c-0.679-1.686-2-4.979-2.666-6.637c-11.81,5.867-25.261,8.182-38.286,6.567
				c-6.512-0.794-12.93-2.474-19.017-5.026c-6.091-2.541-11.871-5.873-17.234-9.797c-1.328-1-2.672-1.98-3.946-3.05
				c-1.276-1.065-2.538-2.153-3.782-3.257c-2.218-2.073-4.426-4.215-6.198-6.188c-3.719-4.037-7.046-8.222-9.968-12.537
				c-5.897-8.623-10.471-17.693-13.949-27.25c-3.462-9.56-5.83-19.621-6.696-30.421c-0.138-1.327-0.165-2.729-0.232-4.093
				L6.793,87.94c-0.014-0.742-0.003-1.593,0.002-2.384c-0.008-3.209,0.219-6.453,0.526-9.678c0.72-6.433,2.119-12.752,4.251-18.775
				c4.204-12.065,11.62-22.854,21.36-30.842c4.838-4.033,10.283-7.305,16.026-9.871c2.848-1.346,5.845-2.349,8.832-3.349
				c1.507-0.459,3.042-0.842,4.569-1.236l2.297-0.564c0.771-0.164,1.55-0.3,2.327-0.444c1.555-0.282,3.113-0.543,4.671-0.784
				c1.559-0.205,3.122-0.349,4.685-0.496c3.36-0.35,5.69-0.312,8.324-0.368c1.313-0.04,2.554,0.009,3.795,0.061l3.732,0.157
				l0.925,0.047l0.852,0.079l1.702,0.16l3.402,0.329c5.162,0.522,11.224,1.623,16.57,3.23c5.388,1.641,10.519,3.697,15.385,6.124
				c4.834,2.473,9.437,5.285,13.802,8.445c4.334,3.21,8.446,6.758,12.311,10.693c3.836,3.984,7.418,8.387,10.645,13.288
				c3.234,4.873,6.037,10.433,8.203,16.543c2.143,6.119,3.629,12.899,3.838,20.121c0.211,7.206-0.889,14.709-3.213,21.637
				l-0.914,2.582l-0.477,1.282l-0.541,1.224c-0.736,1.625-1.506,3.238-2.305,4.834c-1.707,2.984-3.502,6.022-5.506,8.589
				c-1.961,2.767-4.068,5.006-6.207,7.366c-1.152,1.199-2.513,2.445-3.797,3.634l-1.98,1.774l-0.479,0.42l-0.271,0.223l-0.54,0.447
				l-2.162,1.789l-0.271,0.225l-0.137,0.111l-0.066,0.057c1.599-1.145-2.242,1.617-1.916,1.378l-1.299,0.854l-1.312,0.836
				l-1.271,0.746c-3.4,1.961-6.65,3.437-9.729,4.612c-6.164,2.341-11.81,3.677-17.24,4.625c-5.414,0.914-10.63,1.418-15.757,1.621
				c-5.135,0.218-10.183,0.117-15.245-0.213c2.801,0.817,3.345,1.457,2.995,2.062c-0.349,0.607-1.586,1.133-2.264,1.639
				c-0.407-0.045-0.796-0.088-1.173-0.129c0.377,0.041,0.766,0.084,1.173,0.129c-0.608,0.443-0.774,0.881,0.52,1.355
				c1.298,0.461,4.045,0.992,9.347,1.229c-5.302-0.237-8.049-0.771-9.347-1.229c-1.294-0.476-1.128-0.912-0.52-1.355
				c5.087,0.535,10.208,0.781,15.44,0.729c5.234-0.055,10.59-0.427,16.219-1.262c5.645-0.864,11.558-2.145,18.146-4.568
				c3.278-1.211,6.758-2.74,10.463-4.854c0.892-0.487,1.877-1.112,2.812-1.702l0.703-0.452l0.352-0.229
				c-0.383,0.281,4.064-2.924,2.209-1.59l0.068-0.054l0.543-0.427l2.17-1.707l0.543-0.426l0.137-0.107l0.205-0.17l0.539-0.459
				l2.133-1.865l2.096-1.908l1.031-0.969c0.352-0.33,0.684-0.652,0.951-0.947c2.297-2.469,4.541-4.808,6.664-7.729l1.58-2.121
				c0.26-0.358,0.52-0.703,0.772-1.078l0.744-1.165c0.988-1.562,1.945-3.144,2.869-4.738c1.754-3.393,3.426-6.812,4.672-10.586
				c2.586-7.408,3.927-15.511,3.776-23.292c-0.145-7.777-1.6-15.134-3.813-21.743c-0.575-1.618-1.127-3.32-1.797-4.839
				c-0.657-1.537-1.34-3.065-2.041-4.582c-1.474-2.882-3.012-5.756-4.709-8.342c-3.362-5.25-7.084-9.982-11.108-14.139
				c-8.033-8.386-17.062-15.021-27.097-20.202c-5.036-2.562-10.274-4.814-15.894-6.518c-0.696-0.218-1.383-0.447-2.092-0.647
				l-2.153-0.565c-1.451-0.355-2.853-0.76-4.353-1.037c-1.486-0.292-2.977-0.568-4.469-0.83c-1.471-0.236-2.875-0.381-4.318-0.557
				l-1.076-0.123c-0.344-0.037-0.758-0.088-1.012-0.105L98.096,4.73l-3.458-0.275c-0.594-0.039-1.114-0.103-1.769-0.118l-1.914-0.06
				l-3.829-0.095c-1.251-0.051-2.64,0.04-3.954,0.063l-4.004,0.149c-1.634,0.137-3.269,0.297-4.9,0.479
				c-1.633,0.184-3.26,0.365-4.886,0.674c-1.625,0.284-3.248,0.59-4.864,0.919C62.9,6.783,61.32,7.251,59.727,7.671
				c-3.197,0.811-6.27,1.978-9.342,3.138c-6.058,2.519-11.815,5.709-17.073,9.603c-10.479,7.839-18.709,18.559-23.77,30.739
				c-2.532,6.09-4.319,12.518-5.398,19.1c-0.249,1.649-0.475,3.305-0.677,4.963c-0.157,1.665-0.282,3.335-0.389,5.008
				c-0.128,1.679-0.117,3.325-0.144,4.992l-0.002,2.493l0.08,2.129c0.192,5.646,0.866,11.031,1.828,16.27
				c0.944,5.252,2.251,10.305,3.817,15.238c1.543,4.948,3.417,9.735,5.535,14.438c2.096,4.708,4.542,9.283,7.247,13.785
				c2.687,4.502,5.775,8.892,9.194,13.186c0.876,1.069,1.719,2.143,2.643,3.197l2.817,3.146c0.968,1.057,2.133,2.199,3.209,3.279
				c0.571,0.559,1.054,1.064,1.705,1.657l1.931,1.741c10.317,9.269,22.693,16.354,36.088,19.881
				c6.688,1.777,13.627,2.66,20.578,2.525c6.949-0.137,13.892-1.26,20.615-3.263c-1.288,0.449-2.618,0.743-3.935,1.086
				c-1.322,0.315-2.638,0.675-3.974,0.913c-2.677,0.458-5.349,0.948-8.058,1.121c-5.397,0.539-10.842,0.293-16.205-0.369
				c-1.338-0.195-2.676-0.406-4.009-0.632c-1.333-0.224-2.646-0.563-3.965-0.863c-2.646-0.573-5.219-1.444-7.795-2.276
				c-5.09-1.861-10.075-4.072-14.752-6.881c-2.377-1.326-4.621-2.895-6.876-4.426c-2.205-1.607-4.39-3.257-6.472-5.023
				c-1.038-0.889-2.067-1.791-3.084-2.702l-0.761-0.687l-0.669-0.643l-1.311-1.281c-0.855-0.85-1.768-1.738-2.556-2.572
				l-2.249-2.459c-5.925-6.593-10.745-13.506-14.873-20.658C10.488,132.236,4.947,116.982,2.5,99.843
				c-0.31-2.133-0.501-4.351-0.717-6.529l-0.194-3.362L1.506,88.27c-0.016-0.259-0.02-0.599-0.023-0.937l-0.009-1.002
				c-0.02-2.671,0.011-5.338,0.219-8.038c0.145-2.695,0.478-5.365,0.861-8.027C4.125,59.635,7.68,49.374,13.057,40.232
				c1.402-2.25,2.792-4.512,4.418-6.604c0.805-1.051,1.565-2.139,2.438-3.134c0.862-1.004,1.735-2,2.618-2.985
				c0.859-1.008,1.848-1.893,2.788-2.824c0.965-0.905,1.888-1.858,2.916-2.693c2.034-1.694,4.062-3.4,6.271-4.869
				c8.685-6.073,18.63-10.366,29.088-12.717c2.621-0.547,5.261-1.083,7.904-1.473c1.322-0.174,2.648-0.334,3.976-0.479l1.992-0.207
				l0.996-0.095c0.337-0.032,0.676-0.063,0.919-0.07c2.147-0.105,4.298-0.19,6.447-0.256c2.086-0.007,4.123,0.048,6.186,0.092
				l1.526,0.046l1.388,0.095l2.776,0.198l2.822,0.218l3.489,0.385c2.275,0.218,4.779,0.723,7.178,1.163
				c2.403,0.476,4.706,1.099,7.042,1.705c9.16,2.641,17.554,6.438,25.315,11.157c7.765,4.72,14.892,10.417,21.371,17.283
				c6.453,6.874,12.349,14.881,16.832,24.821c2.281,4.86,4.062,10.413,5.361,16.171c0.285,1.491,0.545,2.989,0.781,4.489
				c0.113,0.754,0.24,1.493,0.324,2.262l0.203,2.339c0.117,1.565,0.229,3.119,0.27,4.697c-0.004,1.601-0.037,3.205-0.102,4.807
				c-0.039,0.802-0.055,1.598-0.133,2.403l-0.277,2.418c-0.207,1.61-0.418,3.223-0.711,4.817c-0.336,1.586-0.703,3.17-1.102,4.744
				c-0.203,0.785-0.396,1.578-0.627,2.35l-0.765,2.279c-0.522,1.516-1.076,3.021-1.656,4.516c-0.625,1.433-1.286,2.843-1.969,4.248
				c-1.334,2.887-2.912,5.354-4.511,7.918c-0.797,1.312-1.646,2.404-2.5,3.563c-0.854,1.146-1.729,2.279-2.612,3.4
				c-1.783,2.096-3.582,4.041-5.49,6.026c-1.104,1.06-2.229,2.102-3.372,3.125l-1.726,1.521l-0.871,0.749l-0.438,0.371l-0.336,0.277
				l-3.386,2.65c-1.06,0.762,2.218-1.59-2.397,1.729l-0.285,0.188l-0.574,0.369l-1.154,0.729l-1.162,0.713l-1.113,0.631
				c-0.739,0.412-1.496,0.83-2.235,1.217l-2.153,1.059c-0.734,0.359-1.427,0.666-2.113,0.963l-2.08,0.879
				c-1.316,0.504-2.715,1.059-3.98,1.47c-5.199,1.763-9.996,2.868-14.561,3.647c-9.098,1.508-17.395,1.795-25.521,1.463
				c-8.113-0.359-16.014-1.394-23.979-3.15c-7.962-1.779-15.98-4.254-24.291-8.027c-4.154-1.898-8.384-4.136-12.688-6.91
				c-4.294-2.773-8.687-6.099-13.017-10.338l-1.611-1.611c-0.535-0.554-1.074-1.15-1.603-1.73c-1.069-1.156-2.083-2.391-3.079-3.637
				c-0.532-0.652-0.927-1.194-1.33-1.745l-1.212-1.675c-0.76-1.147-1.546-2.283-2.249-3.469c-2.873-4.705-5.173-9.776-6.748-15.061
				c-1.577-5.283-2.506-10.749-2.712-16.287C2.101,87,2.583,81.384,3.798,75.741c0.328-1.412,0.65-2.822,1.042-4.233
				c0.415-1.413,0.852-2.825,1.311-4.232c0.503-1.398,1.049-2.791,1.607-4.181c0.57-1.39,1.102-2.775,1.842-4.149l2.079-4.132
				c0.319-0.696,0.736-1.367,1.163-2.035l1.253-2.012c1.574-2.721,3.593-5.273,5.464-7.884c2.12-2.484,4.122-5.05,6.517-7.374
				c1.165-1.182,2.356-2.34,3.638-3.436c1.278-1.096,2.526-2.216,3.899-3.227c5.365-4.157,11.47-7.631,18.173-10.114
				c6.697-2.486,14.004-3.979,21.693-4.18c0.963-0.014,1.909-0.078,2.891-0.014l2.935,0.153c0.98,0.061,1.955,0.08,2.939,0.175
				l2.976,0.431l2.977,0.431c0.994,0.206,1.99,0.467,2.985,0.698l2.987,0.715c0.998,0.213,1.979,0.626,2.97,0.93
				c3.979,1.187,7.851,2.949,11.69,4.741c3.807,1.92,7.473,4.136,10.963,6.602c6.961,4.952,13.151,10.777,18.362,16.938
				c5.232,6.157,9.492,12.645,12.771,19.07c3.262,6.434,5.473,12.777,6.818,18.832c0.405,1.54,0.614,3,0.87,4.492
				c0.273,1.5,0.373,2.928,0.525,4.376c0.187,1.462,0.2,2.857,0.245,4.264c0.087,1.423,0.005,2.778-0.045,4.147
				c-0.243,5.46-1.164,10.619-2.825,15.609c-1.72,4.953-4.065,9.858-7.478,14.398l-0.639,0.846c-0.213,0.282-0.41,0.553-0.688,0.883
				l-1.574,1.875l-0.398,0.463l-0.848,0.886c-0.572,0.585-1.156,1.161-1.752,1.728c-1.18,1.109-2.439,2.274-3.648,3.176
				c-1.227,0.949-2.488,1.859-3.773,2.725l-0.967,0.638l-0.916,0.543c-0.612,0.358-1.231,0.709-1.856,1.05
				c-0.625,0.342-1.254,0.674-1.888,0.996c-0.623,0.312-1.305,0.666-1.86,0.896c-1.166,0.509-2.349,0.989-3.539,1.444
				c-0.788,0.293-1.702,0.646-2.47,0.877c-0.776,0.24-1.579,0.475-2.406,0.703c-0.827,0.229-1.677,0.453-2.548,0.666l-0.656,0.158
				l-0.591,0.118c-0.396,0.075-0.798,0.151-1.202,0.228c-0.812,0.141-1.64,0.281-2.481,0.426c-0.842,0.134-1.732,0.271-2.467,0.332
				c-1.551,0.154-3.152,0.285-4.791,0.386c-6.125,0.244-11.687-0.255-16.723-0.981c-9.814-1.551-17.53-4.013-22.552-5.672
				c-1.665-0.841-3.384-1.66-4.986-2.509l-4.766-2.536l-22.069-11.746l-1.841-17c-0.524-4.843-0.79-9.964-0.505-15.507
				c0.287-5.525,1.145-11.538,3.1-17.881c1.93-6.304,5.067-13.001,9.732-19.12c4.623-6.122,10.784-11.509,17.538-15.236
				c6.758-3.728,13.915-5.812,20.585-6.637c6.697-0.833,12.938-0.478,18.588,0.512c11.324,2.039,20.39,6.414,28.121,11.351
				l23.107,14.751l-8.99,24.503c-1.842,5.021-4.002,10.521-8.006,17.025c-1.963,3.193-4.629,6.779-8.031,10.275
				c-0.387,0.422-0.86,0.871-1.354,1.319l-1.472,1.315c-1.014,0.868-1.956,1.705-3.081,2.524c-1.144,0.821-2.312,1.612-3.5,2.369
				c-0.599,0.376-1.185,0.753-1.804,1.103c-0.635,0.342-1.274,0.674-1.922,0.996c2.07-2.133,2.363-3.761,1.971-4.881
				c-0.413-1.135-1.608-1.847-3.014-2.48c-1.414-0.633-3.117-1.254-4.543-1.986c-1.438-0.734-2.629-1.598-3.256-2.646
				c-0.633-1.053-0.703-2.281-0.057-3.767c0.316-0.75,0.834-1.541,1.488-2.464c0.625-0.955,1.428-2.014,2.393-3.202
				c1.744-2.455,4-5.566,5.932-9.444c1.928-3.861,3.672-8.375,5.351-13.693l2.335-7.4l-6.344-3.744
				c-2.537-1.498-5.43-3.091-8.883-4.543c-3.453-1.442-7.475-2.761-12.258-3.451c-0.168,1.79-0.505,5.375-0.674,7.167
				c7.068,1.646,12.509,5.379,16.541,9.267c-0.055-0.149-0.107-0.296-0.16-0.443c-1.666,2.751-3.416,5.254-5.334,7.268
				c-1.928,1.994-3.979,3.486-5.904,4.259c-1.938,0.771-3.693,0.703-5.101,0.322c-0.366-0.117-0.696-0.225-1.01-0.343
				c-0.349-0.172-0.67-0.341-0.966-0.505l-0.431-0.247l-0.456-0.319c-0.292-0.21-0.562-0.416-0.813-0.616
				c-2.114-1.752-3.791-4.14-4.729-6.273c-0.52-1.141-0.853-2.218-1.021-3.24c-0.022-0.247-0.1-0.519-0.185-0.793
				c-0.074-0.271-0.136-0.538-0.185-0.8c-0.099-0.524-0.149-1.031-0.149-1.519c-0.001-1.952,0.793-3.603,2.433-4.886
				c0.205-0.16,0.423-0.315,0.655-0.464c0.229-0.149,0.328-0.35,0.505-0.519c0.319-0.35,0.654-0.688,1-1.01
				c0.329-0.337,0.746-0.601,1.032-0.951c0.247-0.312,0.515-0.65,0.805-1.016l0.193-0.234c0.056-0.082,0.057-0.193,0.085-0.285
				l0.057-0.282l0.024-0.136l0.005-0.034c0.002-0.017,0.006-0.04-0.009,0.071l-0.059,0.461c-0.077,0.618-0.142,1.251-0.195,1.899
				c-0.024,0.32-0.048,0.644-0.073,0.969c-0.035,0.248-0.071,0.497-0.106,0.748c-0.129,1.01-0.209,2.073-0.225,3.188
				c-0.008,0.557,0.001,1.129,0.027,1.708c-0.026,0.403-0.038,0.817-0.033,1.243c0.007,0.846,0.089,1.76,0.238,2.67
				c0.024,0.564,0.104,1.167,0.26,1.803l0.13,0.483c0.049,0.164,0.032,0.164,0.056,0.257c0.03,0.144,0.07,0.296,0.123,0.456
				c0.045,0.143,0.136,0.365,0.183,0.465c-0.011-0.021-0.019-0.033-0.023-0.035s-0.004,0.006,0.003,0.024l0.002,0.006l-0.036-0.068
				l-0.073-0.133l-0.152-0.25c-0.105-0.16-0.215-0.306-0.328-0.436c-0.034-0.042-0.045-0.042-0.098-0.117l-0.178-0.249
				c-0.121-0.163-0.245-0.322-0.373-0.475c-0.256-0.307-0.526-0.593-0.808-0.856l-0.213-0.193l-0.316-0.341
				c-0.219-0.232-0.443-0.458-0.672-0.676c-0.953-0.918-1.768-1.442-3.339-2.755c-0.713-0.553-1.452-1.073-2.214-1.556l-0.576-0.356
				c-0.189-0.111-0.379-0.219-0.647-0.417c-0.496-0.347-0.999-0.685-1.509-1.014c-1.021-0.657-2.07-1.278-3.147-1.858
				c-0.538-0.29-1.083-0.57-1.635-0.839c-0.554-0.316-1.671-0.941-1.383-0.803l-0.103-0.167c-0.025-0.073-0.057-0.04-0.054-0.227
				c0.004-0.322,0.021-0.542,0.07-0.916c0.052-0.453,0.118-0.902,0.201-1.351c5.363,14.912,10.726,29.824,16.39,45.572
				c-0.615-0.098-1.074-0.09-1.259,0.031l-0.048,0.063l-0.02,0.024l0.187-0.545c0.265-0.682,0.5-1.393,0.703-2.134
				c0.211-0.717,0.419-1.384,0.575-2.124c0.153-0.746,0.333-1.363,0.44-2.099c0.498-2.771,0.598-5.428,0.351-7.624
				c-0.243-2.219-0.818-3.867-1.247-4.678c-0.405-0.819-0.709-0.875,0.055-0.255c0.732,0.589,2.416,1.604,5.181,2.397
				c2.75,0.803,6.547,1.372,11.108,1.372c0.574,0.002,1.09-0.037,1.697-0.046c0.625-0.001,1.243-0.019,1.856-0.053l0.918-0.063
				l0.228-0.02l0.114-0.01c0.017-0.002,0.004-0.001,0.009-0.003l-0.005-0.008c-0.002-0.007,0.027,0.039,0.033,0.056
				c0.036,0.068-0.015,0.054,0.047,0.195c0.037,0.114,0.062,0.229,0.072,0.348C103.241,87.08,94.8,76.932,86.175,66.563
				c1.291,0.476,2.587,0.953,3.888,1.432l1.864,0.633l0.927,0.319l0.872,0.261l1.743,0.542l1.581,0.418
				c0.256,0.067,0.542,0.161,0.772,0.209l0.682,0.147l0.681,0.161l0.334,0.081l0.271,0.042c0.348,0.052,0.74,0.143,1.049,0.197
				c0.234,0.015,0.468,0.048,0.699,0.101c0.069,0.005,0.084-0.009,0.127-0.001c0.018,0.002,0.034,0.006,0.053,0.011l0.027,0.009
				l0.014,0.006l-0.004,0.586c0.008,0.417-0.023,0.743-0.041,1.089l-0.047,1.038c-0.024,0.693-0.035,1.389-0.033,2.087
				c-0.002,1.382,0.084,2.838,0.162,4.183c0.006,1.209,0.07,2.43,0.195,3.657c0.12,1.219,0.354,2.529,0.424,3.479
				c0.123,1.036,0.309,2.079,0.561,3.123c0.053,0.247,0.152,0.554,0.178,0.75l0.12,0.636c0.089,0.424,0.192,0.849,0.313,1.274
				c0.121,0.425,0.259,0.85,0.414,1.273l0.117,0.318l0.069,0.248l0.151,0.492c0.209,0.645,0.523,1.337,0.826,1.935
				c0.184,0.464,0.422,0.931,0.719,1.39c0.187,0.265,0.244,0.386,0.328,0.525c0.088,0.142,0.187,0.284,0.299,0.426l0.177,0.212
				l0.09,0.1l0.031,0.045c0.043,0.06,0.095,0.121,0.155,0.186l0.099,0.097l0.056,0.049l0.026,0.025l0.017,0.012
				c19.891,18.176-27.082-24.747-22.248-20.323l-0.102,0.14l-0.102,0.14c-0.038,0.051,0.004-0.003,0.003,0
				c0.017-0.021,0.037-0.04,0.05-0.063c0.062-0.087,0.102-0.186,0.123-0.289c0.043-0.205,0.025-0.418-0.025-0.63
				c-0.104-0.423-0.335-0.849-0.67-1.237c-0.176-0.182-0.345-0.403-0.604-0.506c-0.184-0.212-0.458-0.308-0.716-0.404
				c-0.528-0.184-1.148-0.122-1.589,0.2c-0.876,0.626-1.145,1.915-0.273,2.323c0.078,0.065,0.184,0.104,0.273,0.145
				c0.019-0.011,0.071,0.054,0.043-0.006c-0.065-0.126-0.143-0.245-0.232-0.354l-0.017-0.02c1.615-1.389-14.149,12.089-7.45,6.363
				l0.05-0.041l0.198-0.164l0.387-0.332c0.255-0.223,0.502-0.45,0.742-0.681l0.354-0.348l0.412-0.381
				c0.271-0.256,0.535-0.516,0.792-0.779l1.591-1.68c0.546-0.593,1.015-1.179,1.607-1.841l0.785-0.946
				c0.007-0.005-0.014-0.012,0.011-0.011c0.038,0,0.069,0.007,0.096,0.02c0.187,0.059,0.529,0.225,1.001,0.442
				c0.511,0.214,1.133,0.474,1.856,0.749c0.755,0.265,1.572,0.551,2.487,0.818c1.831,0.531,3.925,1.031,6.14,1.386
				c4.397,0.745,9.295,0.966,13.138,0.628c1.904-0.149,3.521-0.46,4.352-0.695c0.17-0.063,0.35-0.106,0.396-0.142
				c0.019-0.008,0.051-0.013,0.056-0.018l-0.007-0.008l-0.002-0.002l-0.001-0.001l0.062,0.196c0.401,1.2,0.838,2.391,1.229,3.527
				c1.701,4.615,3.681,8.846,5.733,12.271c0.238,0.417,0.49,0.831,0.759,1.239l0.409,0.609l0.107,0.151
				c-27.212-29.479-7.523-8.188-13.586-14.775l0.037-0.029l0.148-0.117l1.195-0.936l1.195-0.935l0.6-0.467l0.299-0.233l0.074-0.059
				l-0.025,0.01l-0.051,0.021c-0.271,0.114-0.51,0.278-0.707,0.482c-0.101,0.103-0.203,0.251-0.187,0.184
				c-0.012-0.013-0.019-0.019-0.017-0.019l0.682,0.601l0.818,0.678l0.424,0.332l0.309,0.277l0.621,0.538
				c0.426,0.353,0.871,0.696,1.338,1.027l0.717,0.487l0.369,0.236l0.254,0.188c0.66,0.491,1.397,0.948,2.209,1.359
				c0.244,0.115,0.295,0.167,0.436,0.245l0.381,0.211c0.264,0.138,0.542,0.268,0.837,0.39c1.903,0.852,2.267,0.602,0.937,0.57
				c-1.287-0.056-4.192,0.223-7.649,1.398c-0.456,0.142-0.896,0.298-1.321,0.468l-0.627,0.263l-0.718,0.273
				c-0.462,0.179-0.987,0.407-1.354,0.582c0.002-0.007,0.082,0.005,0.041-0.03c-0.035-0.054-0.033-0.121-0.021-0.21
				c-0.073-0.108-0.123-0.231-0.149-0.371c-0.271-0.585-0.828-1.474-1.599-2.429c-1.51-1.974-4.021-3.977-6.281-5.463
				c-0.39-0.195-0.778-0.49-1.153-0.689c-0.366-0.154-0.754-0.462-1.088-0.568c-0.172-0.077-0.343-0.163-0.513-0.258
				c-0.173-0.101-0.313-0.115-0.47-0.192c-0.163-0.06-0.283-0.153-0.481-0.213c-0.222-0.047-0.444-0.102-0.667-0.164l-0.335-0.1
				c-0.028-0.018-0.178-0.035-0.292-0.052l-0.358-0.051l-1.436-0.211l-1.44-0.22c-0.444-0.059-0.775-0.073-1.169-0.118l-1.142-0.125
				l-0.569-0.067l-0.502-0.015l-1.008-0.052l-0.507-0.037c-0.066-0.004-0.213-0.02-0.212-0.015H84.6
				c-0.602-0.241-1.122-0.329-1.767-0.304c-0.622,0.03-1.277,0.218-1.817,0.607c-0.583,0.349-1.061,0.885-1.402,1.523
				c-0.165,0.32-0.317,0.661-0.422,1.023c-0.062,0.18-0.102,0.366-0.148,0.554c-0.034,0.088-0.001,0.213-0.028,0.318
				c-0.008,0.055-0.02,0.11-0.035,0.166c-0.014,0.062-0.045,0.072-0.03,0.279c-0.027,2.523,0.289,5.584,0.994,8.783
				c0.734,3.207,1.848,6.537,3.239,9.72c1.378,3.193,3.084,6.216,4.897,8.824c0.886,1.349,1.841,2.486,2.745,3.598
				c0.228,0.288,0.37,0.4,0.55,0.619l0.25,0.299l0.123,0.153c0.033,0.038,0.049,0.045,0.074,0.069
				c0.189,0.157,0.295,0.422,0.483,0.594c0.685,0.77,1.515,1.473,2.491,2.004c0.488,0.252,1.007,0.513,1.56,0.617
				c0.273,0.125,0.554,0.113,0.839,0.203c0.144,0.047,0.284,0.01,0.429,0.041c0.144,0.014,0.295,0.065,0.439,0.056
				c1.169,0.041,2.381-0.171,3.547-0.63c0.583-0.229,1.165-0.502,1.741-0.824l0.431-0.252l0.219-0.128
				c0.041-0.029,0.059-0.024,0.123-0.082l0.197-0.185c0.534-0.494,1.079-0.939,1.659-1.438c0.608-0.637,1.231-1.266,1.869-1.889
				c0.308-0.268,0.672-0.748,1.012-1.129l1.046-1.207c0.69-0.77,1.422-1.658,2.153-2.541l1.101-1.312
				c0.357-0.432,0.612-0.783,0.93-1.178c0.591-0.766,1.26-1.541,1.762-2.278l0.82-1.114l0.416-0.555l0.354-0.536
				c1.061-1.546,1.734-2.596,2.287-3.294c1.309-2.006,1.977-5.103,1.027-7.986c-0.494-1.42-1.287-2.765-2.357-3.845
				c-1.053-1.091-2.291-1.955-3.539-2.641c-0.309-0.177-0.627-0.331-0.947-0.471l-0.229-0.123l-0.116-0.067l-0.231-0.108
				l-0.914-0.444c-0.6-0.304-1.285-0.567-1.902-0.868c-0.676-0.273-1.342-0.543-2-0.809c-2.705-1.048-5.514-1.947-8.158-2.728
				c-5.315-1.581-9.895-2.681-12.669-4.181c-4.051-1.518-6.209-2.95-7.283-4.748c-1.057-1.753-0.989-3.786-0.402-5.968
				c10.506-0.348,21.88,1.462,31.557,5.137c2.419,0.918,4.714,1.969,6.857,3.101l0.797,0.428l0.398,0.212l0.299,0.187l1.196,0.715
				c0.779,0.507,1.548,1.026,2.285,1.589c2.945,2.237,5.521,5.006,7.192,8.295c1.658,3.289,2.328,7.021,2.052,10.659
				c-0.16,1.82-0.522,3.611-1.021,5.357c-0.302,0.856-0.539,1.734-0.902,2.566l-0.508,1.258l-0.676,1.412
				c-0.357,0.881-1.064,2.082-1.615,3.157c-0.582,1.103-1.312,2.213-1.949,3.324l-2.191,3.334l-2.551,3.521l-2.523,3.334
				c-0.836,1.045-1.656,1.946-2.471,2.935c-0.816,0.919-1.621,1.677-2.41,2.538c-0.385,0.402-0.672,0.621-1.012,0.939l-0.982,0.879
				c-1.713,1.312-3.516,2.469-5.428,3.375c-1.922,0.885-3.96,1.484-6.029,1.736c-2.075,0.23-4.168,0.118-6.181-0.324
				c-2.011-0.459-3.924-1.253-5.68-2.269c-1.759-1.015-3.364-2.25-4.802-3.62c-0.712-0.736-1.339-1.311-2.204-2.305l-0.617-0.666
				l-0.661-0.803c-0.439-0.539-0.899-1.041-1.314-1.629c-1.735-2.215-3.339-4.675-4.783-7.263c-1.441-2.588-2.767-5.286-3.864-8.078
				c-2.197-5.567-3.701-11.416-4.193-16.896c-0.158-1.375-0.186-2.705-0.223-4.012l0.018-1.914c0.062-0.447,0.106-0.889,0.131-1.33
				c0.194-1.72,0.578-3.373,1.144-4.939c0.568-1.562,1.337-3.028,2.313-4.318c0.992-1.278,2.164-2.39,3.481-3.261
				c2.664-1.731,5.809-2.408,8.735-2.417c-2.891-0.156-6.118,0.329-8.895,1.973c-1.373,0.824-2.626,1.892-3.702,3.152
				c-1.057,1.273-1.908,2.746-2.551,4.333c-0.641,1.589-1.09,3.293-1.333,5.06c-0.235,1.479-0.298,4.499-0.078,7.171
				c0.192,2.753,0.666,5.625,1.357,8.502c0.694,2.874,1.561,5.778,2.679,8.604c2.217,5.646,5.191,11.1,8.74,15.674
				c1.752,2.293,3.747,4.463,5.062,5.686c1.508,1.412,3.182,2.681,5.007,3.725c1.824,1.043,3.808,1.85,5.888,2.305
				c2.081,0.438,4.244,0.535,6.374,0.26c2.127-0.295,4.217-0.942,6.157-1.916c1.939-0.973,3.752-2.206,5.451-3.598
				c0.687-0.58,1.314-1.08,2.047-1.754c0.808-0.84,1.631-1.582,2.469-2.477c0.836-0.967,1.679-1.854,2.535-2.871l2.591-3.273
				l2.621-3.459l2.278-3.287c0.668-1.097,1.412-2.19,2.041-3.283l0.924-1.633l0.455-0.807l0.351-0.711l0.729-1.416
				c0.217-0.445,0.385-0.854,0.582-1.283c0.401-0.843,0.692-1.729,1.03-2.605c0.58-1.781,1.062-3.617,1.295-5.505
				c0.447-3.76,0.021-7.719-1.59-11.248c-1.562-3.547-4.104-6.632-7.12-9.181c-0.767-0.623-1.541-1.246-2.359-1.813
				c-0.396-0.302-0.822-0.562-1.241-0.833l-0.626-0.417c-0.188-0.137-0.516-0.303-0.768-0.455c-2.119-1.271-4.437-2.422-6.859-3.454
				c-9.689-4.15-21.1-6.481-32-6.604c0.728-1.876,1.523-3.754,1.777-5.614c0.25-1.854-0.045-3.726-1.611-5.459
				c0,0-0.962,0.039-2.524,0.103c-1.557,0.1-3.715,0.25-6.071,0.585c-4.73,0.597-10.219,2.028-13.462,3.536
				c-1.893,0.177-3.586,0.502-5.23,0.833c-1.585,0.392-3.121,0.8-4.488,1.36c-2.785,1.063-5.129,2.569-7.079,4.14
				c-0.497,0.415-0.962,0.803-1.398,1.167c-0.449,0.381-0.832,0.765-1.243,1.124c-0.403,0.361-0.801,0.705-1.192,1.026
				c-0.368,0.32-0.716,0.618-1.071,0.889c-1.411,1.087-2.78,1.742-4.131,1.74c-1.347,0.001-2.688-0.657-3.933-2.131
				c-1.272-1.444-2.303-3.808-2.782-6.993c-0.183-1.578-0.313-3.421-0.099-5.312c0.091-0.957,0.223-1.969,0.414-2.996
				c0.209-0.984,0.469-2.006,0.78-3.058c1.235-4.104,3.46-8.385,6.107-11.937c2.855-3.506,6.1-6.677,9.45-9.404
				C46.774,22.98,50.329,20.552,54.053,18.38z"/>
		</g>
	</g>
</g>
<g>
	<g opacity="0.7">
		<g>
			<g>
				<g>
					<path fill="#64C188" d="M113.953,12.445l-0.138-0.08l-0.448-0.002c-0.313,1.268-1.391,1.036-2.656,1.067
						c0.092,0.348,0.281,0.671-0.084,0.963c-2.047-0.153-0.974,0.264-1.979,1.37c0.354-0.15,0.856-0.374,1.153-0.092
						c0,0-0.146,0.068-0.365,0.171c-0.221,0.102-0.514,0.24-0.764,0.401c-0.516,0.314-1.031,0.628-1.031,0.628
						c0.574,0.507,1.086,1.132,0.961,1.795c0.727,1.215,0.748,3.043,1.169,4.471c0.371,0.035,0.681,0.119,0.858,0.244
						c0.188,0.573,0.026,0.932-0.252,1.164c0.086,0.126,0.174,0.251,0.278,0.359c-0.104-0.108-0.192-0.233-0.278-0.359
						c-0.187,0.15-0.422,0.249-0.655,0.312c0.202,0.107,0.401,0.22,0.462,0.489l0.889-0.384c0.082,0.113,0.098,0.23,0.084,0.344
						l0.094-0.42l-0.319-0.26c-0.168-0.221-0.117-0.443-0.062-0.662c0.217-0.189,0.381,0.032,0.567,0.153
						c0.001,0,0.272-0.812,0.288-0.798c-0.17-1.136-1.609-0.017-1.1-1.317l0.369,0.138c0.321-0.416,0.926-0.569,1.026-1.361
						c0.772,1.099,1.078-1.352,1.548,0.337c0.493,0.125,0.98,0.12,1.48,0.064c0.248-0.035,0.502-0.071,0.757-0.106l0.795-0.035
						c0.53-0.005,1.065,0.004,1.565,0.178c0.498,0.203,0.959,0.526,1.312,1.037c0.518-1.096,0.914-3.397,2.23-4.532
						c0.15,0.23,0.393,0.489,0.223,0.722c0,0,0.21-0.105,0.42-0.209c0.216-0.102,0.432-0.204,0.432-0.204
						c-0.393-0.118-0.897-0.166-0.986-0.659c1.256-0.215-0.258-1.105-0.035-1.698c0,0,0.447-0.043,0.896-0.086
						c0.457-0.032,0.913-0.063,0.913-0.063l-0.12-0.3c-1.438-0.667-2.935-1.272-4.533-1.846c-0.793-0.278-1.592-0.46-2.42-0.655
						c-0.414-0.092-0.832-0.175-1.252-0.247c-0.412-0.059-0.81-0.083-1.22-0.108L113.953,12.445z"/>
					<path fill="#64C188" d="M122.808,43.689l1.357-0.033c0.264,0.592,0.349,1.197,0.48,1.838c0.041,0.618,0.113,1.283,0.02,1.909
						c-0.025,0.655-0.217,1.255-0.373,1.886c-0.239,0.581-0.463,1.192-0.819,1.709c-0.681,1.056-1.529,2-2.644,2.621
						c-0.238,0.197-0.57,0.295-0.85,0.444c-0.283,0.144-0.566,0.288-0.9,0.371c-0.315,0.092-0.641,0.222-0.932,0.294
						c-0.271,0.029-0.529,0.067-0.779,0.119c-0.125,0.046-0.809,0.13-1.301,0.199l-0.789,0.106l-0.395,0.053l-0.051,0.006
						l-0.023,0.003l-0.014,0.002c-0.424,0.093,0.563-0.125,0.461-0.103l-0.062-0.006l-0.12-0.012
						c-0.322-0.031-0.638-0.054-0.947-0.067c-0.312-0.019-0.611-0.128-0.91-0.171c-1.188-0.287-2.291-0.684-3.352-1.342
						c-1.06-0.644-2.08-1.424-3.078-2.31c-0.99-0.909-1.92-1.94-2.836-2.996c0,0,1.051-0.708,2.103-1.417
						c1.038-0.724,2.077-1.448,2.077-1.448c-1.863,0.089-3.645-0.466-5.373-1.289c-1.734-0.839-3.43-1.91-5.333-3.269
						c0,0-0.231,0.292-0.393,0.623c-0.179,0.335-0.358,0.67-0.358,0.67c-1.482-0.356-2.771-1.418-3.415-2.803
						c-0.154-0.342-0.28-0.702-0.377-1.067c-0.09-0.363-0.087-0.721-0.088-1.075c-0.021-0.716,0.233-1.352,0.563-1.837
						c0,0,0.291,0.165,0.582,0.329c0.293,0.159,0.585,0.317,0.585,0.317c-0.022,0.361-0.032,0.622-0.025,0.813
						c0.02,0.197,0.069,0.328,0.118,0.404c0.104,0.156,0.259,0.113,0.509,0.051c0.491-0.162,1.407-0.21,3.036,0.629
						c0,0,0.149,0.119,0.299,0.237c0.149,0.111,0.299,0.223,0.299,0.223l0.659-0.023c0,0-0.151-0.11-0.305-0.219
						c-0.14-0.108-0.279-0.217-0.279-0.217c0.734,0.241,1.644,0.466,1.904,0.743c0,0,0.039-0.068,0.09-0.123
						c0.06-0.045,0.117-0.09,0.117-0.09c0.911,0.143,1.742,0.381,2.545,0.663c0.203,0.075,0.402,0.148,0.598,0.22l0.246,0.095
						l-0.039-0.018c-0.057-0.029-0.049-0.018-0.068-0.027c-0.052-0.018-0.038-0.013-0.008-0.002
						c-0.021-0.009-0.069-0.026-0.114-0.042c-0.048-0.022-0.09-0.042-0.139-0.064c-0.041-0.022-0.085-0.046-0.14-0.076
						c-0.062-0.036-0.144-0.092-0.117-0.071l0.002-0.001c0,0,0.002,0.008-0.032-0.013c-0.021-0.015-0.043-0.031-0.06-0.042
						c0.045,0.035,0.076,0.058,0.076,0.058c0.01,0.002,0.188,0.172,0.178,0.169c0.023,0.03,0.047,0.058,0.067,0.084
						c0.063,0.067,0.122,0.13,0.179,0.189c0.129,0.144,0.246,0.289,0.363,0.466l0.067,0.107l0.087,0.15l0.096,0.13
						c0.023,0.032,0.021,0.024,0.033,0.037c0.031,0.031,0.051,0.047,0.062,0.05c0.049,0.014-0.043-0.068,0.051-0.127
						c0.127-0.13,0.129-0.482,0.457-0.725c0.133-0.134,0.262-0.279,0.418-0.398c0.207-0.087,0.422-0.157,0.639-0.189
						c0.227-0.023,0.412-0.045,0.674,0.054c0.264,0.1,0.521,0.258,0.766,0.492c0.16-1.281,0.512-1.148,1.031-0.846
						c0.521,0.29,1.072,0.624,1.778-0.448c0,0-0.09-0.716-0.181-1.432c-0.104-0.717-0.209-1.435-0.209-1.435
						c-0.326-0.975-0.84-1.59-1.461-1.991c-0.615-0.392-1.285-0.464-2.01-0.519c-0.371-0.038-0.709,0.004-1.048,0.044
						c-0.342,0.037-0.687,0.071-1.03,0.085c-0.664,0.062-1.252,0.125-1.924-0.079l-0.383-1.473c0.359-0.56,0.469-1.891,1.323-1.362
						l-0.353-2.661c-1.582-4.397-3.457-3.523-4.354-1.448c-0.479,0.962-0.683,2.243-0.817,3.162
						c-0.072,0.459-0.138,0.831-0.234,1.074c-0.08,0.267-0.2,0.396-0.408,0.339c-1.696-0.33-2.434-1.56-2.501-2.847
						c-0.107-1.271,0.353-2.424-0.2-1.812c0.252-1.234,0.106-2.1-0.466-2.748c-0.562-0.619-1.539-1.073-2.742-1.14
						c-1.195-0.077-2.664-0.022-4.032,0.266c-1.375,0.269-2.719,0.591-3.741,0.578c-1.143,0.214-2.288,0.714-3.389,1.457
						c-1.125,0.733-2.026,1.755-2.928,2.938c-0.458,0.598-0.826,1.224-1.158,1.884c-0.339,0.663-0.651,1.361-0.933,2.083
						c-0.53,1.425-0.833,2.892-1.077,4.409c-0.133,1.422-0.229,2.946-0.133,4.316c0.05,0.682,0.118,1.36,0.198,2.029l0.13,0.992
						c0.063,0.31,0.126,0.617,0.188,0.923c0.488,2.48,1.213,4.577,1.763,6.348c2.437,2.512,4.38,4.876,6.102,7.418
						c1.749,2.503,3.374,5.112,5.183,7.758c1.823,2.623,3.932,5.233,6.385,7.499c1.293,1.088,2.554,2.156,4.006,2.98
						c0.714,0.419,1.404,0.83,2.141,1.16c0.745,0.323,1.489,0.607,2.226,0.848c0.336,0.165,0.699,0.295,1.088,0.384
						c0.4,0.074,0.824,0.114,1.261,0.125c0.875,0.02,1.803-0.074,2.733-0.251c1.914-0.462,3.801-1.124,5.498-1.869
						c0.848-0.355,1.658-0.628,2.412-0.866c0.754-0.25,1.471-0.392,2.17-0.366c0.35,0.013,0.695,0.068,1.039,0.171l0.129,0.041
						l0.064,0.022l0.018,0.006c-0.188,0.042,1.641-0.359,0.867-0.189l0.002,0.001l0.006,0.003l0.021,0.012l0.165,0.106
						c0.11,0.078,0.223,0.169,0.336,0.275c0.45,0.423,0.924,1.08,1.423,2.026c0,0,0.379,0.012,0.947,0.03
						c0.066,0.031,0.482-0.056,0.808-0.112c0.345-0.066,0.707-0.137,1.083-0.209c0.753-0.154,1.561-0.337,2.364-0.541
						c0.86-0.208,1.452-0.416,2.116-0.626c0.644-0.219,1.242-0.424,1.757-0.6c0.514-0.178,0.94-0.343,1.239-0.489
						c0.299-0.137,0.472-0.215,0.472-0.215l0.584,1.438c2.623-1.488,5.104-3.586,7.062-6.125c0.491-0.632,0.965-1.278,1.416-1.934
						c0.411-0.676,0.807-1.364,1.182-2.057c0.783-1.378,1.316-2.817,1.834-4.24c0.508-1.423,0.801-2.847,1.119-4.241
						c0.207-1.381,0.422-2.752,0.496-4.058c0.158-2.62,0.096-5.052-0.07-7.271c-0.027-1.959-1.178-3.159-1.689-4.064
						c-0.506-0.922-0.529-1.532,1.516-2.62c0.979-3.915-0.836-8.05-3.616-11.337c-2.8-3.357-6.441-5.857-9.533-8.339
						c-0.924,1-2.562,1.408-2.144,2.836c1.888,0.604,2.83,2.427,2.677,4.149c-0.076,0.87-0.378,1.721-0.865,2.46
						c-0.496,0.743-1.192,1.384-1.979,1.863c0,0-0.039-0.258-0.08-0.517c-0.062-0.254-0.121-0.509-0.121-0.509
						s-0.367,0.768-0.834,1.51c-0.451,0.741-0.934,1.428-0.934,1.428s0.381,0.084,0.76,0.168c0.391,0.086,0.748,0.205,0.748,0.205
						c-0.718,0.631-1.326,1.021-1.851,1.275c-0.498,2.025-3.294,4.287-5.203,5.848C124.194,41.211,124.63,42.386,122.808,43.689z"/>
				</g>
			</g>
		</g>
	</g>
	<g opacity="0.7">
		<g>
			<g>
				<g>
					<path fill="#64C188" d="M28.765,75.925l0.11-0.044c0.037-0.086,0.086-0.137,0.132-0.191c-1.05-0.57-0.549-1.086-0.053-1.281
						c-0.319-0.167-0.66-0.281-0.754-0.548c0.938-0.052,0.119-0.264-0.232-0.911c-0.048,0.076-0.074,0.164-0.403,0.071
						c0.011-0.106,0.147-0.718,0.122-0.697c-0.483-0.486-1.134-0.957-1.39-1.474c-0.513-0.483-1.001-1.08-1.409-1.772
						c-0.412-0.686-0.749-1.481-1.053-2.133c-0.448,0.078-0.799,0.209-1.059,0.169c-0.357-0.457-0.235-1.023,0.185-1.425
						c-0.125-0.098-0.256-0.191-0.417-0.255c0.161,0.063,0.291,0.157,0.417,0.255c0.278-0.255,0.637-0.488,0.975-0.677
						c-0.266-0.035-0.553-0.064-0.598-0.359c0,0-0.366,0.241-0.732,0.481c-0.389,0.209-0.666,0.572-0.681,0.552
						c-0.131-0.064-0.165-0.188-0.148-0.338l-0.11,0.573l0.497,0.04c0.261,0.126,0.216,0.419,0.182,0.69
						c-0.245,0.354-0.539,0.207-0.806,0.268c0,0-0.02,0.278-0.041,0.556c-0.014,0.267-0.027,0.533-0.027,0.533
						c0.333,0.448,0.8,0.141,1.146-0.063c0.368-0.193,0.632-0.229,0.589,0.508l-0.428,0.106c-0.061,0.312-0.237,0.555-0.292,0.894
						c-0.055,0.336-0.051,0.672,0.166,1.005c-0.708-0.112-0.671,0.418-0.643,0.819c0.023,0.404,0.024,0.704-0.796,0.424
						c-0.807,0.996-1.152,2.467-1.4,4.001c-0.066,0.383-0.142,0.764-0.236,1.14c-0.07,0.388-0.156,0.773-0.271,1.149
						c-0.248,0.746-0.546,1.486-1.041,2.18c1.159,0.567,3.379,0.677,4.826,1.869c-0.186,0.225-0.374,0.574-0.643,0.452l0.623,0.813
						c0.008-0.46-0.075-1.04,0.381-1.257c0.526,1.255,1.003-0.546,1.637-0.406l0.61,1.651l0.256-0.192
						c0.356-2.938,1.794-5.575,2.859-7.111L28.765,75.925z"/>
					<path fill="#64C188" d="M20.586,136.023l1.137-0.746c0.307,0.459,0.646,0.896,0.972,1.34c0.323,0.447,0.642,0.896,1.06,1.271
						c0.754,0.76,1.68,1.65,2.285,2.18c1.321,1.162,2.662,2.344,4.023,3.541c2.71,2.345,5.497,4.718,8.427,7.107
						c2.938,2.385,6.005,4.787,9.413,7.1c1.712,1.151,3.52,2.276,5.535,3.328c2.037,1.03,4.224,2.055,7.212,2.627
						c0.698,0.164,1.609,0.211,2.445,0.262c0.423,0.023,0.948-0.026,1.419-0.057c0.482-0.037,0.954-0.074,1.509-0.218
						c0.542-0.128,1.047-0.254,1.609-0.44c0.71-0.287,1.419-0.645,2.082-1.051l0.489-0.313l0.195-0.14l0.297-0.219l0.298-0.218
						l0.037-0.026l0.019-0.015c0.384-0.368-0.833,0.806,0.866-0.829l0.173-0.211l0.336-0.436c0.429-0.603,0.869-1.189,1.146-1.889
						c0.283-0.672,0.596-1.433,0.707-2.082c0.125-0.654,0.239-1.385,0.257-1.996c0.003-0.578-0.019-1.164-0.064-1.744
						c-0.262-2.07-0.832-3.621-1.389-4.934c-1.147-2.609-2.394-4.518-3.626-6.4c-1.236-1.852-2.479-3.562-3.699-5.225
						c-2.427-3.303-4.812-6.456-6.685-9.428c-0.924-1.464-1.708-2.909-2.115-3.992c-0.236-0.561-0.271-0.931-0.303-1.102
						l0.022-0.008c-0.01,0.002,0.033-0.004-0.023,0.004l-0.394,0.041c-0.614,0.026-0.87,0.094-1.253,0.099
						c-0.899-0.039-1.13-0.021-1.61-0.165c-2.856,2.229-5.698,4.445-8.541,6.662c2.17,0.962,4.674,1.773,7.778,1.9
						c0.391,0.012,0.778,0.02,1.171,0.016c0.417-0.023,0.836-0.057,1.253-0.098c0.809-0.055,1.738-0.283,2.592-0.487
						c1.776-0.538,3.601-1.362,5.136-2.62c0.796-0.589,1.439-1.295,2.093-1.996c0.55-0.703,1.167-1.473,1.556-2.199
						c0.431-0.742,0.826-1.502,1.089-2.212c0.146-0.364,0.288-0.724,0.419-1.098c0.125-0.41,0.242-0.825,0.349-1.241l0.154-0.626
						l0.072-0.313l0.049-0.238l0.095-0.581l0.168-1.112l0.065-0.814l0.059-0.815c0.021-0.26,0.017-0.64,0.022-0.952l-0.003-0.984
						c-0.023-0.414-0.062-0.854-0.106-1.276c0,0,1.313,0.362,2.616,0.903c0.658,0.306,1.282,0.463,1.76,0.646
						c0.475,0.174,0.792,0.29,0.792,0.29l-0.163-1.08c-0.075-0.456-0.16-0.909-0.253-1.358l-0.147-0.672
						c-0.058-0.252-0.157-0.634-0.244-0.941c-0.183-0.649-0.395-1.291-0.631-1.915c-0.343-0.863-0.779-1.761-1.261-2.58
						c-0.128-0.215-0.23-0.394-0.388-0.628c-0.166-0.244-0.339-0.486-0.518-0.725c-0.358-0.475-0.743-0.933-1.146-1.367
						c-0.202-0.216-0.408-0.427-0.618-0.631c-0.203-0.185-0.403-0.35-0.611-0.52c-0.415-0.336-0.847-0.654-1.289-0.951l-0.67-0.429
						c-0.064-0.028-0.049-0.003-0.078-0.007l-0.111,0.018c-0.609,0.118-1.332,0.337-2.055,0.353
						c-0.362,0.014-0.724-0.014-1.08-0.074c-0.327-0.093-0.669-0.194-1.057-0.272c-0.768-0.164-1.661-0.26-2.625-0.351
						c-0.96-0.096-2.008-0.193-3.012-0.496c-1.01-0.293-1.899-0.837-2.598-1.49c-0.707-0.651-1.317-1.391-1.854-2.185
						c-0.564-0.793-0.96-1.652-1.166-2.459c0,0-0.155,0.144-0.388,0.359c-0.187,0.236-0.492,0.542-0.709,0.881
						c-0.478,0.669-0.795,1.405-0.795,1.405c-0.971-0.592-1.784-1.577-2.033-2.714c-0.25-1.137,0.211-2.262,1.113-3.104
						c0.885-0.869,2.143-1.598,3.318-2.562c0.602-0.459,1.145-1.014,1.638-1.569c0.47-0.577,0.87-1.177,1.316-1.673l0.843,1.098
						c-0.755,1.598-1.29,2.072-1.389,2.342c-0.104,0.253,0.169,0.193,0.606,0.103c0.449-0.08,1.016-0.23,1.564-0.129
						c0.556,0.097,1.093,0.473,1.568,1.244l-0.037,0.824c0,0,0.256-0.007,0.512-0.014c0.244-0.012,0.488-0.024,0.488-0.024
						s-0.003-0.206-0.006-0.412c-0.011-0.229-0.022-0.459-0.022-0.459c0.614,0.404,1.562,0.854,1.327,1.417
						c0.026,0.007,0.796-0.578,0.798-0.639c0.585-0.064,1.129-0.083,1.642-0.062c0.256,0.01,0.505,0.03,0.746,0.058
						c0.123,0.017,0.241,0.033,0.357,0.049c0.127-0.002,0.28-0.054,0.417-0.074c1.116-0.218,2.114-0.261,3.031-0.134
						c1.836,0.248,3.346,1.198,4.911,2.534c0.208-0.922-0.789-1.361-1.273-2.43c-0.245-0.528-0.365-1.187-0.174-2.113
						c0.198-0.875,0.68-2.238,1.593-4.155c0,0,0.237,0.354,0.474,0.708c0.23,0.362,0.461,0.725,0.461,0.725s0.009-0.153,0.025-0.42
						c0.013-0.275,0.042-0.623,0.041-1.137c0-1.01,0-2.269-0.126-3.611c-0.156-1.396-0.314-2.676-0.578-3.729
						c-0.242-1.034-0.436-1.698-0.436-1.698s0.086-0.313,0.214-0.783c0.117-0.476,0.224-1.14,0.328-1.812
						c0.101-0.673,0.182-1.362,0.232-1.883c0.022-0.521,0.037-0.87,0.037-0.87c-0.506-0.97-1.002-1.832-1.514-2.593
						c-0.529-0.737-1.029-1.434-1.525-2.125c-0.484-0.695-0.986-1.294-1.454-2.008c-0.228-0.353-0.461-0.715-0.704-1.093
						c-0.237-0.355-0.474-0.733-0.714-1.141c0,0-0.701,0.191-1.385,0.409c-0.687,0.214-1.355,0.455-1.355,0.455
						c-2.247-2.99-5.168-5.12-8.082-6.565c-2.933-1.455-5.907-2.286-8.775-2.83c-5.762-1.055-11.079-1.069-16.085-1.646
						c-0.491,0.676-1.186,1.012-2.048,1.204c-0.861,0.168-1.894,0.219-3.044,0.296c-2.279,0.167-5.132,0.571-7.439,2.606
						c0,0,0.83,0.462,1.618,0.945c0.793,0.48,1.544,0.979,1.544,0.979c3.282,0.98,7.572,0.48,12.312,0.533
						c2.361,0.013,4.824,0.14,7.208,0.545c2.38,0.405,4.684,1.111,6.62,2.147l-0.804,1.335c-1.811-0.115-3.226,0.819-5.073-0.27
						c0,0-0.244,0.636-0.487,1.271c-0.234,0.637-0.469,1.274-0.469,1.274c0.837,4.886,3.34,4.88,6.571,4.749
						c1.613-0.093,3.382-0.145,4.897,0.146c1.519,0.261,2.686,0.939,2.844,1.709c0.23,0.767,0.138,1.397,0.02,1.791
						c-0.135,0.407-0.384,0.647-0.681,0.788c-0.584,0.269-1.388,0.186-2.059,0.089c-1.418-0.179-2.656-0.375-1.907,0.109
						c-1.354-0.127-2.103,0.437-2.544,1.142c-0.432,0.708-0.655,1.632-1.105,2.351c-0.122,0.179-0.228,0.344-0.361,0.49
						c-0.162,0.146-0.322,0.269-0.478,0.368c0.173-0.076,0.225-0.136,0.377-0.197c0.066-0.03,0.138-0.059,0.214-0.084l0.033-0.017
						c0.303-0.073-0.394,0.083-0.759,0.052l-0.175-0.011H44.99c-0.222-0.007-0.444-0.027-0.661-0.062
						c-0.124-0.016-0.183-0.043-0.356-0.06c-0.17-0.018-0.339-0.041-0.507-0.069c-0.337-0.056-0.67-0.133-0.997-0.232l-0.244-0.078
						l-0.345-0.081c-0.23-0.057-0.458-0.12-0.685-0.19c-0.453-0.141-0.899-0.308-1.333-0.501c-0.343-0.139-0.294-0.094-0.364-0.114
						l-0.14-0.025c-0.094-0.011-0.141-0.041-0.231-0.028c-0.108,0.025-0.205,0.053-0.291,0.085l-0.12,0.052l-0.054,0.029
						l-0.467,0.168c-0.672,0.244-1.351,0.491-2.036,0.74l-1.028,0.382c-0.169,0.072-0.35,0.112-0.511,0.21l-0.464,0.362
						c-2.562,1.945-4.358,4.068-5.562,5.857c-1.186,1.824-1.947,3.435-2.571,5.363c-0.661,1.885-1.035,4.269-1.096,6.633
						c-0.08,2.371,0.137,4.713,0.532,6.879c0.392,2.169,1.062,4.194,1.782,5.864c1.501,1.932,3.046,3.352,4.796,4.723
						c0.856,0.689,1.808,1.395,2.836,2.114c0.546,0.373,1.094,0.748,1.645,1.124c0.619,0.378,1.177,0.766,1.83,1.145l0.968,0.568
						l0.484,0.285l0.647,0.15l1.287,0.306c0.2,0.062,0.458,0.083,0.61,0.178l0.373,0.341c0.954,0.961,2.08,1.721,3.204,2.435
						c1.13,0.717,2.299,1.303,3.581,1.903l0.994,0.445l0.508,0.229l0.032,0.016c0.004-0.001-0.038-0.045-0.054-0.064l-0.134-0.158
						l-0.27-0.312l-0.539-0.628l-0.54-0.627l-0.067-0.079l-0.034-0.039c-7.727,7.653,10.485-10.475,8.61-8.602l-0.016,0.018
						l-0.033,0.03c-0.043,0.039-0.087,0.065-0.126,0.081c-0.013,0.006-0.014,0.003-0.035,0.016l-0.123,0.081
						c-0.083,0.052-0.167,0.099-0.252,0.138c-0.17,0.08-0.345,0.139-0.519,0.174c-0.567,0.22-1.277,0.418-1.918,0.472
						c-0.246-0.008-0.882,0.146-1.36,0.203c-0.509,0.071-1.02,0.121-1.529,0.147c-0.509,0.026-1.018,0.031-1.525,0.015
						c-0.659,0.028-1.44,0.075-2.152,0.086c-0.729,0.014-1.457,0.011-2.183-0.013l-0.272-0.008
						c-0.107-0.004-0.031-0.004-0.055-0.006l-0.003-0.01l-0.005-0.018c0.001-0.03-0.009,0.002-0.022,0.047l-0.032,0.111
						l-0.059,0.223l-0.014,0.057v0.004c0.054-0.384-0.123,0.862,0.121-0.857c0.003,0.006-0.014,0.011,0.006,0.021l0.077,0.054
						l0.154,0.107l0.615,0.428l1.23,0.854c0.101,0.057,0.208,0.18,0.304,0.179l0.286-0.038c0.191-0.021,0.385-0.033,0.58-0.038
						c0.39-0.008,0.785,0.019,1.18,0.082c0.292,0.076,0.583,0.177,0.874,0.299c0.283,0.116,0.609,0.302,0.788,0.365
						c0.211,0.097,0.422,0.214,0.629,0.353c0.117,0.086,0.186,0.125,0.248,0.158c0.067,0.041,0.134,0.086,0.201,0.137
						c0.325,0.271,0.384,0.305,0.531,0.478l0.046,0.052l0.023,0.033l-0.048-0.077c-0.036-0.062-0.024-0.058-0.071-0.155
						c-0.057-0.117-0.098-0.229-0.126-0.336c-0.197-0.569-0.302-1.381-0.306-2.574c0.043-1.076,0.197-2.504,0.57-3.846
						c0.174-0.699,0.37-1.451,0.637-2.115l0.29-0.857l0.017-0.062l-22.066,10.946c-0.269,1.038-0.482,2.103-0.635,3.167
						c-0.087,0.559-0.113,1.006-0.139,1.477c-0.025,0.47-0.041,0.939-0.045,1.41c-0.003,0.457-0.005,0.967,0.021,1.375l0.102,1.188
						l0.14,1.183l0.083,0.588l0.095,0.496c0.13,0.654,0.275,1.308,0.434,1.952c0.16,0.657,0.32,1.12,0.493,1.685
						c0.352,1.142,0.703,2,1.073,2.902c1.476,3.457,2.946,5.77,4.353,7.758c2.305,3.937,7.298,6.252,10.92,8.518
						c1.817,1.139,3.317,2.309,3.962,3.6c0.65,1.285,0.375,2.657-1.329,3.881c0,0-0.003,0.047-0.01,0.129
						c-0.006,0.014,0.011,0.058-0.014,0.049c-0.232,0.094,0.475-0.262,0.922-0.473c0.497-0.233,1.033-0.472,1.608-0.703
						c0.29-0.112,0.587-0.229,0.891-0.347c0.149-0.056,0.3-0.11,0.453-0.168l0.358-0.159c0.486-0.211,1.005-0.408,1.556-0.586
						c0.275-0.09,0.558-0.174,0.849-0.252c0.281-0.078,0.627-0.146,0.804-0.223c0.433-0.146,0.894-0.264,1.379-0.348
						c0.243-0.041,0.492-0.073,0.746-0.098c0.225-0.027,0.346-0.07,0.533-0.092c0.345-0.049,0.712-0.059,1.093-0.023
						c0.243-0.006,0.416-0.01,0.649,0.039l0.168,0.041c0.064,0.021,0.117,0.037,0.109,0.03c0.022,0.001,0.048,0.005,0.077,0.013
						c0.036,0,0.218,0.104,0.038,0.01c-0.047-0.026-0.088-0.057-0.122-0.086l-0.047-0.045l-0.02-0.021l-0.009-0.012l-0.004-0.006
						l-0.002-0.002l-0.001-0.002c-0.475-2.604-0.133-0.72-0.24-1.299l-0.382,0.502l-0.189,0.248
						c-0.013,0.014-0.038,0.057-0.041,0.045l0.001-0.058l0.012-0.11c0.024-0.146,0.082-0.275,0.158-0.381l0.06-0.072l-0.061-0.145
						c-0.039-0.096-0.071-0.189-0.098-0.283c-0.053-0.186-0.083-0.363-0.095-0.529c-0.129-0.547-0.188-1.127-0.16-1.604
						c0.015-0.098-0.004-0.288-0.01-0.455c-0.003-0.167-0.006-0.33-0.009-0.488c0.002-0.316,0.02-0.613,0.047-0.889
						c0.027-0.275,0.064-0.527,0.106-0.76c0.028-0.303,0.054-0.579,0.078-0.829c0.118-1.009,0.253-1.562,0.253-1.562l-0.144,0.768
						c0.09-0.553,0.208-1.098,0.352-1.63c0.129-0.604,0.26-1.313,0.429-1.951c0.166-0.652,0.356-1.296,0.57-1.929l0.165-0.477
						l0.161-0.566l0.168-0.563l0.087-0.28c0.002-0.01-0.001-0.004-0.001-0.007c-0.009-0.006-0.019-0.008-0.03-0.006
						c-0.003,0.008-0.025,0.006-0.088-0.024c-0.101-0.041-0.2-0.067-0.315-0.095c-0.575-0.208-1.458-0.559-2.449-0.981
						c-2.037-0.91-4.5-2.106-7.007-3.467c-2.514-1.349-5.092-2.847-7.545-4.414c-1.222-0.787-2.425-1.59-3.554-2.404
						c-1.113-0.797-2.239-1.674-3.085-2.37c-0.231-0.128-0.664-0.136-1.067-0.154c-0.225-0.008-0.432-0.016-0.624-0.021
						c-0.277-0.147-0.536-0.258-0.762-0.441c-0.9-0.648-1.192-1.461,0.344-3.204c-0.459-4.396-2.854-8.782-5.379-13.3
						c-2.527-4.49-5.211-9.145-6.164-13.577c-1.336,0.258-2.957-0.81-3.412,1.012c1.227,2.228,1.309,4.818,0.708,7.061
						c-0.629,2.234-1.944,4.115-3.722,4.674l-0.12-1.932c0,0-0.518,1.011-1.037,2.02c-0.523,1.02-1.01,2.053-1.01,2.053l1.725,1.816
						c-0.714,0.794-1.326,1.244-1.872,1.446c-0.16,4.047-2.187,8.294-2.717,13.063c1.015,1.217,1.904,2.577,2.617,4.28
						c0.344,0.851,0.687,1.795,0.95,2.854c0.151,0.535,0.288,1.101,0.411,1.699C20.241,134.576,20.364,135.175,20.586,136.023z"/>
				</g>
			</g>
		</g>
	</g>
	<g opacity="0.7">
		<g>
			<g>
				<g>
					<path fill="#64C188" d="M184.996,119.876l0.137-0.084l0.213-0.425c-0.961-0.932-0.307-1.766,0.422-3.15
						c-0.348-0.092-0.729-0.059-0.777-0.63c0.641-1.098,0.707-1.411,0.58-1.66c-0.129-0.241-0.445-0.446-0.664-1.471
						c-0.043,0.294-0.072,0.628-0.141,0.916c-0.078,0.262-0.199,0.47-0.404,0.562c0,0,0.023-0.205,0.059-0.513
						c0.027-0.323,0.049-0.798,0.07-1.251c0.016-0.455,0.031-0.911,0.043-1.253c0.008-0.344,0.016-0.562,0.01-0.573
						c-0.744,0.454-1.565,0.725-2.053,0.114c-0.721,0.099-1.459-0.162-2.217-0.496c-0.768-0.353-1.547-0.75-2.281-0.955
						c-0.188,0.525-0.402,0.915-0.625,1.063c-0.576-0.117-0.807-0.592-0.906-1.157c-0.151,0.037-0.303,0.079-0.444,0.153
						c0.144-0.074,0.293-0.116,0.444-0.153c-0.057-0.369-0.045-0.777-0.006-1.158c-0.182,0.224-0.369,0.433-0.639,0.338
						l-0.033,1.526c-0.137,0.038-0.248-0.021-0.346-0.119c0.012,0.002,0.309,0.41,0.309,0.41l0.4-0.262
						c0.275-0.084,0.449,0.14,0.592,0.359c0.033,0.422-0.248,0.497-0.459,0.67l0.512,0.922c1.025,0.531,0.947-2.178,1.732-0.615
						l-0.33,0.41c0.193,0.735-0.027,1.545,0.58,2.146c-0.693,0.171-0.557,0.675-0.471,1.111c0.07,0.414,0.102,0.76-0.738,0.557
						c-0.379,0.503-0.625,1.096-0.861,1.699c-0.246,0.591-0.453,1.22-0.688,1.839c-0.502,1.208-1.146,2.362-2.453,2.94
						c0.883,0.867,2.916,1.869,3.741,3.444c-0.256,0.099-0.559,0.287-0.75,0.068l0.23,0.926c0.199-0.351,0.342-0.856,0.84-0.828
						c-0.037,1.265,1.117,0.001,1.64,0.377c0,0-0.039,0.425-0.078,0.851c-0.043,0.425-0.086,0.849-0.086,0.849l0.312-0.041
						c1.637-2.343,3.918-4.472,5.616-7.358L184.996,119.876z"/>
					<path fill="#64C188" d="M143,143.076l0.965,0.958c-1.428,1.933-3.055,3.85-4.907,5.588c-1.839,1.762-3.879,3.409-6.062,4.802
						c-2.168,1.398-4.51,2.604-6.74,3.28c-1.096,0.312-2.185,0.547-3.045,0.537c-0.213-0.003-0.424,0.001-0.635,0.011
						c-0.174-0.035-0.326-0.081-0.486-0.104l-0.235-0.029c-0.071-0.018-0.104-0.064-0.159-0.088
						c-0.099-0.057-0.193-0.096-0.296-0.116c1.601,2.054,3.229,4.149,4.863,6.247c0.198-2.695,0.622-5.326,1.471-7.876
						c0.879-2.552,2.06-5.054,3.488-7.599c2.87-5.112,6.854-10.379,10.146-17.052l4.157,2.983c0.529-4.314,1.322-8.971,1.272-14.121
						c-0.021-0.653-0.047-1.309-0.092-1.936c-0.053-0.721-0.209-0.834-0.324-1.192c-0.254-0.626-0.549-1.17-0.854-1.832
						c-0.61-1.291-1.325-2.774-2.039-4.478c0,0-0.272,0.316-0.516,0.668c-0.253,0.349-0.5,0.728-0.5,0.728
						c-1.257-1.513-2.308-3.986-2.397-6.539c-0.078-1.278,0.233-2.481,0.729-3.478c0.305-0.453,0.616-0.891,0.985-1.227
						c0.398-0.306,0.801-0.572,1.209-0.758l0.699,1.516c-0.361,0.454-0.652,0.758-0.793,1.047c-0.145,0.289-0.217,0.484-0.23,0.621
						c-0.028,0.274,0.17,0.315,0.49,0.387c0.662,0.119,1.705,0.481,2.662,2.734c0,0,0.035,0.266,0.072,0.531
						c0.041,0.26,0.084,0.521,0.084,0.521l0.754,0.348c0,0-0.045-0.26-0.088-0.518c-0.043-0.263-0.072-0.521-0.072-0.521
						c0.553,0.763,1.353,1.676,1.279,2.277c0,0,0.137-0.086,0.271-0.172c0.129-0.094,0.303-0.136,0.297-0.143
						c1.914,1.3,3.272,2.941,4.529,4.671c1.25,1.739,2.407,3.606,3.791,5.677c-0.345-0.51-3.021-4.625-1.754-3.426l0.698,1.439
						c0,0-0.272-0.658-0.451-1.342c-0.188-0.687-0.271-1.379-0.271-1.379s0.256,0.473,0.479,0.949c0.227,0.477,0.42,0.96,0.42,0.96
						c-0.17-0.956-0.217-1.961,0.115-1.346c0,0-0.117-0.754-0.234-1.509c-0.106-0.754-0.213-1.506-0.213-1.506
						c0.865,0.66,1.594,0.313,2.607,0.297c0.49-0.018,1.014,0.052,1.461,0.287c0.225,0.117,0.449,0.297,0.621,0.511
						c0.361,0.331,0.816,0.788,1.143,1.261c2.178-1.71,2.43,2.469,6.021,2.166l0.485-3.068c-0.254-2.435-2.076-4.133-4.223-5.531
						c-0.23-0.146-0.465-0.295-0.699-0.442l-0.633-0.379c-0.424-0.241-0.848-0.483-1.266-0.724
						c-0.846-0.479-1.658-0.992-2.426-1.664l0.35-1.535c0.791-0.176,1.707-1.195,2.492,0.006c0,0,0.262-0.619,0.521-1.238
						c0.271-0.613,0.544-1.228,0.544-1.228c0.485-4.991-2.509-5.646-4.816-4.771c-1.18,0.417-2.23,1.191-3.031,1.746
						c-0.814,0.673-1.385,1.041-1.883,0.645c-0.516-0.398-0.91-0.812-1.188-1.188c-0.271-0.344-0.426-0.675-0.489-0.993
						c-0.131-0.642,0.112-1.23,0.485-1.739c0.738-1.057,1.979-1.564,0.938-1.507c2.195-1.519,1.199-3.383-1.358-5.081
						c-0.629-0.385-1.34-0.759-2.092-1.124c-0.752-0.357-1.541-0.652-2.318-0.962c-0.782-0.342-1.516-0.502-2.192-0.735
						c-0.672-0.214-1.289-0.479-1.754-0.71c-1.207-0.41-2.554-0.6-3.986-0.593c-0.709,0.018-1.41,0.149-2.148,0.285
						c-0.727,0.159-1.506,0.292-2.225,0.599c-0.73,0.282-1.473,0.604-2.209,0.973c-0.703,0.417-1.406,0.876-2.104,1.368
						c-0.668,0.524-1.31,1.103-1.961,1.685c-0.582,0.636-1.193,1.273-1.73,1.962c-2.137,2.778-3.482,6.052-4.266,9.504
						c-0.752,3.474-0.898,7.101-1.055,10.165l0.217,1.013l0.18,0.921l0.158,0.914l0.072,0.453c0.031,0.076,0.064,0.113,0.098,0.173
						c0.252,0.38,0.451,0.622,0.633,0.971c0.146,0.83,0.281,1.611-0.039,2.672c-0.192,0.974-0.732,2.048-1.287,3.062
						c-0.66,1.074-1.371,2.1-2.273,3.207c-3.438,4.293-8.617,9.181-11.227,15.201c-0.811,1.352-1.104,3.192-1.08,5.306
						c-0.037,2.03,0.324,4.331,0.482,6.358c0.092,1.025,0.221,2.047,0.207,2.976c0.014,0.938-0.144,1.792-0.32,2.604
						c-0.404,1.61-1.479,2.936-3.621,3.932c-0.242,1.613-0.462,3.252-0.658,4.904l-1.268,10.721l13.218,4.537
						c1.208,0.416,2.458,0.779,3.724,1.08c0.311,0.071,0.646,0.155,0.938,0.207l0.853,0.127c0.57,0.08,1.146,0.148,1.723,0.207
						c0.578,0.06,1.158,0.107,1.738,0.146l1.521,0.006c0.992-0.016,2.097-0.034,3.011-0.124l-0.099,1.578
						c4.574-0.729,8.104-2.287,11.142-4.018c1.404-0.879,2.871-1.808,4.052-2.779c0.61-0.484,1.239-0.975,1.812-1.473l1.646-1.51
						c4.272-4.06,7.401-8.291,10.413-11.832c2.734-3.019,0.699-6.623,5.021-4.902c3.759-1.857,6.117-5.604,7.896-9.607
						c1.797-4.02,3.014-8.285,4.922-11.574c-1.143-0.744-1.762-2.395-3.135-1.67c-0.186,1.014-0.66,1.885-1.311,2.577
						c-0.666,0.677-1.506,1.177-2.406,1.474c-1.809,0.6-3.893,0.346-5.383-0.737l1.107-0.843c0,0-0.962,0.015-1.923,0.028
						c-0.95,0.003-1.903,0.007-1.903,0.007l-0.033,1.907c-0.953-0.272-1.615-0.594-2.08-0.94c-2.635,1.162-6.559,0.668-9.879,1.015
						C147.542,140.768,146.248,142.441,143,143.076z"/>
				</g>
			</g>
		</g>
	</g>
</g>
<g>
	<g opacity="0.7">
		<g>
			<g>
				<g>
					<path fill="#64C188" d="M113.953,12.445l-0.138-0.08l-0.448-0.002c-0.313,1.268-1.391,1.036-2.656,1.067
						c0.092,0.348,0.281,0.671-0.084,0.963c-2.047-0.153-0.974,0.264-1.979,1.37c0.354-0.15,0.856-0.374,1.153-0.092
						c0,0-0.146,0.068-0.365,0.171c-0.221,0.102-0.514,0.24-0.764,0.401c-0.516,0.314-1.031,0.628-1.031,0.628
						c0.574,0.507,1.086,1.132,0.961,1.795c0.727,1.215,0.748,3.043,1.169,4.471c0.371,0.035,0.681,0.119,0.858,0.244
						c0.188,0.573,0.026,0.932-0.252,1.164c0.086,0.126,0.174,0.251,0.278,0.359c-0.104-0.108-0.192-0.233-0.278-0.359
						c-0.187,0.15-0.422,0.249-0.655,0.312c0.202,0.107,0.401,0.22,0.462,0.489l0.889-0.384c0.082,0.113,0.098,0.23,0.084,0.344
						l0.094-0.42l-0.319-0.26c-0.168-0.221-0.117-0.443-0.062-0.662c0.217-0.189,0.381,0.032,0.567,0.153
						c0.001,0,0.272-0.812,0.288-0.798c-0.17-1.136-1.609-0.017-1.1-1.317l0.369,0.138c0.321-0.416,0.926-0.569,1.026-1.361
						c0.772,1.099,1.078-1.352,1.548,0.337c0.493,0.125,0.98,0.12,1.48,0.064c0.248-0.035,0.502-0.071,0.757-0.106l0.795-0.035
						c0.53-0.005,1.065,0.004,1.565,0.178c0.498,0.203,0.959,0.526,1.312,1.037c0.518-1.096,0.914-3.397,2.23-4.532
						c0.15,0.23,0.393,0.489,0.223,0.722c0,0,0.21-0.105,0.42-0.209c0.216-0.102,0.432-0.204,0.432-0.204
						c-0.393-0.118-0.897-0.166-0.986-0.659c1.256-0.215-0.258-1.105-0.035-1.698c0,0,0.447-0.043,0.896-0.086
						c0.457-0.032,0.913-0.063,0.913-0.063l-0.12-0.3c-1.438-0.667-2.935-1.272-4.533-1.846c-0.793-0.278-1.592-0.46-2.42-0.655
						c-0.414-0.092-0.832-0.175-1.252-0.247c-0.412-0.059-0.81-0.083-1.22-0.108L113.953,12.445z"/>
					<path fill="#64C188" d="M122.808,43.689l1.357-0.033c0.264,0.592,0.349,1.197,0.48,1.838c0.041,0.618,0.113,1.283,0.02,1.909
						c-0.025,0.655-0.217,1.255-0.373,1.886c-0.239,0.581-0.463,1.192-0.819,1.709c-0.681,1.056-1.529,2-2.644,2.621
						c-0.238,0.197-0.57,0.295-0.85,0.444c-0.283,0.144-0.566,0.288-0.9,0.371c-0.315,0.092-0.641,0.222-0.932,0.294
						c-0.271,0.029-0.529,0.067-0.779,0.119c-0.125,0.046-0.809,0.13-1.301,0.199l-0.789,0.106l-0.395,0.053l-0.051,0.006
						l-0.023,0.003l-0.014,0.002c-0.424,0.093,0.563-0.125,0.461-0.103l-0.062-0.006l-0.12-0.012
						c-0.322-0.031-0.638-0.054-0.947-0.067c-0.312-0.019-0.611-0.128-0.91-0.171c-1.188-0.287-2.291-0.684-3.352-1.342
						c-1.06-0.644-2.08-1.424-3.078-2.31c-0.99-0.909-1.92-1.94-2.836-2.996c0,0,1.051-0.708,2.103-1.417
						c1.038-0.724,2.077-1.448,2.077-1.448c-1.863,0.089-3.645-0.466-5.373-1.289c-1.734-0.839-3.43-1.91-5.333-3.269
						c0,0-0.231,0.292-0.393,0.623c-0.179,0.335-0.358,0.67-0.358,0.67c-1.482-0.356-2.771-1.418-3.415-2.803
						c-0.154-0.342-0.28-0.702-0.377-1.067c-0.09-0.363-0.087-0.721-0.088-1.075c-0.021-0.716,0.233-1.352,0.563-1.837
						c0,0,0.291,0.165,0.582,0.329c0.293,0.159,0.585,0.317,0.585,0.317c-0.022,0.361-0.032,0.622-0.025,0.813
						c0.02,0.197,0.069,0.328,0.118,0.404c0.104,0.156,0.259,0.113,0.509,0.051c0.491-0.162,1.407-0.21,3.036,0.629
						c0,0,0.149,0.119,0.299,0.237c0.149,0.111,0.299,0.223,0.299,0.223l0.659-0.023c0,0-0.151-0.11-0.305-0.219
						c-0.14-0.108-0.279-0.217-0.279-0.217c0.734,0.241,1.644,0.466,1.904,0.743c0,0,0.039-0.068,0.09-0.123
						c0.06-0.045,0.117-0.09,0.117-0.09c0.911,0.143,1.742,0.381,2.545,0.663c0.203,0.075,0.402,0.148,0.598,0.22l0.246,0.095
						l-0.039-0.018c-0.057-0.029-0.049-0.018-0.068-0.027c-0.052-0.018-0.038-0.013-0.008-0.002
						c-0.021-0.009-0.069-0.026-0.114-0.042c-0.048-0.022-0.09-0.042-0.139-0.064c-0.041-0.022-0.085-0.046-0.14-0.076
						c-0.062-0.036-0.144-0.092-0.117-0.071l0.002-0.001c0,0,0.002,0.008-0.032-0.013c-0.021-0.015-0.043-0.031-0.06-0.042
						c0.045,0.035,0.076,0.058,0.076,0.058c0.01,0.002,0.188,0.172,0.178,0.169c0.023,0.03,0.047,0.058,0.067,0.084
						c0.063,0.067,0.122,0.13,0.179,0.189c0.129,0.144,0.246,0.289,0.363,0.466l0.067,0.107l0.087,0.15l0.096,0.13
						c0.023,0.032,0.021,0.024,0.033,0.037c0.031,0.031,0.051,0.047,0.062,0.05c0.049,0.014-0.043-0.068,0.051-0.127
						c0.127-0.13,0.129-0.482,0.457-0.725c0.133-0.134,0.262-0.279,0.418-0.398c0.207-0.087,0.422-0.157,0.639-0.189
						c0.227-0.023,0.412-0.045,0.674,0.054c0.264,0.1,0.521,0.258,0.766,0.492c0.16-1.281,0.512-1.148,1.031-0.846
						c0.521,0.29,1.072,0.624,1.778-0.448c0,0-0.09-0.716-0.181-1.432c-0.104-0.717-0.209-1.435-0.209-1.435
						c-0.326-0.975-0.84-1.59-1.461-1.991c-0.615-0.392-1.285-0.464-2.01-0.519c-0.371-0.038-0.709,0.004-1.048,0.044
						c-0.342,0.037-0.687,0.071-1.03,0.085c-0.664,0.062-1.252,0.125-1.924-0.079l-0.383-1.473c0.359-0.56,0.469-1.891,1.323-1.362
						l-0.353-2.661c-1.582-4.397-3.457-3.523-4.354-1.448c-0.479,0.962-0.683,2.243-0.817,3.162
						c-0.072,0.459-0.138,0.831-0.234,1.074c-0.08,0.267-0.2,0.396-0.408,0.339c-1.696-0.33-2.434-1.56-2.501-2.847
						c-0.107-1.271,0.353-2.424-0.2-1.812c0.252-1.234,0.106-2.1-0.466-2.748c-0.562-0.619-1.539-1.073-2.742-1.14
						c-1.195-0.077-2.664-0.022-4.032,0.266c-1.375,0.269-2.719,0.591-3.741,0.578c-1.143,0.214-2.288,0.714-3.389,1.457
						c-1.125,0.733-2.026,1.755-2.928,2.938c-0.458,0.598-0.826,1.224-1.158,1.884c-0.339,0.663-0.651,1.361-0.933,2.083
						c-0.53,1.425-0.833,2.892-1.077,4.409c-0.133,1.422-0.229,2.946-0.133,4.316c0.05,0.682,0.118,1.36,0.198,2.029l0.13,0.992
						c0.063,0.31,0.126,0.617,0.188,0.923c0.488,2.48,1.213,4.577,1.763,6.348c2.437,2.512,4.38,4.876,6.102,7.418
						c1.749,2.503,3.374,5.112,5.183,7.758c1.823,2.623,3.932,5.233,6.385,7.499c1.293,1.088,2.554,2.156,4.006,2.98
						c0.714,0.419,1.404,0.83,2.141,1.16c0.745,0.323,1.489,0.607,2.226,0.848c0.336,0.165,0.699,0.295,1.088,0.384
						c0.4,0.074,0.824,0.114,1.261,0.125c0.875,0.02,1.803-0.074,2.733-0.251c1.914-0.462,3.801-1.124,5.498-1.869
						c0.848-0.355,1.658-0.628,2.412-0.866c0.754-0.25,1.471-0.392,2.17-0.366c0.35,0.013,0.695,0.068,1.039,0.171l0.129,0.041
						l0.064,0.022l0.018,0.006c-0.188,0.042,1.641-0.359,0.867-0.189l0.002,0.001l0.006,0.003l0.021,0.012l0.165,0.106
						c0.11,0.078,0.223,0.169,0.336,0.275c0.45,0.423,0.924,1.08,1.423,2.026c0,0,0.379,0.012,0.947,0.03
						c0.066,0.031,0.482-0.056,0.808-0.112c0.345-0.066,0.707-0.137,1.083-0.209c0.753-0.154,1.561-0.337,2.364-0.541
						c0.86-0.208,1.452-0.416,2.116-0.626c0.644-0.219,1.242-0.424,1.757-0.6c0.514-0.178,0.94-0.343,1.239-0.489
						c0.299-0.137,0.472-0.215,0.472-0.215l0.584,1.438c2.623-1.488,5.104-3.586,7.062-6.125c0.491-0.632,0.965-1.278,1.416-1.934
						c0.411-0.676,0.807-1.364,1.182-2.057c0.783-1.378,1.316-2.817,1.834-4.24c0.508-1.423,0.801-2.847,1.119-4.241
						c0.207-1.381,0.422-2.752,0.496-4.058c0.158-2.62,0.096-5.052-0.07-7.271c-0.027-1.959-1.178-3.159-1.689-4.064
						c-0.506-0.922-0.529-1.532,1.516-2.62c0.979-3.915-0.836-8.05-3.616-11.337c-2.8-3.357-6.441-5.857-9.533-8.339
						c-0.924,1-2.562,1.408-2.144,2.836c1.888,0.604,2.83,2.427,2.677,4.149c-0.076,0.87-0.378,1.721-0.865,2.46
						c-0.496,0.743-1.192,1.384-1.979,1.863c0,0-0.039-0.258-0.08-0.517c-0.062-0.254-0.121-0.509-0.121-0.509
						s-0.367,0.768-0.834,1.51c-0.451,0.741-0.934,1.428-0.934,1.428s0.381,0.084,0.76,0.168c0.391,0.086,0.748,0.205,0.748,0.205
						c-0.718,0.631-1.326,1.021-1.851,1.275c-0.498,2.025-3.294,4.287-5.203,5.848C124.194,41.211,124.63,42.386,122.808,43.689z"/>
				</g>
			</g>
		</g>
	</g>
	<g opacity="0.7">
		<g>
			<g>
				<g>
					<path fill="#64C188" d="M28.765,75.925l0.11-0.044c0.037-0.086,0.086-0.137,0.132-0.191c-1.05-0.57-0.549-1.086-0.053-1.281
						c-0.319-0.167-0.66-0.281-0.754-0.548c0.938-0.052,0.119-0.264-0.232-0.911c-0.048,0.076-0.074,0.164-0.403,0.071
						c0.011-0.106,0.147-0.718,0.122-0.697c-0.483-0.486-1.134-0.957-1.39-1.474c-0.513-0.483-1.001-1.08-1.409-1.772
						c-0.412-0.686-0.749-1.481-1.053-2.133c-0.448,0.078-0.799,0.209-1.059,0.169c-0.357-0.457-0.235-1.023,0.185-1.425
						c-0.125-0.098-0.256-0.191-0.417-0.255c0.161,0.063,0.291,0.157,0.417,0.255c0.278-0.255,0.637-0.488,0.975-0.677
						c-0.266-0.035-0.553-0.064-0.598-0.359c0,0-0.366,0.241-0.732,0.481c-0.389,0.209-0.666,0.572-0.681,0.552
						c-0.131-0.064-0.165-0.188-0.148-0.338l-0.11,0.573l0.497,0.04c0.261,0.126,0.216,0.419,0.182,0.69
						c-0.245,0.354-0.539,0.207-0.806,0.268c0,0-0.02,0.278-0.041,0.556c-0.014,0.267-0.027,0.533-0.027,0.533
						c0.333,0.448,0.8,0.141,1.146-0.063c0.368-0.193,0.632-0.229,0.589,0.508l-0.428,0.106c-0.061,0.312-0.237,0.555-0.292,0.894
						c-0.055,0.336-0.051,0.672,0.166,1.005c-0.708-0.112-0.671,0.418-0.643,0.819c0.023,0.404,0.024,0.704-0.796,0.424
						c-0.807,0.996-1.152,2.467-1.4,4.001c-0.066,0.383-0.142,0.764-0.236,1.14c-0.07,0.388-0.156,0.773-0.271,1.149
						c-0.248,0.746-0.546,1.486-1.041,2.18c1.159,0.567,3.379,0.677,4.826,1.869c-0.186,0.225-0.374,0.574-0.643,0.452l0.623,0.813
						c0.008-0.46-0.075-1.04,0.381-1.257c0.526,1.255,1.003-0.546,1.637-0.406l0.61,1.651l0.256-0.192
						c0.356-2.938,1.794-5.575,2.859-7.111L28.765,75.925z"/>
					<path fill="#64C188" d="M20.586,136.023l1.137-0.746c0.307,0.459,0.646,0.896,0.972,1.34c0.323,0.447,0.642,0.896,1.06,1.271
						c0.754,0.76,1.68,1.65,2.285,2.18c1.321,1.162,2.662,2.344,4.023,3.541c2.71,2.345,5.497,4.718,8.427,7.107
						c2.938,2.385,6.005,4.787,9.413,7.1c1.712,1.151,3.52,2.276,5.535,3.328c2.037,1.03,4.224,2.055,7.212,2.627
						c0.698,0.164,1.609,0.211,2.445,0.262c0.423,0.023,0.948-0.026,1.419-0.057c0.482-0.037,0.954-0.074,1.509-0.218
						c0.542-0.128,1.047-0.254,1.609-0.44c0.71-0.287,1.419-0.645,2.082-1.051l0.489-0.313l0.195-0.14l0.297-0.219l0.298-0.218
						l0.037-0.026l0.019-0.015c0.384-0.368-0.833,0.806,0.866-0.829l0.173-0.211l0.336-0.436c0.429-0.603,0.869-1.189,1.146-1.889
						c0.283-0.672,0.596-1.433,0.707-2.082c0.125-0.654,0.239-1.385,0.257-1.996c0.003-0.578-0.019-1.164-0.064-1.744
						c-0.262-2.07-0.832-3.621-1.389-4.934c-1.147-2.609-2.394-4.518-3.626-6.4c-1.236-1.852-2.479-3.562-3.699-5.225
						c-2.427-3.303-4.812-6.456-6.685-9.428c-0.924-1.464-1.708-2.909-2.115-3.992c-0.236-0.561-0.271-0.931-0.303-1.102
						l0.022-0.008c-0.01,0.002,0.033-0.004-0.023,0.004l-0.394,0.041c-0.614,0.026-0.87,0.094-1.253,0.099
						c-0.899-0.039-1.13-0.021-1.61-0.165c-2.856,2.229-5.698,4.445-8.541,6.662c2.17,0.962,4.674,1.773,7.778,1.9
						c0.391,0.012,0.778,0.02,1.171,0.016c0.417-0.023,0.836-0.057,1.253-0.098c0.809-0.055,1.738-0.283,2.592-0.487
						c1.776-0.538,3.601-1.362,5.136-2.62c0.796-0.589,1.439-1.295,2.093-1.996c0.55-0.703,1.167-1.473,1.556-2.199
						c0.431-0.742,0.826-1.502,1.089-2.212c0.146-0.364,0.288-0.724,0.419-1.098c0.125-0.41,0.242-0.825,0.349-1.241l0.154-0.626
						l0.072-0.313l0.049-0.238l0.095-0.581l0.168-1.112l0.065-0.814l0.059-0.815c0.021-0.26,0.017-0.64,0.022-0.952l-0.003-0.984
						c-0.023-0.414-0.062-0.854-0.106-1.276c0,0,1.313,0.362,2.616,0.903c0.658,0.306,1.282,0.463,1.76,0.646
						c0.475,0.174,0.792,0.29,0.792,0.29l-0.163-1.08c-0.075-0.456-0.16-0.909-0.253-1.358l-0.147-0.672
						c-0.058-0.252-0.157-0.634-0.244-0.941c-0.183-0.649-0.395-1.291-0.631-1.915c-0.343-0.863-0.779-1.761-1.261-2.58
						c-0.128-0.215-0.23-0.394-0.388-0.628c-0.166-0.244-0.339-0.486-0.518-0.725c-0.358-0.475-0.743-0.933-1.146-1.367
						c-0.202-0.216-0.408-0.427-0.618-0.631c-0.203-0.185-0.403-0.35-0.611-0.52c-0.415-0.336-0.847-0.654-1.289-0.951l-0.67-0.429
						c-0.064-0.028-0.049-0.003-0.078-0.007l-0.111,0.018c-0.609,0.118-1.332,0.337-2.055,0.353
						c-0.362,0.014-0.724-0.014-1.08-0.074c-0.327-0.093-0.669-0.194-1.057-0.272c-0.768-0.164-1.661-0.26-2.625-0.351
						c-0.96-0.096-2.008-0.193-3.012-0.496c-1.01-0.293-1.899-0.837-2.598-1.49c-0.707-0.651-1.317-1.391-1.854-2.185
						c-0.564-0.793-0.96-1.652-1.166-2.459c0,0-0.155,0.144-0.388,0.359c-0.187,0.236-0.492,0.542-0.709,0.881
						c-0.478,0.669-0.795,1.405-0.795,1.405c-0.971-0.592-1.784-1.577-2.033-2.714c-0.25-1.137,0.211-2.262,1.113-3.104
						c0.885-0.869,2.143-1.598,3.318-2.562c0.602-0.459,1.145-1.014,1.638-1.569c0.47-0.577,0.87-1.177,1.316-1.673l0.843,1.098
						c-0.755,1.598-1.29,2.072-1.389,2.342c-0.104,0.253,0.169,0.193,0.606,0.103c0.449-0.08,1.016-0.23,1.564-0.129
						c0.556,0.097,1.093,0.473,1.568,1.244l-0.037,0.824c0,0,0.256-0.007,0.512-0.014c0.244-0.012,0.488-0.024,0.488-0.024
						s-0.003-0.206-0.006-0.412c-0.011-0.229-0.022-0.459-0.022-0.459c0.614,0.404,1.562,0.854,1.327,1.417
						c0.026,0.007,0.796-0.578,0.798-0.639c0.585-0.064,1.129-0.083,1.642-0.062c0.256,0.01,0.505,0.03,0.746,0.058
						c0.123,0.017,0.241,0.033,0.357,0.049c0.127-0.002,0.28-0.054,0.417-0.074c1.116-0.218,2.114-0.261,3.031-0.134
						c1.836,0.248,3.346,1.198,4.911,2.534c0.208-0.922-0.789-1.361-1.273-2.43c-0.245-0.528-0.365-1.187-0.174-2.113
						c0.198-0.875,0.68-2.238,1.593-4.155c0,0,0.237,0.354,0.474,0.708c0.23,0.362,0.461,0.725,0.461,0.725s0.009-0.153,0.025-0.42
						c0.013-0.275,0.042-0.623,0.041-1.137c0-1.01,0-2.269-0.126-3.611c-0.156-1.396-0.314-2.676-0.578-3.729
						c-0.242-1.034-0.436-1.698-0.436-1.698s0.086-0.313,0.214-0.783c0.117-0.476,0.224-1.14,0.328-1.812
						c0.101-0.673,0.182-1.362,0.232-1.883c0.022-0.521,0.037-0.87,0.037-0.87c-0.506-0.97-1.002-1.832-1.514-2.593
						c-0.529-0.737-1.029-1.434-1.525-2.125c-0.484-0.695-0.986-1.294-1.454-2.008c-0.228-0.353-0.461-0.715-0.704-1.093
						c-0.237-0.355-0.474-0.733-0.714-1.141c0,0-0.701,0.191-1.385,0.409c-0.687,0.214-1.355,0.455-1.355,0.455
						c-2.247-2.99-5.168-5.12-8.082-6.565c-2.933-1.455-5.907-2.286-8.775-2.83c-5.762-1.055-11.079-1.069-16.085-1.646
						c-0.491,0.676-1.186,1.012-2.048,1.204c-0.861,0.168-1.894,0.219-3.044,0.296c-2.279,0.167-5.132,0.571-7.439,2.606
						c0,0,0.83,0.462,1.618,0.945c0.793,0.48,1.544,0.979,1.544,0.979c3.282,0.98,7.572,0.48,12.312,0.533
						c2.361,0.013,4.824,0.14,7.208,0.545c2.38,0.405,4.684,1.111,6.62,2.147l-0.804,1.335c-1.811-0.115-3.226,0.819-5.073-0.27
						c0,0-0.244,0.636-0.487,1.271c-0.234,0.637-0.469,1.274-0.469,1.274c0.837,4.886,3.34,4.88,6.571,4.749
						c1.613-0.093,3.382-0.145,4.897,0.146c1.519,0.261,2.686,0.939,2.844,1.709c0.23,0.767,0.138,1.397,0.02,1.791
						c-0.135,0.407-0.384,0.647-0.681,0.788c-0.584,0.269-1.388,0.186-2.059,0.089c-1.418-0.179-2.656-0.375-1.907,0.109
						c-1.354-0.127-2.103,0.437-2.544,1.142c-0.432,0.708-0.655,1.632-1.105,2.351c-0.122,0.179-0.228,0.344-0.361,0.49
						c-0.162,0.146-0.322,0.269-0.478,0.368c0.173-0.076,0.225-0.136,0.377-0.197c0.066-0.03,0.138-0.059,0.214-0.084l0.033-0.017
						c0.303-0.073-0.394,0.083-0.759,0.052l-0.175-0.011H44.99c-0.222-0.007-0.444-0.027-0.661-0.062
						c-0.124-0.016-0.183-0.043-0.356-0.06c-0.17-0.018-0.339-0.041-0.507-0.069c-0.337-0.056-0.67-0.133-0.997-0.232l-0.244-0.078
						l-0.345-0.081c-0.23-0.057-0.458-0.12-0.685-0.19c-0.453-0.141-0.899-0.308-1.333-0.501c-0.343-0.139-0.294-0.094-0.364-0.114
						l-0.14-0.025c-0.094-0.011-0.141-0.041-0.231-0.028c-0.108,0.025-0.205,0.053-0.291,0.085l-0.12,0.052l-0.054,0.029
						l-0.467,0.168c-0.672,0.244-1.351,0.491-2.036,0.74l-1.028,0.382c-0.169,0.072-0.35,0.112-0.511,0.21l-0.464,0.362
						c-2.562,1.945-4.358,4.068-5.562,5.857c-1.186,1.824-1.947,3.435-2.571,5.363c-0.661,1.885-1.035,4.269-1.096,6.633
						c-0.08,2.371,0.137,4.713,0.532,6.879c0.392,2.169,1.062,4.194,1.782,5.864c1.501,1.932,3.046,3.352,4.796,4.723
						c0.856,0.689,1.808,1.395,2.836,2.114c0.546,0.373,1.094,0.748,1.645,1.124c0.619,0.378,1.177,0.766,1.83,1.145l0.968,0.568
						l0.484,0.285l0.647,0.15l1.287,0.306c0.2,0.062,0.458,0.083,0.61,0.178l0.373,0.341c0.954,0.961,2.08,1.721,3.204,2.435
						c1.13,0.717,2.299,1.303,3.581,1.903l0.994,0.445l0.508,0.229l0.032,0.016c0.004-0.001-0.038-0.045-0.054-0.064l-0.134-0.158
						l-0.27-0.312l-0.539-0.628l-0.54-0.627l-0.067-0.079l-0.034-0.039c-7.727,7.653,10.485-10.475,8.61-8.602l-0.016,0.018
						l-0.033,0.03c-0.043,0.039-0.087,0.065-0.126,0.081c-0.013,0.006-0.014,0.003-0.035,0.016l-0.123,0.081
						c-0.083,0.052-0.167,0.099-0.252,0.138c-0.17,0.08-0.345,0.139-0.519,0.174c-0.567,0.22-1.277,0.418-1.918,0.472
						c-0.246-0.008-0.882,0.146-1.36,0.203c-0.509,0.071-1.02,0.121-1.529,0.147c-0.509,0.026-1.018,0.031-1.525,0.015
						c-0.659,0.028-1.44,0.075-2.152,0.086c-0.729,0.014-1.457,0.011-2.183-0.013l-0.272-0.008
						c-0.107-0.004-0.031-0.004-0.055-0.006l-0.003-0.01l-0.005-0.018c0.001-0.03-0.009,0.002-0.022,0.047l-0.032,0.111
						l-0.059,0.223l-0.014,0.057v0.004c0.054-0.384-0.123,0.862,0.121-0.857c0.003,0.006-0.014,0.011,0.006,0.021l0.077,0.054
						l0.154,0.107l0.615,0.428l1.23,0.854c0.101,0.057,0.208,0.18,0.304,0.179l0.286-0.038c0.191-0.021,0.385-0.033,0.58-0.038
						c0.39-0.008,0.785,0.019,1.18,0.082c0.292,0.076,0.583,0.177,0.874,0.299c0.283,0.116,0.609,0.302,0.788,0.365
						c0.211,0.097,0.422,0.214,0.629,0.353c0.117,0.086,0.186,0.125,0.248,0.158c0.067,0.041,0.134,0.086,0.201,0.137
						c0.325,0.271,0.384,0.305,0.531,0.478l0.046,0.052l0.023,0.033l-0.048-0.077c-0.036-0.062-0.024-0.058-0.071-0.155
						c-0.057-0.117-0.098-0.229-0.126-0.336c-0.197-0.569-0.302-1.381-0.306-2.574c0.043-1.076,0.197-2.504,0.57-3.846
						c0.174-0.699,0.37-1.451,0.637-2.115l0.29-0.857l0.017-0.062l-22.066,10.946c-0.269,1.038-0.482,2.103-0.635,3.167
						c-0.087,0.559-0.113,1.006-0.139,1.477c-0.025,0.47-0.041,0.939-0.045,1.41c-0.003,0.457-0.005,0.967,0.021,1.375l0.102,1.188
						l0.14,1.183l0.083,0.588l0.095,0.496c0.13,0.654,0.275,1.308,0.434,1.952c0.16,0.657,0.32,1.12,0.493,1.685
						c0.352,1.142,0.703,2,1.073,2.902c1.476,3.457,2.946,5.77,4.353,7.758c2.305,3.937,7.298,6.252,10.92,8.518
						c1.817,1.139,3.317,2.309,3.962,3.6c0.65,1.285,0.375,2.657-1.329,3.881c0,0-0.003,0.047-0.01,0.129
						c-0.006,0.014,0.011,0.058-0.014,0.049c-0.232,0.094,0.475-0.262,0.922-0.473c0.497-0.233,1.033-0.472,1.608-0.703
						c0.29-0.112,0.587-0.229,0.891-0.347c0.149-0.056,0.3-0.11,0.453-0.168l0.358-0.159c0.486-0.211,1.005-0.408,1.556-0.586
						c0.275-0.09,0.558-0.174,0.849-0.252c0.281-0.078,0.627-0.146,0.804-0.223c0.433-0.146,0.894-0.264,1.379-0.348
						c0.243-0.041,0.492-0.073,0.746-0.098c0.225-0.027,0.346-0.07,0.533-0.092c0.345-0.049,0.712-0.059,1.093-0.023
						c0.243-0.006,0.416-0.01,0.649,0.039l0.168,0.041c0.064,0.021,0.117,0.037,0.109,0.03c0.022,0.001,0.048,0.005,0.077,0.013
						c0.036,0,0.218,0.104,0.038,0.01c-0.047-0.026-0.088-0.057-0.122-0.086l-0.047-0.045l-0.02-0.021l-0.009-0.012l-0.004-0.006
						l-0.002-0.002l-0.001-0.002c-0.475-2.604-0.133-0.72-0.24-1.299l-0.382,0.502l-0.189,0.248
						c-0.013,0.014-0.038,0.057-0.041,0.045l0.001-0.058l0.012-0.11c0.024-0.146,0.082-0.275,0.158-0.381l0.06-0.072l-0.061-0.145
						c-0.039-0.096-0.071-0.189-0.098-0.283c-0.053-0.186-0.083-0.363-0.095-0.529c-0.129-0.547-0.188-1.127-0.16-1.604
						c0.015-0.098-0.004-0.288-0.01-0.455c-0.003-0.167-0.006-0.33-0.009-0.488c0.002-0.316,0.02-0.613,0.047-0.889
						c0.027-0.275,0.064-0.527,0.106-0.76c0.028-0.303,0.054-0.579,0.078-0.829c0.118-1.009,0.253-1.562,0.253-1.562l-0.144,0.768
						c0.09-0.553,0.208-1.098,0.352-1.63c0.129-0.604,0.26-1.313,0.429-1.951c0.166-0.652,0.356-1.296,0.57-1.929l0.165-0.477
						l0.161-0.566l0.168-0.563l0.087-0.28c0.002-0.01-0.001-0.004-0.001-0.007c-0.009-0.006-0.019-0.008-0.03-0.006
						c-0.003,0.008-0.025,0.006-0.088-0.024c-0.101-0.041-0.2-0.067-0.315-0.095c-0.575-0.208-1.458-0.559-2.449-0.981
						c-2.037-0.91-4.5-2.106-7.007-3.467c-2.514-1.349-5.092-2.847-7.545-4.414c-1.222-0.787-2.425-1.59-3.554-2.404
						c-1.113-0.797-2.239-1.674-3.085-2.37c-0.231-0.128-0.664-0.136-1.067-0.154c-0.225-0.008-0.432-0.016-0.624-0.021
						c-0.277-0.147-0.536-0.258-0.762-0.441c-0.9-0.648-1.192-1.461,0.344-3.204c-0.459-4.396-2.854-8.782-5.379-13.3
						c-2.527-4.49-5.211-9.145-6.164-13.577c-1.336,0.258-2.957-0.81-3.412,1.012c1.227,2.228,1.309,4.818,0.708,7.061
						c-0.629,2.234-1.944,4.115-3.722,4.674l-0.12-1.932c0,0-0.518,1.011-1.037,2.02c-0.523,1.02-1.01,2.053-1.01,2.053l1.725,1.816
						c-0.714,0.794-1.326,1.244-1.872,1.446c-0.16,4.047-2.187,8.294-2.717,13.063c1.015,1.217,1.904,2.577,2.617,4.28
						c0.344,0.851,0.687,1.795,0.95,2.854c0.151,0.535,0.288,1.101,0.411,1.699C20.241,134.576,20.364,135.175,20.586,136.023z"/>
				</g>
			</g>
		</g>
	</g>
	<g opacity="0.7">
		<g>
			<g>
				<g>
					<path fill="#64C188" d="M184.996,119.876l0.137-0.084l0.213-0.425c-0.961-0.932-0.307-1.766,0.422-3.15
						c-0.348-0.092-0.729-0.059-0.777-0.63c0.641-1.098,0.707-1.411,0.58-1.66c-0.129-0.241-0.445-0.446-0.664-1.471
						c-0.043,0.294-0.072,0.628-0.141,0.916c-0.078,0.262-0.199,0.47-0.404,0.562c0,0,0.023-0.205,0.059-0.513
						c0.027-0.323,0.049-0.798,0.07-1.251c0.016-0.455,0.031-0.911,0.043-1.253c0.008-0.344,0.016-0.562,0.01-0.573
						c-0.744,0.454-1.565,0.725-2.053,0.114c-0.721,0.099-1.459-0.162-2.217-0.496c-0.768-0.353-1.547-0.75-2.281-0.955
						c-0.188,0.525-0.402,0.915-0.625,1.063c-0.576-0.117-0.807-0.592-0.906-1.157c-0.151,0.037-0.303,0.079-0.444,0.153
						c0.144-0.074,0.293-0.116,0.444-0.153c-0.057-0.369-0.045-0.777-0.006-1.158c-0.182,0.224-0.369,0.433-0.639,0.338
						l-0.033,1.526c-0.137,0.038-0.248-0.021-0.346-0.119c0.012,0.002,0.309,0.41,0.309,0.41l0.4-0.262
						c0.275-0.084,0.449,0.14,0.592,0.359c0.033,0.422-0.248,0.497-0.459,0.67l0.512,0.922c1.025,0.531,0.947-2.178,1.732-0.615
						l-0.33,0.41c0.193,0.735-0.027,1.545,0.58,2.146c-0.693,0.171-0.557,0.675-0.471,1.111c0.07,0.414,0.102,0.76-0.738,0.557
						c-0.379,0.503-0.625,1.096-0.861,1.699c-0.246,0.591-0.453,1.22-0.688,1.839c-0.502,1.208-1.146,2.362-2.453,2.94
						c0.883,0.867,2.916,1.869,3.741,3.444c-0.256,0.099-0.559,0.287-0.75,0.068l0.23,0.926c0.199-0.351,0.342-0.856,0.84-0.828
						c-0.037,1.265,1.117,0.001,1.64,0.377c0,0-0.039,0.425-0.078,0.851c-0.043,0.425-0.086,0.849-0.086,0.849l0.312-0.041
						c1.637-2.343,3.918-4.472,5.616-7.358L184.996,119.876z"/>
					<path fill="#64C188" d="M143,143.076l0.965,0.958c-1.428,1.933-3.055,3.85-4.907,5.588c-1.839,1.762-3.879,3.409-6.062,4.802
						c-2.168,1.398-4.51,2.604-6.74,3.28c-1.096,0.312-2.185,0.547-3.045,0.537c-0.213-0.003-0.424,0.001-0.635,0.011
						c-0.174-0.035-0.326-0.081-0.486-0.104l-0.235-0.029c-0.071-0.018-0.104-0.064-0.159-0.088
						c-0.099-0.057-0.193-0.096-0.296-0.116c1.601,2.054,3.229,4.149,4.863,6.247c0.198-2.695,0.622-5.326,1.471-7.876
						c0.879-2.552,2.06-5.054,3.488-7.599c2.87-5.112,6.854-10.379,10.146-17.052l4.157,2.983c0.529-4.314,1.322-8.971,1.272-14.121
						c-0.021-0.653-0.047-1.309-0.092-1.936c-0.053-0.721-0.209-0.834-0.324-1.192c-0.254-0.626-0.549-1.17-0.854-1.832
						c-0.61-1.291-1.325-2.774-2.039-4.478c0,0-0.272,0.316-0.516,0.668c-0.253,0.349-0.5,0.728-0.5,0.728
						c-1.257-1.513-2.308-3.986-2.397-6.539c-0.078-1.278,0.233-2.481,0.729-3.478c0.305-0.453,0.616-0.891,0.985-1.227
						c0.398-0.306,0.801-0.572,1.209-0.758l0.699,1.516c-0.361,0.454-0.652,0.758-0.793,1.047c-0.145,0.289-0.217,0.484-0.23,0.621
						c-0.028,0.274,0.17,0.315,0.49,0.387c0.662,0.119,1.705,0.481,2.662,2.734c0,0,0.035,0.266,0.072,0.531
						c0.041,0.26,0.084,0.521,0.084,0.521l0.754,0.348c0,0-0.045-0.26-0.088-0.518c-0.043-0.263-0.072-0.521-0.072-0.521
						c0.553,0.763,1.353,1.676,1.279,2.277c0,0,0.137-0.086,0.271-0.172c0.129-0.094,0.303-0.136,0.297-0.143
						c1.914,1.3,3.272,2.941,4.529,4.671c1.25,1.739,2.407,3.606,3.791,5.677c-0.345-0.51-3.021-4.625-1.754-3.426l0.698,1.439
						c0,0-0.272-0.658-0.451-1.342c-0.188-0.687-0.271-1.379-0.271-1.379s0.256,0.473,0.479,0.949c0.227,0.477,0.42,0.96,0.42,0.96
						c-0.17-0.956-0.217-1.961,0.115-1.346c0,0-0.117-0.754-0.234-1.509c-0.106-0.754-0.213-1.506-0.213-1.506
						c0.865,0.66,1.594,0.313,2.607,0.297c0.49-0.018,1.014,0.052,1.461,0.287c0.225,0.117,0.449,0.297,0.621,0.511
						c0.361,0.331,0.816,0.788,1.143,1.261c2.178-1.71,2.43,2.469,6.021,2.166l0.485-3.068c-0.254-2.435-2.076-4.133-4.223-5.531
						c-0.23-0.146-0.465-0.295-0.699-0.442l-0.633-0.379c-0.424-0.241-0.848-0.483-1.266-0.724
						c-0.846-0.479-1.658-0.992-2.426-1.664l0.35-1.535c0.791-0.176,1.707-1.195,2.492,0.006c0,0,0.262-0.619,0.521-1.238
						c0.271-0.613,0.544-1.228,0.544-1.228c0.485-4.991-2.509-5.646-4.816-4.771c-1.18,0.417-2.23,1.191-3.031,1.746
						c-0.814,0.673-1.385,1.041-1.883,0.645c-0.516-0.398-0.91-0.812-1.188-1.188c-0.271-0.344-0.426-0.675-0.489-0.993
						c-0.131-0.642,0.112-1.23,0.485-1.739c0.738-1.057,1.979-1.564,0.938-1.507c2.195-1.519,1.199-3.383-1.358-5.081
						c-0.629-0.385-1.34-0.759-2.092-1.124c-0.752-0.357-1.541-0.652-2.318-0.962c-0.782-0.342-1.516-0.502-2.192-0.735
						c-0.672-0.214-1.289-0.479-1.754-0.71c-1.207-0.41-2.554-0.6-3.986-0.593c-0.709,0.018-1.41,0.149-2.148,0.285
						c-0.727,0.159-1.506,0.292-2.225,0.599c-0.73,0.282-1.473,0.604-2.209,0.973c-0.703,0.417-1.406,0.876-2.104,1.368
						c-0.668,0.524-1.31,1.103-1.961,1.685c-0.582,0.636-1.193,1.273-1.73,1.962c-2.137,2.778-3.482,6.052-4.266,9.504
						c-0.752,3.474-0.898,7.101-1.055,10.165l0.217,1.013l0.18,0.921l0.158,0.914l0.072,0.453c0.031,0.076,0.064,0.113,0.098,0.173
						c0.252,0.38,0.451,0.622,0.633,0.971c0.146,0.83,0.281,1.611-0.039,2.672c-0.192,0.974-0.732,2.048-1.287,3.062
						c-0.66,1.074-1.371,2.1-2.273,3.207c-3.438,4.293-8.617,9.181-11.227,15.201c-0.811,1.352-1.104,3.192-1.08,5.306
						c-0.037,2.03,0.324,4.331,0.482,6.358c0.092,1.025,0.221,2.047,0.207,2.976c0.014,0.938-0.144,1.792-0.32,2.604
						c-0.404,1.61-1.479,2.936-3.621,3.932c-0.242,1.613-0.462,3.252-0.658,4.904l-1.268,10.721l13.218,4.537
						c1.208,0.416,2.458,0.779,3.724,1.08c0.311,0.071,0.646,0.155,0.938,0.207l0.853,0.127c0.57,0.08,1.146,0.148,1.723,0.207
						c0.578,0.06,1.158,0.107,1.738,0.146l1.521,0.006c0.992-0.016,2.097-0.034,3.011-0.124l-0.099,1.578
						c4.574-0.729,8.104-2.287,11.142-4.018c1.404-0.879,2.871-1.808,4.052-2.779c0.61-0.484,1.239-0.975,1.812-1.473l1.646-1.51
						c4.272-4.06,7.401-8.291,10.413-11.832c2.734-3.019,0.699-6.623,5.021-4.902c3.759-1.857,6.117-5.604,7.896-9.607
						c1.797-4.02,3.014-8.285,4.922-11.574c-1.143-0.744-1.762-2.395-3.135-1.67c-0.186,1.014-0.66,1.885-1.311,2.577
						c-0.666,0.677-1.506,1.177-2.406,1.474c-1.809,0.6-3.893,0.346-5.383-0.737l1.107-0.843c0,0-0.962,0.015-1.923,0.028
						c-0.95,0.003-1.903,0.007-1.903,0.007l-0.033,1.907c-0.953-0.272-1.615-0.594-2.08-0.94c-2.635,1.162-6.559,0.668-9.879,1.015
						C147.542,140.768,146.248,142.441,143,143.076z"/>
				</g>
			</g>
		</g>
	</g>
</g>
</svg>
