<?xml version="1.0" encoding="utf-8"?>
<!-- Generator: Adobe Illustrator 16.0.0, SVG Export Plug-In . SVG Version: 6.00 Build 0)  -->
<!DOCTYPE svg PUBLIC "-//W3C//DTD SVG 1.1//EN" "http://www.w3.org/Graphics/SVG/1.1/DTD/svg11.dtd">
<svg version="1.1" id="Layer_1" xmlns="http://www.w3.org/2000/svg" xmlns:xlink="http://www.w3.org/1999/xlink" x="0px" y="0px"
	 width="186.956px" height="12.422px" viewBox="0 0 186.956 12.422" enable-background="new 0 0 186.956 12.422"
	 xml:space="preserve">
<g>
	<g>
		<g>
			<g>
				<g opacity="0.85">
					<g>
						<path fill="#FFD43D" d="M171.432,2.333c-0.618-0.035-1.243-0.07-1.866-0.106c0.312,0.078,0.62,0.194,0.934,0.372
							C170.905,2.722,171.122,2.514,171.432,2.333z"/>
						<path fill="#FFD43D" d="M167.84,2.14c-0.112-0.004-0.226-0.008-0.329-0.012c-0.101,0.03-0.196,0.059-0.284,0.084L167.84,2.14z
							"/>
						<path fill="#FFD43D" d="M164.6,2.369c0.571,0.057,1.12,0.027,1.648-0.031C165.782,2.263,165.239,2.258,164.6,2.369z"/>
						<path fill="#FFD43D" d="M167.177,2.616c-0.198-0.144-0.294-0.293,0.037-0.4l0.013-0.003c-0.324,0.042-0.644,0.082-0.979,0.125
							C166.598,2.396,166.909,2.492,167.177,2.616z"/>
						<path fill="#FFD43D" d="M167.177,2.616c0.19,0.139,0.495,0.27,0.599,0.35C167.602,2.838,167.401,2.72,167.177,2.616z"/>
						<path fill="#FFD43D" d="M166.324,6.004c-0.326,0.105-0.239-0.854-0.886-0.644c-1.513,0.262-2.809,0.686-4.222,0.68
							c-0.646,0.211-1.653-0.855-2.302-0.649c-1.523,0.252-5.453,1.496-3.149,1.465c3.486-0.094,5.701-0.35,8.776-0.51
							c1.249-0.199,2.477-0.394,3.712-0.59c1.228-0.179,2.461-0.335,3.738-0.473c0.715-0.023,1.376,0.071,2.044,0.157
							c-0.868-0.176-1.759-0.351-2.75-0.523C169.979,4.613,168.386,5.778,166.324,6.004z"/>
						<path fill="#FFD43D" d="M185.137,3.772c-0.334,0.078-1.006,0.234-1.006,0.234c-1.368-0.816-2.927-0.684-4.458-0.55
							c0.209,0.177,0.422,0.357,0.636,0.538c0.867,0.022,0.991-0.236,0.238-0.513c1.718,0.739,3.358,0.976,5.073,1.032
							C185.545,4.243,185.604,3.947,185.137,3.772z"/>
						<path fill="#FFD43D" d="M186.627,4.522c-0.338-0.004-0.677-0.007-1.007-0.011c0.003,0.027,0.016,0.056,0.025,0.085
							c0.342-0.017,0.682-0.033,1.015-0.049L186.627,4.522z"/>
						<path fill="#FFD43D" d="M157.73,3.2c-4.298-0.012-8.34-0.106-12.3-0.251c-0.308,0.184-0.524,0.397-0.931,0.28
							c-0.307-0.171-0.616-0.28-0.924-0.354c-0.579-0.024-1.157-0.048-1.729-0.072c-0.2,0.022-0.404,0.044-0.61,0.067
							c-0.003,0.001-0.012,0.003-0.017,0.004c-0.324,0.105-0.229,0.254-0.029,0.398c0.224,0.104,0.429,0.227,0.602,0.355
							c-0.11-0.082-0.406-0.214-0.602-0.355c-0.271-0.125-0.575-0.225-0.93-0.284c-0.526,0.053-1.077,0.081-1.646,0.017
							c0.632-0.105,1.178-0.098,1.646-0.017c0.334-0.041,0.655-0.08,0.976-0.119c0.094-0.027,0.187-0.055,0.282-0.083
							c-1.32-0.062-2.634-0.125-3.947-0.187c-0.302,0.017-0.591,0.048-0.826,0.084c-0.95,0.146-1.896,0.292-2.488-0.163
							c-0.231-0.006-0.469-0.011-0.705-0.017l0.137,0.084c-0.106-0.027-0.194-0.057-0.267-0.086
							c-0.99-0.022-1.986-0.045-2.986-0.068c-0.642,0.193-1.302,0.433-1.965,0.582c0,0-0.455-0.312-0.68-0.466
							c-0.266,0.245-0.649,0.411-1.1,0.5c0.544,0.277,1.039,0.585,1.499,0.773c0.677,0.467,1.476-0.991,2.28-0.101
							c-0.805-0.89-1.604,0.568-2.28,0.101c-0.46-0.188-0.955-0.496-1.499-0.773c-0.938,0.191-2.162,0.034-3.154-0.403
							c1.207-0.44,2.247-0.058,3.154,0.403c0.45-0.089,0.834-0.255,1.1-0.5c0.225,0.154,0.68,0.466,0.68,0.466
							c0.663-0.149,1.323-0.388,1.965-0.582c-1.951-0.045-3.922-0.09-5.937-0.137c-6.466-0.151-12.697-0.036-18.934-0.094
							c-3.131-0.025-6.243,0.025-9.467-0.066c-3.216-0.075-6.487-0.165-9.854-0.29c-3.647-0.071-7.227-0.154-10.759-0.287
							c-3.531-0.126-7.001-0.188-10.449-0.344C51.302,0.692,38.906,2.746,25.086,0.925c-2.643-0.335-6.39-0.306-10.112-0.158
							c-3.711,0.143-7.4,0.285-9.921,0.381C-1.7,2.831,1.793,6.905,2.131,7.133c2.107,1.729,3.998,2.094,6.429,2.272
							c1.217,0.089,2.57,0.131,4.161,0.272c1.59,0.129,3.413,0.317,5.581,0.764c-5.887-0.988,4.239-2.37,9.859-0.224
							c8.165,3.315,19.418-0.254,29.241,0.204c2.461,0.111,5.057-0.191,7.976-0.225c7.602,0.282,14.85,0.019,22.218-0.259
							c3.694-0.094,7.413-0.188,11.2-0.284c3.876-0.139,7.819-0.238,11.886-0.225c4.266-0.112,7.964-1.116,11.531-1.698
							c2.618-0.249,5.385,0.194,7.497,0.146c3.312-0.052,6.171-0.501,8.892-0.892c-3.044,0.15-5.283,0.51-8.684,0.699
							c-2.271,0.101,1.557-1.26,3.064-1.56c0.642-0.227,1.668,0.82,2.31,0.592c1.403-0.042,2.686-0.473,4.185-0.712
							c0.644-0.206,0.569,0.754,0.89,0.652c2.04-0.192,3.635-1.404,4.942-1.124c0.991,0.155,1.885,0.314,2.755,0.473
							c0.551,0.06,1.099,0.109,1.683,0.079c0.368-0.074,0.75-0.151,1.131-0.228c-0.293-0.297-0.391-0.657-0.48-1.02
							c0.546,0.059,1.312,0.28,1.857,0.34c-0.546-0.06-1.312-0.281-1.857-0.34c0.09,0.363,0.188,0.723,0.48,1.02
							c2.752-0.531,5.908-0.998,8.826-1.382c-0.012-0.026-0.025-0.058-0.038-0.085c-1.706,0.082-3.375-0.029-5.134-0.633
							c0.761,0.221,0.663,0.486-0.211,0.532c-0.221-0.162-0.442-0.326-0.66-0.487c1.526-0.252,3.04-0.505,4.473,0.204
							c0,0,0.652-0.208,0.975-0.311c0.48,0.138,0.457,0.437,0.558,0.695c0.331-0.023,0.667-0.047,1.004-0.071
							C159.963,3.842,157.73,3.2,157.73,3.2z"/>
						<path fill="#FFD43D" d="M140.223,2.961c0.231-0.029,0.518-0.047,0.82-0.067c-1.102-0.057-2.205-0.115-3.312-0.172
							C138.319,3.196,139.269,3.079,140.223,2.961z"/>
					</g>
				</g>
			</g>
		</g>
	</g>
</g>
</svg>
