<?xml version="1.0" encoding="utf-8"?>
<!-- Generator: Adobe Illustrator 16.0.0, SVG Export Plug-In . SVG Version: 6.00 Build 0)  -->
<!DOCTYPE svg PUBLIC "-//W3C//DTD SVG 1.1//EN" "http://www.w3.org/Graphics/SVG/1.1/DTD/svg11.dtd">
<svg version="1.1" id="Layer_1" xmlns="http://www.w3.org/2000/svg" xmlns:xlink="http://www.w3.org/1999/xlink" x="0px" y="0px"
	 width="200px" height="200px" viewBox="0 0 200 200" enable-background="new 0 0 200 200" xml:space="preserve">
<g>
	<g>
		<g>
			<path fill="#E64661" stroke="#EF3D5D" stroke-miterlimit="10" d="M57.053,19.38c6.22-1.388,11.967-1.968,17.432-2.188
				c6.311-0.308,12.337-0.125,18.23,0.439c5.894,0.562,11.664,1.478,17.379,2.741c11.418,2.552,22.686,6.38,33.887,12.61
				l1.047,0.586l0.523,0.294l0.602,0.361l2.398,1.469c1.602,0.974,3.123,2.069,4.662,3.131c1.51,1.103,2.996,2.24,4.439,3.417
				c1.412,1.218,2.861,2.395,4.184,3.706c5.387,5.126,10.061,10.981,13.537,17.508c7.18,12.974,9.105,28.474,6.268,43.116
				c-0.383,1.828-0.809,3.652-1.256,5.471c-0.521,1.8-1.068,3.598-1.646,5.384c-0.631,1.769-1.307,3.527-1.996,5.277
				c-0.701,1.685-1.43,3.219-2.17,4.823l-0.557,1.175l-0.543,1.036l-1.096,2.068c-0.721,1.402-1.494,2.705-2.273,4.004
				c-1.531,2.662-3.188,5.073-4.826,7.541c-1.619,2.232-3.168,4.424-4.939,6.721c-0.887,1.146-1.676,2.25-2.652,3.429l-3.002,3.545
				l-0.756,0.883l-0.848,0.902l-1.711,1.797l-1.727,1.785c-0.602,0.606-1.363,1.293-2.045,1.928
				c-1.418,1.274-2.799,2.599-4.301,3.771c-1.494,1.184-2.998,2.358-4.535,3.48c-6.213,4.409-13.078,7.885-20.354,10.055
				c-7.271,2.168-14.969,2.947-22.557,2.217c-7.59-0.715-15.069-2.858-21.969-6.307c-6.916-3.414-13.292-8.007-18.944-13.365
				c-1.035-0.959-1.827-1.848-2.709-2.771c-0.866-0.918-1.745-1.849-2.476-2.737c-0.763-0.9-1.539-1.8-2.284-2.713
				c-0.715-0.923-1.433-1.848-2.151-2.773c-2.78-3.738-5.366-7.577-7.637-11.562c-4.579-7.952-8.248-16.35-10.971-25.231
				c-2.708-8.895-4.469-18.252-4.742-28.314c-0.223-11.176,1.657-22.622,6.39-32.77c2.372-5.065,5.429-9.8,9.106-13.992
				c3.677-4.193,7.981-7.814,12.682-10.805c4.741-2.937,9.87-5.205,15.179-6.91c2.682-0.769,5.365-1.543,8.119-2.016
				c1.371-0.247,2.74-0.555,4.117-0.712c1.377-0.175,2.756-0.335,4.134-0.482l1.034-0.107l0.517-0.052l0.45-0.024l1.79-0.088
				l3.577-0.154c2.317,0.001,4.658,0.026,6.911,0.101l3.226,0.214l1.609,0.11c0.533,0.037,1.05,0.069,1.708,0.143
				c1.238,0.137,2.479,0.272,3.719,0.408c1.248,0.169,2.533,0.42,3.793,0.641c5.021,0.983,9.85,2.352,14.354,4.183
				c4.523,1.805,8.84,3.906,12.855,6.384c-4.736-2.982-9.758-5.578-15.148-7.604c-2.699-1-5.441-1.938-8.311-2.655l-2.139-0.555
				l-2.197-0.447c-1.469-0.293-2.949-0.591-4.365-0.748l-2.154-0.276l-1.074-0.132l-0.927-0.086l-3.707-0.337
				c-0.626-0.05-1.218-0.121-1.875-0.152l-1.992-0.077l-3.991-0.132l-4.116,0.089l-2.061,0.061l-2.392,0.207
				c-1.595,0.157-3.192,0.294-4.783,0.521c-1.589,0.256-3.178,0.533-4.762,0.829c-6.307,1.306-12.47,3.35-18.197,6.289
				c-5.726,2.929-10.998,6.757-15.502,11.37c-4.5,4.616-8.216,9.996-11.035,15.833c-2.823,5.838-4.76,12.127-5.852,18.591
				c-0.248,1.619-0.463,3.248-0.666,4.877c-0.163,1.634-0.265,3.278-0.368,4.921c-0.084,1.64-0.075,3.271-0.085,4.909
				c0.003,0.396-0.007,0.847,0.01,1.199l0.045,1.079l0.1,2.159c0.338,5.731,1.173,11.267,2.379,16.636
				c2.411,10.744,6.349,20.801,11.555,30.353c2.608,4.772,5.583,9.399,8.991,13.854c3.454,4.486,7.042,8.607,11.979,13.102
				c9.929,9.006,22.07,15.76,35.211,18.207c6.548,1.24,13.298,1.43,19.91,0.473c6.613-0.938,13.07-2.959,19.146-5.865
				c6.059-2.95,11.701-6.782,16.914-11.172c1.283-1.121,2.557-2.263,3.812-3.42c0.674-0.604,1.141-1.101,1.668-1.631l1.551-1.584
				c2.158-2.146,3.85-4.199,5.686-6.306l0.674-0.786l0.592-0.752l1.184-1.505l2.35-3.013l2.213-2.946l1.107-1.483l1.135-1.646
				l2.254-3.312l2.172-3.496c0.729-1.144,1.412-2.398,2.1-3.637c0.689-1.273,1.354-2.378,2.064-3.902
				c0.699-1.447,1.385-2.869,2.055-4.361c0.666-1.594,1.312-3.201,1.936-4.816c1.174-3.253,2.23-6.557,3.004-9.928
				c1.592-6.727,2.285-13.66,1.904-20.546c-0.389-6.878-1.781-13.727-4.34-20.154c-2.529-6.435-6.07-12.481-10.416-17.943
				c-4.34-5.467-9.479-10.352-15.166-14.58c-1.436-1.037-2.863-2.092-4.354-3.062l-2.246-1.443l-1.131-0.71l-0.982-0.587
				c-2.588-1.548-5.182-2.962-7.773-4.25c-10.396-5.143-20.812-8.55-31.412-10.874c-10.627-2.274-21.389-3.501-33.091-3.145
				c9.208-3.039,19.273-4.896,30.274-4.912c10.996,0.018,22.977,1.748,35.863,6.909c3.852,1.718,7.67,3.533,11.545,5.752
				l0.721,0.404l0.777,0.448l1.744,1.049c1.152,0.71,2.311,1.414,3.438,2.165c2.246,1.509,4.469,3.046,6.582,4.717
				c2.148,1.627,4.164,3.401,6.164,5.184c1.938,1.845,3.881,3.684,5.643,5.68c3.611,3.913,6.793,8.174,9.557,12.657
				c2.791,4.47,5.066,9.229,6.893,14.133c1.859,4.894,3.094,10.003,3.893,15.154c0.844,5.153,0.988,10.393,0.836,15.601
				c-0.295,5.208-0.922,10.412-2.146,15.505c-0.545,2.56-1.271,5.074-2.061,7.576c-0.738,2.51-1.703,4.951-2.646,7.396l-0.729,1.812
				l-0.727,1.629l-1.494,3.236l-0.758,1.58l-0.711,1.346l-1.436,2.682l-0.727,1.335l-0.742,1.26l-1.5,2.5
				c-0.998,1.701-2.033,3.229-3.07,4.788l-1.562,2.326l-1.479,2.041l-1.475,2.021l-0.74,1.01l-0.795,1.049l-3.205,4.184
				c-1.164,1.448-2.494,2.991-3.748,4.467c-1.193,1.451-2.758,3.062-4.217,4.594l-2.23,2.301c-0.916,0.877-1.869,1.764-2.814,2.629
				c-7.582,6.955-16.135,12.785-25.395,16.832c-0.678-1.687-2-4.979-2.666-6.637c-11.809,5.866-25.26,8.182-38.286,6.566
				c-6.512-0.794-12.93-2.475-19.017-5.025c-6.091-2.541-11.871-5.873-17.234-9.797c-1.328-1-2.672-1.98-3.946-3.051
				c-1.276-1.064-2.538-2.152-3.782-3.257c-2.218-2.073-4.426-4.215-6.198-6.188c-3.719-4.037-7.046-8.222-9.968-12.537
				c-5.897-8.623-10.471-17.692-13.949-27.25c-3.462-9.56-5.83-19.621-6.696-30.42c-0.138-1.327-0.165-2.729-0.232-4.093
				L9.793,88.94c-0.014-0.742-0.003-1.593,0.002-2.384c-0.008-3.209,0.219-6.453,0.526-9.678c0.72-6.433,2.119-12.752,4.251-18.775
				c4.204-12.065,11.62-22.854,21.36-30.842c4.838-4.033,10.283-7.305,16.026-9.871c2.848-1.346,5.845-2.349,8.832-3.349
				c1.507-0.459,3.042-0.842,4.569-1.236l2.297-0.564c0.771-0.164,1.55-0.3,2.327-0.444c1.555-0.282,3.113-0.543,4.671-0.784
				c1.559-0.205,3.122-0.349,4.685-0.496c3.36-0.35,5.69-0.312,8.324-0.368c1.313-0.04,2.554,0.009,3.795,0.061l3.732,0.157
				l0.925,0.047l0.852,0.079l1.702,0.16l3.401,0.329c5.162,0.522,11.225,1.623,16.57,3.23c5.389,1.641,10.52,3.697,15.385,6.124
				c4.834,2.473,9.438,5.285,13.803,8.445c4.334,3.21,8.445,6.758,12.311,10.693c3.836,3.984,7.418,8.387,10.646,13.288
				c3.232,4.873,6.035,10.433,8.201,16.543c2.145,6.119,3.631,12.899,3.84,20.121c0.211,7.206-0.891,14.709-3.215,21.637
				l-0.912,2.582l-0.479,1.282l-0.541,1.224c-0.736,1.625-1.506,3.238-2.305,4.834c-1.707,2.984-3.502,6.022-5.506,8.59
				c-1.961,2.767-4.068,5.006-6.207,7.365c-1.152,1.199-2.514,2.445-3.797,3.635l-1.98,1.773l-0.479,0.42l-0.271,0.224l-0.539,0.446
				l-2.162,1.789l-0.271,0.226l-0.137,0.11l-0.066,0.058c1.6-1.146-2.242,1.616-1.916,1.378l-1.299,0.854l-1.312,0.836l-1.27,0.746
				c-3.4,1.961-6.65,3.438-9.73,4.612c-6.164,2.341-11.809,3.677-17.24,4.625c-5.414,0.914-10.629,1.418-15.756,1.621
				c-5.135,0.218-10.184,0.117-15.246-0.213c2.801,0.817,3.345,1.457,2.995,2.062c-0.349,0.607-1.586,1.133-2.264,1.64
				c-0.407-0.046-0.796-0.089-1.173-0.13c0.377,0.041,0.766,0.084,1.173,0.13c-0.608,0.442-0.774,0.881,0.52,1.354
				c1.298,0.461,4.045,0.992,9.347,1.229c-5.302-0.237-8.049-0.771-9.347-1.229c-1.294-0.476-1.128-0.912-0.52-1.354
				c5.087,0.534,10.208,0.78,15.44,0.729c5.234-0.055,10.59-0.427,16.219-1.262c5.645-0.864,11.559-2.146,18.146-4.567
				c3.277-1.211,6.758-2.74,10.463-4.854c0.893-0.487,1.877-1.112,2.812-1.702l0.703-0.452l0.352-0.229
				c-0.383,0.281,4.064-2.924,2.209-1.59l0.068-0.054l0.543-0.427l2.17-1.707l0.543-0.426l0.137-0.107l0.205-0.17l0.539-0.459
				l2.133-1.865l2.096-1.908l1.031-0.969c0.352-0.33,0.684-0.652,0.951-0.947c2.297-2.469,4.541-4.808,6.664-7.729l1.58-2.121
				c0.26-0.357,0.52-0.703,0.771-1.078l0.744-1.164c0.988-1.562,1.945-3.145,2.869-4.738c1.754-3.394,3.426-6.812,4.672-10.586
				c2.586-7.408,3.928-15.511,3.775-23.292c-0.145-7.777-1.6-15.134-3.812-21.743c-0.574-1.618-1.127-3.32-1.797-4.839
				c-0.656-1.537-1.34-3.065-2.041-4.582c-1.475-2.882-3.012-5.756-4.709-8.342c-3.361-5.25-7.084-9.982-11.107-14.139
				c-8.033-8.386-17.062-15.021-27.098-20.202c-5.035-2.562-10.273-4.814-15.895-6.518c-0.695-0.218-1.383-0.447-2.092-0.647
				l-2.152-0.565c-1.451-0.355-2.854-0.76-4.354-1.037c-1.486-0.292-2.977-0.568-4.469-0.83c-1.471-0.236-2.875-0.381-4.318-0.557
				l-1.076-0.123c-0.344-0.037-0.758-0.088-1.012-0.105l-1.73-0.145l-3.458-0.275c-0.594-0.039-1.114-0.103-1.769-0.118l-1.914-0.06
				l-3.829-0.095c-1.251-0.051-2.64,0.04-3.954,0.063l-4.004,0.149c-1.634,0.137-3.269,0.297-4.9,0.479
				c-1.633,0.184-3.26,0.365-4.886,0.674c-1.625,0.284-3.248,0.59-4.864,0.919C65.9,7.783,64.32,8.251,62.727,8.671
				c-3.197,0.811-6.27,1.978-9.342,3.138c-6.058,2.519-11.815,5.709-17.073,9.603c-10.479,7.839-18.709,18.559-23.77,30.739
				c-2.532,6.09-4.319,12.518-5.398,19.1c-0.249,1.649-0.475,3.305-0.677,4.963c-0.157,1.665-0.282,3.335-0.389,5.008
				c-0.128,1.679-0.117,3.325-0.144,4.992l-0.002,2.493l0.08,2.129c0.192,5.646,0.866,11.031,1.828,16.27
				c0.944,5.252,2.251,10.306,3.817,15.238c1.543,4.948,3.417,9.735,5.535,14.438c2.096,4.708,4.542,9.282,7.247,13.784
				c2.687,4.502,5.775,8.893,9.194,13.187c0.876,1.069,1.719,2.144,2.643,3.197l2.817,3.146c0.968,1.057,2.133,2.199,3.209,3.279
				c0.571,0.559,1.054,1.064,1.705,1.657l1.931,1.741c10.317,9.269,22.693,16.354,36.088,19.881
				c6.688,1.777,13.627,2.66,20.578,2.525c6.949-0.138,13.893-1.261,20.615-3.264c-1.287,0.449-2.617,0.743-3.934,1.086
				c-1.322,0.314-2.639,0.675-3.975,0.913c-2.678,0.458-5.35,0.948-8.059,1.121c-5.396,0.539-10.842,0.293-16.205-0.369
				c-1.338-0.194-2.676-0.406-4.009-0.632c-1.333-0.225-2.646-0.562-3.965-0.863c-2.646-0.572-5.219-1.443-7.795-2.275
				c-5.09-1.861-10.075-4.072-14.752-6.881c-2.377-1.326-4.621-2.896-6.876-4.427c-2.205-1.606-4.39-3.257-6.472-5.022
				c-1.038-0.89-2.067-1.791-3.084-2.702l-0.761-0.688l-0.669-0.643l-1.311-1.281c-0.855-0.851-1.768-1.737-2.556-2.571
				l-2.249-2.459c-5.925-6.594-10.745-13.507-14.873-20.658C13.488,133.236,7.947,117.982,5.5,100.843
				c-0.31-2.133-0.501-4.351-0.717-6.529l-0.194-3.362L4.506,89.27c-0.016-0.259-0.02-0.599-0.023-0.937l-0.009-1.002
				c-0.02-2.671,0.011-5.338,0.219-8.038c0.145-2.695,0.478-5.365,0.861-8.027c1.571-10.631,5.126-20.892,10.503-30.034
				c1.402-2.25,2.792-4.512,4.418-6.604c0.805-1.051,1.565-2.139,2.438-3.134c0.862-1.004,1.735-2,2.618-2.985
				c0.859-1.008,1.848-1.893,2.788-2.824c0.965-0.905,1.888-1.858,2.916-2.693c2.034-1.694,4.062-3.4,6.271-4.869
				c8.685-6.073,18.63-10.366,29.088-12.717c2.621-0.547,5.261-1.083,7.904-1.473c1.322-0.174,2.648-0.334,3.976-0.479l1.992-0.207
				l0.996-0.095c0.337-0.032,0.676-0.063,0.919-0.07c2.147-0.105,4.298-0.19,6.447-0.256c2.086-0.007,4.123,0.048,6.186,0.092
				l1.526,0.046l1.388,0.095l2.776,0.198l2.821,0.218l3.49,0.385c2.275,0.218,4.779,0.723,7.178,1.163
				c2.402,0.476,4.705,1.099,7.041,1.705c9.16,2.641,17.555,6.438,25.316,11.157c7.764,4.72,14.891,10.417,21.371,17.283
				c6.453,6.874,12.348,14.881,16.832,24.821c2.281,4.86,4.061,10.413,5.359,16.171c0.285,1.491,0.547,2.989,0.781,4.489
				c0.113,0.754,0.24,1.493,0.324,2.262l0.203,2.339c0.117,1.565,0.229,3.119,0.27,4.697c-0.004,1.601-0.037,3.205-0.102,4.807
				c-0.039,0.802-0.055,1.598-0.133,2.403l-0.277,2.418c-0.207,1.61-0.418,3.223-0.711,4.817c-0.336,1.586-0.703,3.17-1.102,4.743
				c-0.203,0.785-0.396,1.578-0.627,2.351l-0.766,2.279c-0.521,1.516-1.076,3.021-1.656,4.516c-0.625,1.433-1.285,2.843-1.969,4.248
				c-1.334,2.887-2.912,5.354-4.51,7.918c-0.797,1.312-1.646,2.404-2.5,3.562c-0.855,1.146-1.73,2.279-2.613,3.4
				c-1.783,2.096-3.582,4.041-5.49,6.025c-1.104,1.061-2.229,2.103-3.371,3.125l-1.727,1.521l-0.871,0.749l-0.438,0.371
				l-0.336,0.276l-3.387,2.65c-1.059,0.762,2.219-1.59-2.396,1.729l-0.285,0.188l-0.574,0.369l-1.154,0.729l-1.16,0.713
				l-1.113,0.631c-0.74,0.412-1.496,0.83-2.236,1.217l-2.152,1.059c-0.734,0.359-1.428,0.666-2.113,0.963l-2.08,0.879
				c-1.316,0.504-2.715,1.06-3.98,1.471c-5.197,1.763-9.994,2.867-14.561,3.646c-9.098,1.508-17.395,1.795-25.521,1.463
				c-8.113-0.358-16.014-1.394-23.979-3.149c-7.962-1.779-15.98-4.254-24.291-8.027c-4.154-1.897-8.384-4.136-12.688-6.909
				c-4.294-2.773-8.687-6.1-13.017-10.339l-1.611-1.61c-0.535-0.555-1.074-1.15-1.603-1.73c-1.069-1.156-2.083-2.391-3.079-3.637
				c-0.532-0.652-0.927-1.194-1.33-1.745l-1.212-1.675c-0.76-1.147-1.546-2.283-2.249-3.469c-2.873-4.705-5.173-9.776-6.748-15.062
				c-1.577-5.283-2.506-10.749-2.712-16.287C5.101,88,5.583,82.384,6.798,76.741c0.328-1.412,0.65-2.822,1.042-4.233
				c0.415-1.413,0.852-2.825,1.311-4.232c0.503-1.398,1.049-2.791,1.607-4.181c0.57-1.39,1.102-2.775,1.842-4.149l2.079-4.132
				c0.319-0.696,0.736-1.367,1.163-2.035l1.253-2.012c1.574-2.721,3.593-5.273,5.464-7.884c2.12-2.484,4.122-5.05,6.517-7.374
				c1.165-1.182,2.356-2.34,3.638-3.436c1.278-1.096,2.526-2.216,3.899-3.227c5.365-4.157,11.47-7.631,18.173-10.114
				c6.697-2.486,14.004-3.979,21.693-4.18c0.963-0.014,1.909-0.078,2.891-0.014l2.935,0.153c0.98,0.061,1.955,0.08,2.939,0.175
				l2.976,0.431l2.977,0.431c0.994,0.206,1.99,0.467,2.985,0.698l2.987,0.715c0.998,0.213,1.979,0.626,2.97,0.93
				c3.98,1.187,7.851,2.949,11.691,4.741c3.807,1.92,7.473,4.136,10.963,6.602c6.961,4.952,13.15,10.777,18.361,16.938
				c5.232,6.157,9.492,12.645,12.771,19.07c3.262,6.434,5.473,12.777,6.818,18.832c0.404,1.54,0.613,3,0.869,4.492
				c0.273,1.5,0.373,2.928,0.525,4.376c0.188,1.462,0.199,2.857,0.244,4.264c0.088,1.423,0.006,2.778-0.045,4.147
				c-0.242,5.46-1.164,10.619-2.824,15.609c-1.721,4.953-4.066,9.857-7.479,14.397l-0.639,0.846
				c-0.213,0.282-0.41,0.554-0.688,0.884l-1.574,1.875l-0.398,0.463l-0.848,0.886c-0.572,0.585-1.156,1.161-1.752,1.728
				c-1.18,1.109-2.439,2.274-3.648,3.176c-1.227,0.949-2.488,1.859-3.773,2.726l-0.967,0.638l-0.916,0.543
				c-0.611,0.358-1.23,0.709-1.855,1.051s-1.254,0.674-1.889,0.996c-0.623,0.312-1.305,0.666-1.859,0.896
				c-1.166,0.509-2.35,0.989-3.539,1.444c-0.789,0.293-1.703,0.646-2.471,0.877c-0.775,0.24-1.578,0.475-2.406,0.703
				c-0.826,0.229-1.676,0.453-2.547,0.666l-0.656,0.157l-0.592,0.118c-0.395,0.075-0.797,0.15-1.201,0.229
				c-0.812,0.141-1.641,0.28-2.48,0.426c-0.842,0.134-1.732,0.271-2.467,0.332c-1.553,0.154-3.152,0.285-4.791,0.386
				c-6.125,0.244-11.688-0.255-16.724-0.981c-9.814-1.551-17.53-4.013-22.552-5.672c-1.665-0.841-3.384-1.66-4.986-2.509
				l-4.766-2.536l-22.069-11.746l-1.841-17c-0.524-4.843-0.79-9.964-0.505-15.507c0.287-5.525,1.145-11.538,3.1-17.881
				c1.93-6.304,5.067-13.001,9.732-19.12c4.623-6.122,10.784-11.509,17.538-15.236c6.758-3.728,13.915-5.812,20.585-6.637
				c6.697-0.833,12.938-0.478,18.588,0.512c11.324,2.039,20.391,6.414,28.121,11.351l23.107,14.751l-8.99,24.503
				c-1.842,5.021-4.002,10.521-8.006,17.025c-1.963,3.192-4.629,6.778-8.031,10.274c-0.387,0.423-0.859,0.871-1.354,1.319
				l-1.473,1.314c-1.014,0.868-1.955,1.705-3.08,2.524c-1.145,0.821-2.312,1.612-3.5,2.369c-0.6,0.376-1.186,0.753-1.805,1.103
				c-0.635,0.342-1.273,0.674-1.922,0.996c2.07-2.133,2.363-3.761,1.971-4.881c-0.412-1.135-1.607-1.847-3.014-2.48
				c-1.414-0.633-3.117-1.254-4.543-1.985c-1.438-0.734-2.629-1.599-3.256-2.646c-0.633-1.054-0.703-2.281-0.057-3.768
				c0.316-0.75,0.834-1.541,1.488-2.464c0.625-0.955,1.428-2.015,2.393-3.202c1.744-2.455,4-5.566,5.932-9.444
				c1.928-3.861,3.672-8.375,5.352-13.693l2.334-7.4l-6.344-3.744c-2.537-1.498-5.43-3.091-8.883-4.543
				c-3.453-1.442-7.475-2.761-12.258-3.451c-0.168,1.79-0.505,5.375-0.674,7.167c7.069,1.646,12.508,5.379,16.542,9.267
				c-0.055-0.149-0.107-0.296-0.16-0.443c-1.666,2.751-3.416,5.254-5.334,7.268c-1.928,1.994-3.979,3.486-5.904,4.259
				c-1.938,0.771-3.693,0.703-5.101,0.322c-0.366-0.117-0.696-0.225-1.01-0.343c-0.349-0.172-0.67-0.341-0.966-0.505l-0.431-0.247
				l-0.456-0.319c-0.292-0.21-0.562-0.416-0.813-0.616c-2.114-1.752-3.791-4.14-4.729-6.273c-0.52-1.141-0.853-2.218-1.021-3.24
				c-0.022-0.247-0.1-0.519-0.185-0.793c-0.074-0.271-0.136-0.538-0.185-0.8c-0.099-0.524-0.149-1.031-0.149-1.519
				c-0.001-1.952,0.793-3.603,2.433-4.886c0.205-0.16,0.423-0.315,0.655-0.464c0.229-0.149,0.328-0.35,0.505-0.519
				c0.319-0.35,0.654-0.688,1-1.01c0.329-0.337,0.746-0.601,1.032-0.951c0.247-0.312,0.515-0.65,0.805-1.016l0.193-0.234
				c0.056-0.082,0.057-0.193,0.085-0.285l0.057-0.282l0.024-0.136l0.005-0.034c0.002-0.017,0.006-0.04-0.009,0.071L94.51,68
				c-0.077,0.618-0.142,1.251-0.195,1.899c-0.024,0.32-0.048,0.644-0.073,0.969c-0.035,0.248-0.071,0.497-0.106,0.748
				c-0.129,1.01-0.209,2.073-0.225,3.188c-0.008,0.557,0.001,1.129,0.027,1.708c-0.026,0.403-0.038,0.817-0.033,1.243
				c0.007,0.846,0.089,1.76,0.238,2.67c0.024,0.564,0.104,1.167,0.26,1.803l0.13,0.483c0.049,0.164,0.032,0.164,0.056,0.257
				c0.03,0.144,0.07,0.296,0.123,0.456c0.045,0.143,0.136,0.365,0.183,0.465c-0.011-0.021-0.019-0.033-0.023-0.035
				c-0.004-0.002-0.004,0.006,0.003,0.024l0.002,0.006l-0.036-0.068l-0.073-0.133l-0.152-0.25c-0.105-0.16-0.215-0.306-0.328-0.436
				c-0.034-0.042-0.045-0.042-0.098-0.117l-0.178-0.249c-0.121-0.163-0.245-0.322-0.373-0.475c-0.256-0.307-0.526-0.593-0.808-0.856
				l-0.213-0.193l-0.316-0.341c-0.219-0.232-0.443-0.458-0.672-0.676c-0.953-0.918-1.768-1.442-3.339-2.755
				c-0.713-0.553-1.452-1.073-2.214-1.556l-0.576-0.356c-0.189-0.111-0.379-0.219-0.647-0.417c-0.496-0.347-0.999-0.685-1.509-1.014
				c-1.021-0.657-2.07-1.278-3.147-1.858c-0.538-0.29-1.083-0.57-1.635-0.839c-0.554-0.316-1.671-0.941-1.383-0.803l-0.103-0.167
				c-0.025-0.073-0.057-0.04-0.054-0.227c0.004-0.322,0.021-0.542,0.07-0.916c0.052-0.453,0.118-0.902,0.201-1.351
				c5.363,14.912,10.726,29.824,16.39,45.571c-0.615-0.098-1.074-0.09-1.259,0.031l-0.048,0.063l-0.02,0.024l0.187-0.545
				c0.265-0.683,0.5-1.394,0.703-2.135c0.211-0.717,0.419-1.384,0.575-2.124c0.153-0.745,0.333-1.362,0.44-2.099
				c0.498-2.771,0.598-5.428,0.351-7.624c-0.243-2.219-0.818-3.867-1.247-4.678c-0.405-0.819-0.709-0.875,0.055-0.255
				c0.732,0.589,2.416,1.604,5.181,2.397c2.75,0.803,6.546,1.372,11.109,1.372c0.572,0.002,1.09-0.037,1.695-0.046
				c0.625-0.001,1.244-0.019,1.857-0.053l0.918-0.063l0.227-0.02l0.115-0.01c0.018-0.002,0.004-0.001,0.008-0.003l-0.004-0.008
				c-0.002-0.007,0.027,0.039,0.033,0.056c0.035,0.068-0.016,0.054,0.047,0.195c0.037,0.114,0.062,0.229,0.072,0.348
				C106.242,88.08,97.8,77.932,89.175,67.563c1.291,0.476,2.587,0.953,3.888,1.432l1.864,0.633l0.927,0.319l0.872,0.261l1.743,0.542
				l1.581,0.418c0.256,0.067,0.542,0.161,0.772,0.209l0.682,0.147l0.682,0.161l0.334,0.081l0.271,0.042
				c0.348,0.052,0.738,0.143,1.049,0.197c0.234,0.015,0.467,0.048,0.699,0.101c0.068,0.005,0.084-0.009,0.127-0.001
				c0.018,0.002,0.033,0.006,0.053,0.011l0.027,0.009l0.014,0.006l-0.004,0.586c0.008,0.417-0.023,0.743-0.041,1.089l-0.047,1.038
				c-0.025,0.693-0.035,1.389-0.033,2.087c-0.002,1.382,0.084,2.838,0.162,4.183c0.006,1.209,0.07,2.43,0.195,3.657
				c0.119,1.219,0.354,2.529,0.424,3.479c0.123,1.036,0.309,2.079,0.561,3.123c0.053,0.247,0.152,0.554,0.178,0.75l0.119,0.636
				c0.09,0.424,0.193,0.849,0.314,1.274c0.121,0.425,0.258,0.85,0.414,1.273l0.117,0.318l0.068,0.248l0.15,0.492
				c0.209,0.645,0.523,1.337,0.826,1.935c0.184,0.464,0.422,0.931,0.719,1.39c0.188,0.265,0.244,0.386,0.328,0.525
				c0.088,0.142,0.188,0.284,0.299,0.426l0.178,0.212l0.09,0.1l0.031,0.045c0.043,0.06,0.094,0.121,0.154,0.187l0.1,0.096
				l0.057,0.05l0.025,0.024l0.018,0.013c19.891,18.176-27.083-24.747-22.249-20.323l-0.102,0.14l-0.102,0.14
				c-0.038,0.051,0.004-0.003,0.003,0c0.017-0.021,0.037-0.04,0.05-0.063c0.062-0.087,0.102-0.186,0.123-0.289
				c0.043-0.205,0.025-0.418-0.025-0.63c-0.104-0.423-0.335-0.849-0.67-1.237c-0.176-0.182-0.345-0.403-0.604-0.506
				c-0.184-0.212-0.458-0.308-0.716-0.404c-0.528-0.184-1.148-0.122-1.589,0.2c-0.876,0.626-1.145,1.915-0.273,2.323
				c0.078,0.065,0.184,0.104,0.273,0.145c0.019-0.011,0.071,0.054,0.043-0.006c-0.065-0.126-0.143-0.245-0.232-0.354l-0.017-0.02
				c1.615-1.389-14.149,12.089-7.45,6.363l0.05-0.041l0.198-0.164l0.387-0.332c0.255-0.223,0.502-0.45,0.742-0.681l0.354-0.348
				l0.412-0.381c0.271-0.256,0.535-0.516,0.792-0.779l1.591-1.68c0.546-0.593,1.015-1.179,1.607-1.841l0.785-0.946
				c0.007-0.005-0.014-0.012,0.011-0.011c0.038,0,0.069,0.007,0.096,0.02c0.187,0.059,0.529,0.225,1.001,0.442
				c0.511,0.214,1.133,0.474,1.856,0.749c0.755,0.265,1.572,0.551,2.487,0.818c1.831,0.531,3.925,1.031,6.14,1.386
				c4.397,0.745,9.295,0.966,13.137,0.628c1.904-0.149,3.521-0.46,4.354-0.695c0.17-0.063,0.35-0.106,0.395-0.142
				c0.02-0.008,0.053-0.013,0.057-0.018l-0.008-0.008l-0.002-0.002v-0.001l0.062,0.196c0.4,1.2,0.838,2.391,1.229,3.527
				c1.701,4.615,3.682,8.846,5.732,12.271c0.238,0.417,0.49,0.831,0.76,1.239l0.408,0.609l0.107,0.151
				c-27.212-29.479-7.523-8.188-13.586-14.775l0.037-0.029l0.148-0.117l1.195-0.936l1.193-0.935l0.602-0.467l0.299-0.233
				l0.074-0.059l-0.025,0.01l-0.051,0.021c-0.271,0.114-0.51,0.278-0.707,0.482c-0.102,0.103-0.203,0.251-0.188,0.184
				c-0.012-0.013-0.02-0.019-0.018-0.019l0.682,0.601l0.818,0.678l0.424,0.332l0.311,0.277l0.619,0.538
				c0.428,0.353,0.871,0.696,1.34,1.027l0.717,0.487l0.369,0.236l0.254,0.188c0.66,0.491,1.396,0.948,2.209,1.359
				c0.244,0.115,0.295,0.167,0.436,0.245l0.381,0.211c0.264,0.138,0.541,0.268,0.836,0.39c1.904,0.852,2.268,0.602,0.938,0.57
				c-1.287-0.056-4.191,0.223-7.648,1.398c-0.457,0.142-0.896,0.298-1.32,0.468l-0.627,0.263l-0.719,0.273
				c-0.463,0.179-0.986,0.407-1.354,0.582c0.002-0.007,0.082,0.005,0.041-0.03c-0.035-0.054-0.033-0.121-0.021-0.21
				c-0.072-0.108-0.123-0.231-0.148-0.371c-0.271-0.585-0.828-1.474-1.6-2.429c-1.51-1.974-4.021-3.977-6.281-5.463
				c-0.39-0.195-0.778-0.49-1.153-0.689c-0.366-0.154-0.754-0.462-1.088-0.568c-0.172-0.077-0.343-0.163-0.513-0.258
				c-0.173-0.101-0.313-0.115-0.47-0.192c-0.163-0.06-0.283-0.153-0.481-0.213c-0.222-0.047-0.444-0.102-0.667-0.164l-0.335-0.1
				c-0.028-0.018-0.178-0.035-0.292-0.052l-0.358-0.051l-1.436-0.211l-1.44-0.22c-0.444-0.059-0.775-0.073-1.169-0.118l-1.142-0.125
				l-0.569-0.067l-0.502-0.015l-1.008-0.052l-0.507-0.037c-0.066-0.004-0.213-0.02-0.212-0.015H87.6
				c-0.602-0.241-1.122-0.329-1.767-0.304c-0.622,0.03-1.277,0.218-1.817,0.607c-0.583,0.349-1.061,0.885-1.402,1.523
				c-0.165,0.32-0.317,0.661-0.422,1.023c-0.062,0.18-0.102,0.366-0.148,0.554c-0.034,0.088-0.001,0.213-0.028,0.318
				c-0.008,0.055-0.02,0.11-0.035,0.166c-0.014,0.062-0.045,0.072-0.03,0.279c-0.027,2.523,0.289,5.584,0.994,8.783
				c0.734,3.207,1.848,6.537,3.239,9.72c1.378,3.193,3.084,6.216,4.897,8.824c0.886,1.349,1.841,2.486,2.745,3.598
				c0.228,0.288,0.37,0.4,0.55,0.619l0.25,0.299l0.123,0.153c0.033,0.038,0.049,0.045,0.074,0.069
				c0.189,0.156,0.295,0.422,0.483,0.594c0.685,0.77,1.515,1.473,2.491,2.004c0.488,0.252,1.007,0.513,1.56,0.617
				c0.273,0.125,0.554,0.113,0.839,0.203c0.144,0.047,0.284,0.01,0.429,0.041c0.144,0.014,0.295,0.064,0.439,0.056
				c1.168,0.041,2.381-0.171,3.547-0.63c0.582-0.229,1.164-0.502,1.74-0.824l0.432-0.252l0.219-0.128
				c0.041-0.029,0.059-0.024,0.123-0.082l0.197-0.185c0.533-0.494,1.078-0.939,1.658-1.438c0.609-0.638,1.232-1.267,1.869-1.89
				c0.309-0.268,0.672-0.748,1.012-1.129l1.047-1.207c0.689-0.77,1.422-1.658,2.152-2.541l1.102-1.312
				c0.357-0.433,0.611-0.783,0.93-1.178c0.592-0.767,1.26-1.541,1.762-2.278l0.82-1.113l0.416-0.556l0.354-0.536
				c1.062-1.546,1.734-2.596,2.287-3.294c1.311-2.006,1.979-5.103,1.027-7.986c-0.494-1.42-1.287-2.765-2.357-3.845
				c-1.053-1.091-2.291-1.955-3.539-2.641c-0.309-0.177-0.627-0.331-0.945-0.471l-0.23-0.123l-0.115-0.067l-0.23-0.108l-0.914-0.444
				c-0.6-0.304-1.285-0.567-1.902-0.868c-0.676-0.273-1.342-0.543-2-0.809c-2.705-1.048-5.514-1.947-8.158-2.728
				c-5.315-1.581-9.895-2.681-12.669-4.181c-4.051-1.518-6.209-2.95-7.283-4.748c-1.057-1.753-0.989-3.786-0.402-5.968
				c10.506-0.348,21.879,1.462,31.557,5.137c2.418,0.918,4.715,1.969,6.857,3.101l0.797,0.428l0.398,0.212l0.299,0.187l1.195,0.715
				c0.779,0.507,1.549,1.026,2.285,1.589c2.945,2.237,5.521,5.006,7.191,8.295c1.658,3.289,2.328,7.021,2.053,10.659
				c-0.16,1.82-0.521,3.611-1.021,5.356c-0.303,0.856-0.539,1.734-0.902,2.566l-0.508,1.258l-0.676,1.412
				c-0.357,0.881-1.064,2.082-1.615,3.157c-0.582,1.103-1.312,2.213-1.949,3.324l-2.189,3.334l-2.553,3.521l-2.521,3.334
				c-0.836,1.045-1.656,1.946-2.473,2.936c-0.814,0.919-1.619,1.677-2.408,2.538c-0.387,0.401-0.672,0.62-1.014,0.938l-0.98,0.879
				c-1.713,1.312-3.518,2.469-5.43,3.375c-1.922,0.885-3.959,1.484-6.027,1.736c-2.076,0.23-4.169,0.118-6.182-0.324
				c-2.011-0.459-3.924-1.253-5.68-2.269c-1.759-1.015-3.364-2.25-4.802-3.62c-0.712-0.736-1.339-1.311-2.204-2.305l-0.617-0.666
				l-0.661-0.803c-0.439-0.539-0.899-1.041-1.314-1.629c-1.735-2.216-3.339-4.676-4.783-7.264c-1.441-2.588-2.767-5.286-3.864-8.078
				c-2.197-5.566-3.701-11.416-4.193-16.896c-0.158-1.375-0.186-2.705-0.223-4.012l0.018-1.914c0.062-0.447,0.106-0.889,0.131-1.33
				c0.194-1.72,0.578-3.373,1.144-4.939c0.568-1.562,1.337-3.028,2.313-4.318c0.992-1.278,2.164-2.39,3.481-3.261
				c2.664-1.731,5.809-2.408,8.735-2.417c-2.891-0.156-6.118,0.329-8.895,1.973c-1.373,0.824-2.626,1.892-3.702,3.152
				c-1.057,1.273-1.908,2.746-2.551,4.333c-0.641,1.589-1.09,3.293-1.333,5.06c-0.235,1.479-0.298,4.499-0.078,7.171
				c0.192,2.753,0.666,5.625,1.357,8.502c0.694,2.875,1.561,5.778,2.679,8.604c2.217,5.646,5.191,11.101,8.74,15.674
				c1.752,2.294,3.747,4.464,5.062,5.687c1.508,1.412,3.182,2.681,5.007,3.725c1.824,1.043,3.808,1.85,5.888,2.305
				c2.081,0.438,4.244,0.535,6.375,0.26c2.127-0.295,4.217-0.941,6.156-1.916c1.939-0.973,3.752-2.205,5.451-3.598
				c0.688-0.58,1.314-1.08,2.047-1.754c0.809-0.84,1.631-1.582,2.469-2.477c0.836-0.967,1.68-1.854,2.535-2.871l2.592-3.273
				l2.621-3.459l2.277-3.287c0.668-1.097,1.412-2.189,2.041-3.283l0.924-1.633l0.455-0.807l0.352-0.711l0.729-1.416
				c0.217-0.445,0.385-0.854,0.582-1.283c0.4-0.843,0.691-1.729,1.029-2.605c0.58-1.78,1.062-3.616,1.295-5.504
				c0.447-3.76,0.021-7.719-1.59-11.248c-1.561-3.547-4.104-6.632-7.119-9.181c-0.768-0.623-1.541-1.246-2.359-1.813
				c-0.396-0.302-0.822-0.562-1.24-0.833l-0.627-0.417c-0.188-0.137-0.516-0.303-0.768-0.455c-2.119-1.271-4.438-2.422-6.859-3.454
				c-9.689-4.15-21.1-6.481-32-6.604c0.728-1.876,1.523-3.754,1.777-5.614c0.25-1.854-0.045-3.726-1.611-5.459
				c0,0-0.962,0.039-2.524,0.103c-1.557,0.1-3.715,0.25-6.071,0.585c-4.73,0.597-10.219,2.028-13.462,3.536
				c-1.893,0.177-3.586,0.502-5.23,0.833c-1.585,0.392-3.121,0.8-4.488,1.36c-2.785,1.062-5.129,2.569-7.079,4.14
				c-0.497,0.415-0.962,0.803-1.398,1.167c-0.449,0.381-0.832,0.765-1.243,1.124c-0.403,0.361-0.801,0.705-1.192,1.026
				c-0.368,0.32-0.716,0.618-1.071,0.889c-1.411,1.087-2.78,1.742-4.131,1.74c-1.347,0.001-2.688-0.657-3.933-2.131
				c-1.272-1.444-2.303-3.808-2.782-6.993c-0.183-1.578-0.313-3.421-0.099-5.312c0.091-0.957,0.223-1.969,0.414-2.996
				c0.209-0.984,0.469-2.006,0.78-3.058c1.235-4.104,3.46-8.385,6.107-11.937c2.855-3.506,6.1-6.677,9.45-9.404
				C49.774,23.98,53.329,21.552,57.053,19.38z"/>
		</g>
	</g>
</g>
</svg>
