<?xml version="1.0" encoding="utf-8"?>
<!-- Generator: Adobe Illustrator 16.0.0, SVG Export Plug-In . SVG Version: 6.00 Build 0)  -->
<!DOCTYPE svg PUBLIC "-//W3C//DTD SVG 1.1//EN" "http://www.w3.org/Graphics/SVG/1.1/DTD/svg11.dtd">
<svg version="1.1" id="Layer_1" xmlns="http://www.w3.org/2000/svg" xmlns:xlink="http://www.w3.org/1999/xlink" x="0px" y="0px"
	 width="218px" height="214.611px" viewBox="-0.167 0 218 214.611" enable-background="new -0.167 0 218 214.611"
	 xml:space="preserve">
<g>
	<path fill="#FFD43C" d="M106.21,3.153c-5.499,17.66-15.793,42.263-22.438,59.406C57.945,64.131,27.515,63.07,2.008,58.44
		C13.356,60.81,25.662,73.272,35.5,80.204c6.357,4.253,32.17,16.75,34.163,24.551c0.738,4.475-6.193,14.312-8.309,17.771
		c-5.18,11.458-10.9,23.501-16.057,35.521c-5.719,12.041-14.724,26.463-16.443,40.035c13.069-11.202,23.823-24.004,34.579-36.805
		c5.939-6.423,11.879-12.845,17.818-19.271c1.62-1.751,5.807-9.794,8.033-10.442c7.239-1.973,26.429,28.23,31.707,33.651
		c11.677,10.799,21.733,23.35,32.87,34.73c-1.088-13.464-6.694-27.312-10.551-39.543c-3.203-10.004-6.972-19.987-10.177-29.992
		c-1.255-3.327-4.846-8.813-4.416-12.209c1.918-8.516,20.935-11.51,28.175-13.481c12.793-3.877,26.707-7.798,40.127-10.011
		c-16.733-10.601-35.541-16.619-53.291-24.367c-15.479-7.272-16.193-11.184-21.888-27.281c-4.979-12.187-9.614-30.014-15.651-40.471
		"/>
	<g>
		<g>
			<g>
				<g opacity="0.8">
					<g>
						<path fill="#F8F5F1" d="M121.001,12.248c2.074,5.83,3.847,11.429,5.604,16.718c0.438,1.352,0.889,2.607,1.332,3.904
							c0.438,1.287,0.885,2.568,1.383,3.845l0.724,1.912c0.241,0.631,0.481,1.256,0.729,1.99c0.473,1.352,0.943,2.699,1.413,4.043
							c0.894,2.522,1.775,4.952,2.67,6.876c0.912,1.953,1.732,3.191,2.782,4.265c1.042,1.078,2.584,2.175,4.535,3.281
							c0.926,0.556,2.049,1.093,3.094,1.634l1.615,0.761c0.274,0.127,0.526,0.256,0.819,0.381l0.908,0.371
							c4.609,1.91,9.15,3.792,13.65,5.657c4.606,1.899,9.225,3.834,13.835,5.916l6.078,2.819l3.207,1.502l2.943,1.594l5.846,3.169
							l2.888,1.576l2.62,1.599c3.501,2.14,7.006,4.283,10.52,6.431c1.799,1.104,3.599,2.21,5.402,3.317
							c0.876,0.544,1.838,1.118,2.638,1.633l1.941,1.386c-3.284,0.587-6.578,1.177-9.884,1.768c-3.287,0.594-6.516,1.146-9.848,1.8
							c-3.28,0.629-6.573,1.26-9.881,1.894c-1.634,0.314-3.271,0.63-4.912,0.945l-2.45,0.473l-2.295,0.554
							c-2.736,0.668-5.485,1.34-8.251,2.015c-1.638,0.42-3.261,0.79-4.939,1.261c-1.671,0.461-3.354,0.925-5.046,1.393
							c-0.847,0.235-1.695,0.472-2.547,0.708l-1.318,0.364l-1.535,0.377c-2.16,0.479-4.301,0.954-6.425,1.426
							c-2.032,0.469-3.984,0.964-5.844,1.518c-1.854,0.553-3.616,1.168-5.165,1.854c-0.744,0.335-1.545,0.724-2.066,1.042
							c-0.274,0.149-0.469,0.28-0.687,0.457c-0.394,0.341-0.786,0.822-0.739,1.38c0.02,0.271,0.096,0.536,0.185,0.796
							c0.049,0.137,0.085,0.236,0.164,0.424l0.191,0.432l0.294,0.639l1.369,2.855c0.251,0.531,0.512,1.1,0.782,1.73l0.443,1.117
							l0.333,0.997c0.668,2.002,1.34,4.013,2.015,6.036c1.535,4.942,3.094,9.957,4.673,15.04c0.806,2.569,1.617,5.155,2.433,7.758
							c0.793,2.569,1.521,5.084,2.355,7.7c3.224,10.376,6.929,21.502,7.94,33.908l1.343,16.463l-11.066-12.031
							c-2.632-2.86-5.282-5.742-7.949-8.642c-2.585-2.898-5.187-5.814-7.802-8.745c-2.584-2.819-5.182-5.653-7.791-8.499
							c-2.724-2.81-5.606-5.591-8.424-8.396c-0.288-0.297-1.055-1.089-1.582-1.749c-0.569-0.686-1.111-1.393-1.67-2.13
							c-1.079-1.431-2.265-3.002-3.346-4.436c-2.152-2.795-4.015-4.885-4.205-4.011c-2.222-3.116-4.438-6.176-6.706-9.117
							c-1.135-1.465-2.278-2.908-3.44-4.287c-0.583-0.682-1.165-1.368-1.755-2.013l-1.182-1.295
							c-0.541-0.571-1.128-1.141-1.821-1.593c-0.348-0.213-0.725-0.425-1.141-0.46c-0.433-0.072-0.778,0.214-1.056,0.49
							c-0.569,0.57-1.044,1.246-1.536,1.929l-0.367,0.521l-0.785,1.171l-0.908,1.309c-0.323,0.458-0.813,1.084-1.296,1.611
							c-3.861,4.049-7.711,8.086-11.552,12.114c-1.904,2.016-3.806,4.029-5.706,6.04c-1.874,2.037-3.555,4.127-5.377,6.224
							c-7.252,8.464-14.577,16.971-22.637,24.941c-2.414,2.419-5.049,4.675-7.688,6.945l-10.112,8.698l1.972-13.083
							c1.041-6.907,3.566-13.133,6.31-18.965c2.775-5.823,5.852-11.32,8.554-16.742c1.401-2.876,2.642-5.438,3.935-8.396
							c1.311-2.865,2.618-5.725,3.924-8.58c2.644-5.694,5.335-11.344,8.028-16.974l2.02-4.219l1.025-2.145
							c0.118-0.242,0.225-0.496,0.352-0.728l0.42-0.649l0.695-1.048c1.738-2.58,3.398-5.082,4.798-7.632
							c0.34-0.633,0.687-1.271,0.972-1.896c0.282-0.585,0.438-0.953,0.627-1.443c0.325-0.919,0.657-1.951,0.344-2.915
							c-0.343-0.944-1.021-1.72-1.704-2.442c-0.178-0.182-0.337-0.347-0.568-0.555c-0.257-0.233-0.496-0.472-0.773-0.699
							c-0.528-0.463-1.089-0.915-1.655-1.362c-1.319-0.924-3.564-2.255-5.817-3.498c-2.246-1.25-4.484-2.428-5.676-3.193
							c-4.201-2.765-8.518-5.277-12.897-7.87c-1.119-0.672-2.162-1.289-3.415-2.122c-1.089-0.789-2.161-1.569-3.158-2.343
							c-2.03-1.549-3.979-3.108-5.91-4.628c-3.86-3.05-7.668-5.958-11.569-8.444c-1.955-1.204-3.92-2.344-5.897-3.23
							c-1.973-0.874-3.946-1.547-5.82-1.879l1.73-8.864c12.531,1.8,25.14,2.498,37.83,2.822c12.455,0.367,22.095,0.113,33.986-0.194
							c0.264-0.16,0.639-0.283,1.106-0.383c0.234-0.05,0.491-0.094,0.768-0.134c0.25-0.033,0.517-0.069,0.8-0.106
							c0.357-0.094,0.789-0.143,1.187-0.264c0.075-0.003,0.161-0.006,0.257-0.01c0.042-0.009,0.112,0.016,0.141-0.021
							c0.021-0.048,0.042-0.098,0.065-0.149c0.096-0.208,0.207-0.449,0.332-0.719c0.173-0.384,0.112-0.163,0.795-1.816
							c0.531-1.262,1.101-2.615,1.7-4.041c2.415-5.655,5.316-12.448,8.162-19.112c1.39-3.322,2.767-6.611,4.064-9.711
							c0.655-1.548,1.291-3.049,1.897-4.483c0.561-1.435,1.095-2.803,1.596-4.083c2.009-5.121,3.532-8.844,4.088-9.878
							c0.277-0.515-1.548,5.103-4.419,13.81c-1.594,4.337-3.47,9.443-5.488,14.937c-2.109,5.486-4.367,11.359-6.626,17.236
							c-1.062,2.768-2.126,5.537-3.172,8.262c-0.311,0.827-0.62,1.646-0.924,2.457c-0.023,0.045-0.029,0.115-0.066,0.141l-0.16,0.01
							l-0.318,0.021l-0.636,0.041c-0.425,0.027-0.847,0.054-1.265,0.081c-1.179,0.07-2.337,0.14-3.47,0.207
							c-1.4,0.098-2.774,0.114-4.108,0.164c-2.67,0.086-5.189,0.167-7.506,0.241c-4.639,0.049-8.469,0.089-11.085,0.116
							c-2.616-0.011-4.02,0.022-3.802,0.114c0.577,0.115,5.012,0.348,11.437,0.348c3.213,0.066,6.918-0.039,10.886-0.123
							c0.992-0.022,2-0.045,3.021-0.069c1.02-0.05,2.051-0.101,3.092-0.151c1.417-0.072,2.86-0.145,4.307-0.218
							c0.223,0.059,0.228-0.186,0.303-0.334l0.191-0.49l0.381-0.978c0.253-0.65,0.506-1.3,0.758-1.945
							c0.775-1.982,1.542-3.942,2.29-5.854c1.499-3.824,2.921-7.453,4.181-10.667c2.51-6.416,4.371-11.172,4.896-12.515
							c-0.606,1.751-1.206,3.482-1.799,5.193c-0.618,1.708-1.229,3.396-1.833,5.063c-1.209,3.337-2.39,6.596-3.542,9.777
							c-1.153,3.186-2.277,6.295-3.375,9.328c-0.404,1.151-0.804,2.288-1.198,3.41l-0.302,0.859c-0.01,0.2-0.197,0.152-0.334,0.174
							l-0.434,0.038c-0.583,0.05-1.163,0.099-1.739,0.148c-1.298,0.105-2.58,0.209-3.845,0.312
							c-1.481,0.127-2.945,0.211-4.391,0.273c-2.894,0.138-5.71,0.272-8.451,0.403c-2.745,0.065-5.414,0.128-8.009,0.189
							c-2.597,0.085-5.118,0.012-7.569,0.026c-19.614-0.043-34.55-1.542-45.49-3.113c0.026-0.134,0.052-0.269,0.077-0.395
							c5.051,1,8.895,3.125,11.93,4.876c3.039,1.793,5.314,3.365,7.011,4.548c3.391,2.378,4.518,3.189,3.946,2.672
							c-0.583-0.503-2.864-2.345-6.584-4.961c-1.878-1.283-4.095-2.793-6.769-4.224c-2.665-1.421-5.771-2.852-9.396-3.573
							c-0.11,0.563-0.223,1.142-0.336,1.721c9.383,1.424,20.602,2.558,32.256,3.057c11.652,0.545,23.733,0.351,34.803-0.236
							c1.432-0.014,2.938-0.047,4.522-0.096c0.792-0.023,1.601-0.089,2.431-0.138c0.797-0.054,1.613-0.11,2.448-0.167
							c0.763-0.058,1.544-0.117,2.343-0.177c0.394-0.031,0.792-0.062,1.195-0.094l0.603-0.048l0.303-0.024l0.151-0.012
							c0.034-0.027,0.04-0.094,0.062-0.139c0.557-1.567,1.138-3.201,1.744-4.904c2.788-7.809,6.149-16.867,10.102-27.246
							c-2.086,6.268-5.223,15.815-8.001,24.584c-0.7,2.189-1.383,4.328-2.03,6.351c-0.169,0.523-0.335,1.038-0.499,1.545
							c-0.083,0.257-0.166,0.512-0.248,0.764l-0.124,0.38c-0.077,0.076-0.23,0.045-0.342,0.072
							c-0.988,0.109-1.938,0.214-2.841,0.314c-3.791,0.386-6.577,0.724-8.184,0.755c-3.667,0.203-6.806,0.376-9.556,0.529
							c-2.754,0.11-5.12,0.205-7.236,0.29c-2.119,0.114-3.988,0.149-5.751,0.182c-1.764,0.033-3.419,0.064-5.107,0.096
							c-6.746-0.033-14.054,0.007-30.778-2.126c-0.958-0.122-1.939-0.247-2.944-0.375c-1.002-0.157-2.027-0.318-3.074-0.482
							C6,61.636,3.816,61.304,1.55,60.96c0.314-1.61,0.628-3.22,0.981-5.027c3.788,0.786,7.344,2.399,10.723,4.302
							c3.382,1.915,6.608,4.149,9.771,6.47c3.163,2.322,6.254,4.749,9.344,7.056c1.538,1.15,3.103,2.29,4.603,3.298
							c1.365,0.924,3.104,1.82,4.759,2.72c6.749,3.584,13.47,7.068,19.413,10.862c1.491,0.947,2.936,1.921,4.328,2.946
							c0.697,0.505,1.38,1.035,2.049,1.578c0.334,0.28,0.667,0.538,0.993,0.832l0.488,0.434c0.169,0.156,0.372,0.327,0.561,0.521
							c1.587,1.518,2.983,3.164,3.833,4.972c0.965,1.789,0.964,3.787,0.699,5.569c0.027-0.272,0.056-0.551,0.084-0.834
							c-0.008-0.283-0.016-0.571-0.023-0.864c0.005-0.585-0.093-1.191-0.163-1.812c-0.397-1.199-0.994-2.401-1.834-3.532
							c-0.836-1.135-1.906-2.181-3.032-3.206l-0.415-0.35L68.35,96.6c-0.242-0.196-0.486-0.393-0.735-0.573
							c-0.496-0.373-1-0.747-1.515-1.098c-4.113-2.854-8.835-5.376-13.731-7.905c-4.877-2.521-10.011-4.942-14.641-7.473
							c-2.19-1.223-4.294-2.833-6.286-4.326c-1.99-1.513-3.86-3.022-5.598-4.447c3.715,3.168,7.036,5.97,10.177,8.219
							c1.535,1.05,3.206,1.963,4.759,2.83c1.568,0.864,3.084,1.672,4.548,2.444c5.858,3.094,10.891,5.598,15.873,8.534
							c1.244,0.74,2.484,1.517,3.73,2.357c0.619,0.434,1.247,0.861,1.868,1.342c0.642,0.483,1.203,0.921,1.954,1.608
							c1.44,1.318,2.863,2.844,3.737,4.747c0.123,0.231,0.21,0.479,0.304,0.728c0.081,0.25,0.226,0.489,0.221,0.76
							c0.059,0.529,0.117,1.065,0.093,1.605c0.024,0.544-0.043,1.089-0.133,1.642c-0.059,0.557-0.232,1.104-0.366,1.665
							c-0.119,0.566-0.347,1.113-0.53,1.682c-0.097,0.282-0.191,0.57-0.306,0.841l-0.308,0.753
							c-0.378,0.913-0.792,1.807-1.237,2.693c-0.887,1.779-1.889,3.551-2.977,5.355c-0.544,0.884-1.103,1.789-1.676,2.72
							c-0.228,0.37-0.458,0.746-0.692,1.127c-0.19,0.429-0.382,0.864-0.578,1.305c-0.942,2.076-1.935,4.262-2.985,6.573
							c-1.549,3.451-3.231,7.502-4.998,11.906c-1.99,4.062-3.869,7.898-6.227,12.712c-0.418,0.921-0.835,1.838-1.251,2.752
							c-0.46,0.943-0.918,1.885-1.375,2.822c-0.906,1.796-1.807,3.579-2.702,5.352c-1.789,3.513-3.529,6.943-5.115,10.362
							c-3.153,6.812-5.793,13.671-6.595,20.4c-2.321-1.25-4.642-2.501-6.96-3.749C32,189.67,37.519,184.052,42.924,178.13
							c2.702-2.965,5.383-5.998,8.073-9.102c2.708-3.143,5.445-6.318,8.22-9.539c-1.814,2.214-3.521,3.2-5.431,5.299
							c-9.799,10.642-18.589,20.355-28.481,29.153c2.976,1.603,5.967,3.214,8.959,4.826c0.64-5.579,2.642-11.431,5.229-17.362
							c2.593-5.962,5.862-11.997,9.257-18.648c0.353-0.666,0.711-1.402,1.065-2.155c0.359-0.762,0.636-1.475,0.956-2.252
							c0.619-1.535,1.233-3.155,1.846-4.787c1.227-3.264,2.45-6.575,3.706-9.349c2.521-5.645,5.061-10.9,7.605-16.042l0.954-1.923
							l0.478-0.958l0.111-0.222l0.064-0.117c0.043-0.077,0.08-0.152,0.148-0.239l2.293-3.29c1.658-2.431,3.308-4.943,4.803-7.871
							c-1.31,2.999-2.845,5.709-4.43,8.365c-0.393,0.648-0.788,1.3-1.184,1.954l-0.573,0.942c-0.096,0.18-0.22,0.355-0.265,0.495
							c-0.569,1.327-1.143,2.663-1.719,4.009c-2.444,5.652-4.993,11.431-7.584,17.252c-1.299,2.908-2.605,5.83-3.911,8.753
							l-1.965,4.381c-0.637,1.425-1.483,3.146-2.177,4.538c-2.914,5.837-5.865,11.346-8.292,16.766
							c-1,2.258-1.852,4.802-2.505,7.205c-0.683,2.407-1.029,4.655-1.306,6.378c1.251-4.799,3.283-9.72,5.648-14.676
							c2.361-4.973,5.052-9.966,7.701-15.28c0.556-1.117,1.186-2.458,1.764-3.698c0.513-1.176,1.03-2.361,1.552-3.557
							c1.032-2.394,2.08-4.824,3.14-7.283c2.089-4.931,4.226-9.975,6.383-15.068c1.069-2.55,2.144-5.112,3.22-7.68l0.403-0.963
							c0.127-0.305,0.307-0.727,0.303-0.742c0.022-0.097,0.128-0.258,0.192-0.388l0.493-0.827l2.193-3.689
							c0.736-1.261,1.457-2.578,2.16-3.926c0.347-0.688,0.695-1.368,1.026-2.096c0.167-0.359,0.336-0.709,0.494-1.095l0.561-1.345
							c0.777-2.093,1.432-4.244,1.433-6.391c0.134-2.167-0.656-4.251-1.832-6.034c-0.308-0.441-0.613-0.884-0.947-1.307
							l-1.053-1.231l-1.137-1.155c-0.193-0.202-0.372-0.363-0.555-0.529l-0.461-0.412c-1.193-1.044-2.378-1.977-3.557-2.831
							c-2.357-1.728-4.693-3.214-7-4.635c-4.609-2.824-9.108-5.295-13.327-7.666c-2.099-1.179-4.158-2.335-5.977-3.45l-0.651-0.41
							l-0.538-0.354c-0.411-0.306-0.818-0.61-1.222-0.912c-0.805-0.598-1.651-1.287-2.451-1.924
							c-3.237-2.641-6.248-5.318-9.049-7.783c-0.719-0.509-1.463-1.003-2.956-2.011c-0.319-0.331-0.801-0.731-1.35-1.169
							c-2.374-1.7-5.047-3.555-8.045-5.304c-3.005-1.732-6.356-3.385-10.149-4.402c-0.822,4.21-1.599,8.193-2.376,12.177
							c0.1,0.023,0.195,0.044,0.29,0.066l-0.293-0.049L3.28,52.35c3.228,0.724,6.054,1.921,8.659,3.247
							c2.619,1.327,4.951,2.849,7.208,4.398c4.642,2.849,8.905,6.061,13.081,9.182c2.073,1.554,4.159,3.105,6.134,4.472
							c1.045,0.742,1.681,1.115,2.848,1.768c1.132,0.621,2.267,1.243,3.405,1.868c4.695,2.541,9.588,5.191,14.468,8.188
							c2.445,1.499,4.897,3.099,7.364,4.903c1.236,0.922,2.473,1.869,3.729,2.974c0.312,0.263,0.631,0.572,0.946,0.857
							c0.367,0.325,0.812,0.792,1.234,1.238c0.432,0.44,0.855,0.887,1.229,1.371c0.387,0.475,0.793,0.937,1.122,1.447
							c0.345,0.501,0.686,1.004,0.958,1.54l0.42,0.798l0.327,0.834c0.228,0.552,0.4,1.128,0.587,1.698
							c0.13,0.581,0.106,1.193,0.158,1.789c0.194,2.385-0.469,4.808-1.343,7.114c-0.207,0.592-0.429,1.154-0.679,1.693
							c-0.18,0.394-0.351,0.8-0.534,1.164c-0.361,0.738-0.727,1.475-1.103,2.161c-0.747,1.399-1.517,2.717-2.293,3.991
							c-0.774,1.278-1.565,2.518-2.318,3.695l-0.839,1.326c-0.035,0.055-0.035,0.073-0.054,0.111l-0.144,0.32l-0.43,0.957
							l-3.437,7.663c-2.274,5.114-4.547,10.225-6.811,15.314c-1.119,2.551-2.236,5.097-3.351,7.636l-0.83,1.905
							c-0.283,0.643-0.528,1.24-0.872,1.96l-0.965,2.062l-0.921,1.922c-2.107,4.547-5.329,10.117-8.082,15.621
							c-2.805,5.499-4.917,11.016-5.54,15.087c-0.138,0.801-0.211,1.585-0.333,2.395c-4.064-2.189-8.129-4.379-12.295-6.623
							c4.452-4.051,8.805-8.325,13.063-12.806c4.233-4.52,8.405-9.205,12.564-13.988l6.316-7.328l1.614-1.87
							c0.545-0.608,1.11-1.18,1.664-1.77l3.344-3.508c2.236-2.328,4.47-4.652,6.697-6.971c2.22-2.285,4.434-4.564,6.64-6.836
							c0.064-0.065,0.12-0.11,0.203-0.214c0.09-0.095,0.284-0.378,0.427-0.564l1.064-1.535c0.626-0.926,1.251-1.849,1.875-2.771
							c0.651-0.937,1.327-1.833,2.023-2.687c1.104-1.333,2.292-2.498,3.59-3.284c0.655-0.394,1.312-0.709,2.014-1.048
							c0.166-0.098,0.357-0.146,0.552-0.187l0.288-0.069l0.072-0.018c0.005-0.039,0.033,0.043,0.044,0.033l0.037-0.005l0.15-0.019
							c0.398-0.043,0.803-0.106,1.195-0.119c0.793-0.102,1.573,0.027,2.341,0.169l1.137,0.287c0.376,0.111,0.744,0.274,1.116,0.41
							c0.748,0.24,1.462,0.697,2.185,1.065c0.7,0.473,1.414,0.905,2.094,1.43c1.37,1.047,2.658,2.211,3.917,3.467l0.908,0.923
							c0.204,0.212,0.4,0.424,0.589,0.636l1.139,1.273c1.49,1.698,2.87,3.407,4.21,5.123c2.678,3.43,5.171,6.891,7.615,10.334
							l3.622,5.132c1.193,1.684,2.396,3.382,3.545,4.881c0.29,0.383,0.562,0.718,0.818,1.032l0.17,0.199l0.085,0.101l0.042,0.05
							c0.021,0.023-0.16-0.159-0.075-0.073l0.018,0.018l0.033,0.035l0.544,0.565l2.174,2.261l4.346,4.522l1.086,1.13l1.066,1.201
							l2.126,2.409l4.244,4.815l8.171,9.506l8.206,9.244c-2.422,1.104-4.844,2.207-7.251,3.304
							c-0.323-6.16-1.64-12.429-3.296-18.676c-1.659-6.256-3.695-12.515-5.551-18.914c-1.92-6.289-3.839-12.573-5.757-18.853
							l-2.898-9.478l-0.723-2.366l-0.181-0.592l-0.068-0.229c-0.016-0.061-0.055-0.153-0.08-0.229
							c-0.113-0.33-0.262-0.689-0.405-1.042l-1.995-4.505c-0.344-0.805-0.729-1.766-1.018-2.68c-0.306-0.922-0.531-1.862-0.636-2.81
							c-0.085-0.938-0.128-1.923,0.262-2.812c0.339-0.89,0.788-1.739,1.382-2.485c1.168-1.506,2.722-2.674,4.34-3.633
							c1.562-0.899,3.097-1.568,4.688-2.173c6.32-2.372,12.896-3.361,19.211-4.771l9.503-2.464l9.557-2.264
							c3.251-0.713,6.651-1.364,10.172-2.082c1.757-0.386,3.571-0.621,5.406-0.931l5.607-0.904l1.46-0.364l0.18-0.046l0.089-0.023
							l0.045-0.012c-0.003-0.007-0.025-0.018-0.037-0.026l-0.337-0.217l-0.678-0.435l-2.745-1.762
							c-0.926-0.586-1.853-1.208-2.805-1.779l-2.895-1.678l-2.941-1.712c-0.988-0.576-2.055-1.095-3.094-1.654
							c-2.115-1.085-4.182-2.273-6.472-3.319l-3.398-1.627c-0.98-0.466-1.955-0.952-2.941-1.392l-5.906-2.699
							c-3.928-1.768-7.853-3.535-11.774-5.3c-2.211-0.862-4.344-1.782-6.488-2.668c0.887,0.524,1.748,1.034,2.609,1.543l-2.957-1.46
							c-0.488-0.246-0.988-0.481-1.465-0.736l-1.396-0.79c-2.834-1.387-5.621-2.896-7.945-4.697
							c-1.189-0.883-2.186-1.896-3.109-2.958c-0.873-1.104-1.66-2.271-2.308-3.585c-1.333-2.588-2.303-5.58-3.262-8.589
							c-0.472-1.545-0.942-3.087-1.413-4.628c-0.47-1.582-0.978-3.032-1.451-4.554c-0.709-2.496,0.12-0.366,1.362,2.827
							c0.603,1.645,1.306,3.563,1.945,5.31c0.645,1.699,1.255,3.198,1.723,4.031c-0.908-2.611-1.767-5.377-1.767-5.376
							c0,0,0.458,0.413,0.917,0.827c-0.849-1.98-0.986-3.517-1.328-5.055c1.271,3.499,2.381,6.839,3.605,9.931
							c1.232,3.124,2.522,5.663,4.309,7.574c0.855,0.996,1.993,1.852,3.169,2.731c1.254,0.842,2.597,1.663,4.055,2.434
							c1.463,0.785,2.931,1.502,4.457,2.21l4.808,2.029c6.484,2.708,13.147,5.285,19.833,8.08c0.835,0.35,1.67,0.678,2.505,1.046
							l2.911,1.283l3.783,1.695l1.892,0.848l1.78,0.904l7.093,3.629c1.223,0.594,2.233,1.244,3.355,1.864l3.287,1.881
							c-1.347-1.194-4.643-3.426-8.847-5.576c-2.065-1.087-4.161-2.191-6.084-3.203c-2.074-0.957-3.961-1.826-5.439-2.508
							c-2.059-0.906-2.789-1.187-3.991-1.689c-1.116-0.439-2.231-0.877-3.343-1.314c-2.212-0.873-4.412-1.741-6.587-2.599
							c-2.166-0.855-4.302-1.713-6.362-2.574c-2.063-0.863-4.12-1.723-6.01-2.612c-1.353-0.568-2.708-1.137-4.065-1.707
							c-0.704-0.278-1.271-0.606-1.914-0.908c-0.626-0.305-1.252-0.613-1.862-0.952c-2.484-1.311-4.77-2.727-6.441-4.26
							c-1.679-1.548-2.821-3.126-3.854-5.435c-1.033-2.267-1.942-5.023-2.854-7.86c-0.473-1.486-0.944-2.971-1.415-4.453
							c-0.488-1.508-0.979-2.848-1.468-4.276c-0.509-1.405-0.914-2.815-1.372-4.216c-0.448-1.392-0.889-2.807-1.323-4.24
							c-1.754-5.677-3.476-11.438-5.601-17.156c-1.34-4.271-3.044-8.639-5.063-13.034c-0.55-1.188-0.573-1.52-0.234-1.229
							c0.169,0.146,0.429,0.446,0.758,0.874c0.347,0.497,0.775,1.169,1.253,1.946c0.478,0.78,1.007,1.678,1.564,2.659
							c0.503,0.961,0.977,1.983,1.482,3.059C119.396,7.833,120.23,10.086,121.001,12.248z M108.386,144.037
							c2.343,3.269,4.521,6.548,6.668,9.839c2.154,3.264,4.246,6.659,6.537,9.744c0.213,0.234,0.424,0.498,0.638,0.709l0.738,0.759
							l1.472,1.519c0.98,1.013,1.961,2.026,2.945,3.045c2.44,2.532,5.056,5.244,7.769,8.059c3.229,3.676,6.322,7.373,9.45,11.064
							c3.119,3.694,6.347,7.268,9.521,10.915l-0.627,0.286c-0.312-5.363-1.233-10.704-2.456-15.983
							c0.955,5.201,1.695,10.506,1.849,16.032c0.544-0.248,1.107-0.504,1.67-0.761c-1.639-1.966-3.308-3.966-5.011-6.009
							c-0.858-1.014-1.726-2.036-2.603-3.071c-0.868-1.051-1.746-2.113-2.634-3.188c-1.787-2.146-3.608-4.331-5.53-6.562
							c-1.949-2.231-3.967-4.512-6.061-6.845c1.972,2.157,3.927,4.297,5.866,6.419c1.92,2.128,3.755,4.244,5.605,6.35
							c3.657,4.257,7.37,8.25,10.957,12.328c-1.037,0.473-2.074,0.945-3.084,1.406c-0.544-8.629-2.625-17.08-4.937-25.347
							c-2.362-8.288-4.697-16.483-7.026-24.654c-1.167-4.084-2.333-8.162-3.499-12.242l-1.745-6.112l-0.439-1.54
							c-0.188-0.615-0.381-1.106-0.586-1.633c-0.412-1.024-0.848-2.001-1.263-2.972c-0.869-2.052-1.499-3.566-1.781-5.273
							c-0.138-0.84-0.117-1.729,0.303-2.493c0.369-0.772,0.917-1.445,1.535-2.018c2.296-2.085,6.39-3.58,10.349-4.689
							c3.161-0.948,6.441-1.692,9.801-2.416c1.694-0.373,3.355-0.703,5.201-1.188c1.67-0.464,3.343-0.928,5.02-1.394
							c1.677-0.464,3.356-0.929,5.04-1.395c1.753-0.451,3.509-0.903,5.271-1.356c2.304-0.566,4.558-1.195,6.951-1.728
							c2.43-0.514,4.866-1.029,7.309-1.546c5.951-1.349,11.765-2.401,17.438-3.53l0.146-0.436l0.072-0.217l0.037-0.109l0.018-0.054
							c-0.02-0.023-0.091-0.056-0.134-0.084l-2.37-1.387c-1.578-0.92-3.151-1.838-4.721-2.754c-3.127-1.791-6.188-3.395-9.245-5.07
							c2.925,1.733,5.786,3.341,8.635,5.093l4.237,2.651l2.088,1.308c0.137,0.064,0.07,0.089,0.038,0.121l-0.098,0.094l-0.197,0.188
							l-0.408,0.373l-6.705,1.144c-2.21,0.386-4.388,0.712-6.55,1.171c-4.303,0.876-8.56,1.658-12.57,2.551l-10.509,2.522
							l-9.546,2.487c-3.325,0.759-6.493,1.304-9.684,2.039c-3.173,0.723-6.318,1.548-9.328,2.693
							c-1.493,0.571-2.993,1.243-4.316,2.035c-1.308,0.784-2.584,1.725-3.534,2.977c-0.478,0.618-0.877,1.311-1.106,2.064
							c-0.249,0.749-0.164,1.559-0.05,2.329c0.29,1.553,0.862,3.035,1.501,4.54c0.637,1.508,1.356,2.988,1.976,4.509
							c0.325,0.756,0.553,1.538,0.786,2.327l0.711,2.356l2.846,9.433l5.662,18.848c1.807,6.339,3.805,12.595,5.437,18.891
							c1.629,6.288,2.932,12.639,3.237,18.95l4.295-1.957c-2.945-3.366-5.913-6.676-8.836-10.077l-4.368-5.143
							c-1.447-1.712-2.912-3.428-4.435-5.155c-3.018-3.43-6.001-6.983-9.151-10.162l-4.673-4.895
							c-1.161-1.226-2.486-3.117-3.766-4.894c-2.574-3.626-5.155-7.378-7.842-11.086c-2.692-3.715-5.458-7.415-8.586-11.036
							c-0.384-0.454-0.794-0.903-1.199-1.354l-0.617-0.674l-0.85-0.872c-1.226-1.25-2.5-2.386-3.842-3.439
							c-1.363-0.967-2.756-1.923-4.245-2.435c-0.363-0.174-0.746-0.249-1.121-0.365c-0.373-0.124-0.758-0.2-1.149-0.254
							l-0.583-0.096l-0.594,0.017c-0.395-0.001-0.795,0.042-1.195,0.093c-0.823,0.007-1.509,0.455-2.154,0.817
							c-0.655,0.378-1.297,0.766-1.889,1.312c-1.199,1.047-2.292,2.378-3.326,3.793c-0.51,0.718-1.017,1.442-1.509,2.186
							l-1.235,1.848c-0.604,0.893-1.255,1.822-1.484,2.014c-4.414,4.576-8.835,9.159-13.265,13.752l-3.33,3.465l-1.662,1.74
							l-1.606,1.838c-2.111,2.405-4.224,4.813-6.339,7.224c-4.201,4.724-8.445,9.362-12.808,13.833
							c-4.388,4.434-8.915,8.677-13.614,12.682c3.727,2.008,7.504,4.042,11.282,6.077c0.301-1.813,0.643-3.669,1.214-5.562
							c-0.638,1.89-1.04,3.746-1.397,5.539c-3.696-1.991-7.392-3.981-10.979-5.914c4.82-3.888,9.45-8.033,13.928-12.38
							c4.451-4.383,8.77-8.942,13.036-13.599l6.419-7.117l1.621-1.81c0.551-0.589,1.12-1.147,1.679-1.723l3.37-3.427
							c4.484-4.553,8.974-9.112,13.48-13.688c0.15-0.152,0.277-0.288,0.437-0.492c0.17-0.214,0.372-0.491,0.567-0.762l1.302-1.88
							c1.183-1.751,2.378-3.504,3.704-5.009c0.678-0.718,1.354-1.436,2.111-1.956c0.369-0.277,0.763-0.515,1.151-0.758l0.617-0.338
							c0.22-0.078,0.449-0.173,0.688-0.188c1.958-0.342,3.837,0.282,5.536,1.209c1.719,0.928,3.301,2.269,4.787,3.668
							c0.367,0.361,0.745,0.695,1.101,1.078l1.015,1.065c0.532,0.592,1.061,1.185,1.569,1.784
							C104.661,139.087,106.557,141.544,108.386,144.037z M97.271,133.052c-1.657-1.433-3.435-2.694-5.399-3.375
							c-0.982-0.339-2.045-0.47-3.085-0.24c-0.502,0.146-0.932,0.458-1.331,0.76c-0.41,0.299-0.785,0.633-1.157,0.987
							c-1.459,1.459-2.705,3.284-3.898,5.112c-0.527,0.81-1.053,1.617-1.577,2.423l-0.7,1.03c-0.228,0.317-0.416,0.563-0.646,0.814
							c-6.061,6.506-12.04,12.942-17.901,19.338c-5.47,6.416-10.897,12.786-16.604,18.96c-5.686,6.158-11.6,12.034-17.744,17.325
							c1.382,0.744,2.742,1.477,4.101,2.209c0.785-6.037,2.928-11.89,5.289-17.432c2.41-5.547,5.1-10.826,7.581-15.957
							c0.613-1.291,1.218-2.566,1.815-3.824c0.591-1.295,1.174-2.573,1.671-3.808c1.021-2.487,2.012-4.899,2.968-7.229
							c1.888-4.669,3.586-9.024,5.056-12.996c-2.153,5-4.318,10.026-6.495,15.081c-1.109,2.529-2.139,5.054-3.324,7.606
							c-1.185,2.551-2.411,5.034-3.646,7.532c-2.462,4.99-4.936,9.981-7.023,15.121c-2.091,5.128-3.79,10.438-4.452,15.835
							c-1.047-0.564-2.094-1.128-3.174-1.71c6.111-5.374,11.89-11.264,17.476-17.453c5.606-6.206,10.961-12.635,16.504-19.261
							c-5.668,6.671-9.088,10.581-10.693,12.409c-1.586,1.815-1.28,1.488,0.594-0.626c1.894-2.112,5.271-6.015,9.946-11.508
							c4.87-5.224,11.041-11.841,18.181-19.499c0.559-0.611,1.185-1.603,1.821-2.571c0.364-0.562,0.73-1.128,1.099-1.698
							c0.396-0.612,0.804-1.222,1.221-1.826c0.835-1.208,1.727-2.381,2.736-3.38c0.523-0.469,1.042-0.936,1.657-1.313
							c0.146-0.106,0.305-0.19,0.481-0.243l0.255-0.097c0.093,0.003,0.184-0.02,0.275-0.028l0.55-0.07
							c0.183-0.001,0.367,0.012,0.55,0.018C91.631,129.396,94.403,130.525,97.271,133.052z"/>
						<path fill="#F8F5F1" d="M185.938,96.434c3.042-0.446,6.092-0.893,9.171-1.344l1.573-0.24l0.386-0.062
							c0.119-0.022,0.329-0.029,0.151-0.104l-0.521-0.352l-2.127-1.434c-1.443-0.959-2.912-2.002-4.492-2.897l-4.803-2.871
							l-5.217-2.83c-1.754-0.999-3.69-1.879-5.613-2.854l-2.655-1.323l-2.551-1.224c-3.403-1.61-6.801-3.217-10.187-4.818
							c5.912,3.359,11.183,6.372,18.1,10.219c3.281,1.862,6.384,3.548,9.257,5.376c0.716,0.436,1.434,0.873,2.154,1.312
							c0.681,0.465,1.363,0.933,2.048,1.401c0.67,0.455,1.342,0.911,2.015,1.368l0.499,0.337c0.065,0.053,0.204,0.119,0.21,0.161
							l-0.376,0.059l-1.491,0.233c-6.857,0.999-13.062,2.236-18.774,3.546c-1.651,0.393-3.301,0.785-4.946,1.176
							c-1.801,0.414-3.557,0.897-5.324,1.348c-1.766,0.452-3.525,0.903-5.277,1.351c-0.915,0.243-1.651,0.396-2.536,0.574
							c-0.876,0.168-1.749,0.336-2.619,0.504c-4.576,0.863-9.265,1.776-13.987,3.37c-1.182,0.399-2.367,0.85-3.556,1.385
							c-0.594,0.257-1.188,0.556-1.782,0.863c-0.556,0.286-1.335,0.748-1.988,1.182c-2.69,1.775-4.996,4.312-5.829,7.477
							c-0.287,1.592-0.132,3.22,0.261,4.821c0.198,0.8,0.449,1.597,0.743,2.384c0.271,0.77,0.629,1.602,0.845,2.116
							c0.966,2.306,2.081,4.456,2.462,6.03c1.376,4.554,2.757,9.12,4.141,13.699c2.747,9.064,5.511,18.179,8.287,27.34
							c1.4,4.558,2.665,9.043,3.72,13.519c1.069,4.471,1.715,8.894,2.065,13.239c3.676-1.676,7.409-3.377,11.143-5.078
							c-2.365-2.622-4.734-5.25-7.109-7.883c-2.372-2.709-4.748-5.423-7.13-8.142c-1.168-1.351-2.423-2.748-3.685-4.148
							l-3.776-4.193c-2.512-2.889-5.088-5.342-7.646-7.982l-1.923-1.952l-0.963-0.977l-0.12-0.122l-0.016-0.015
							c-0.11-0.111,0.134,0.134,0.106,0.105l-0.016-0.019l-0.031-0.036l-0.125-0.145c-0.075-0.081-0.183-0.209-0.299-0.353
							c-0.906-1.096-1.992-2.555-3.037-3.977c-2.161-2.962-4.326-5.93-6.494-8.9c-2.225-3.009-4.518-6.026-6.977-9.031
							c-1.233-1.502-2.518-3.002-3.885-4.501c-0.735-0.798-1.191-1.301-2.622-2.697c-1.222-1.149-2.448-2.261-3.761-3.218
							c-2.378-1.811-6.444-4.363-11.365-3.374c-0.608,0.088-1.127,0.399-1.659,0.648c-0.526,0.249-1.047,0.528-1.563,0.827
							c-0.266,0.125-0.503,0.343-0.75,0.533c-0.243,0.201-0.494,0.376-0.73,0.599c-0.458,0.478-0.951,0.873-1.376,1.419
							c-1.767,2.032-3.271,4.486-4.585,6.63c2.162-3.286,4.449-6.796,7.269-8.761c0.727-0.418,1.454-0.796,2.21-1.145l0.574-0.269
							c0.196-0.08,0.419-0.106,0.626-0.162c0.441-0.004,0.878-0.098,1.318-0.134c0.435-0.03,0.868-0.074,1.3-0.091l1.283,0.152
							c0.839,0.182,1.676,0.36,2.491,0.697c0.826,0.248,1.623,0.729,2.422,1.129c0.774,0.527,1.574,0.967,2.32,1.57
							c0.748,0.597,1.514,1.148,2.214,1.831c0.717,0.646,1.431,1.297,2.123,2.019l0.863,0.878l0.616,0.672
							c0.409,0.448,0.816,0.896,1.2,1.345c0.788,0.896,1.536,1.793,2.273,2.69c2.938,3.589,5.593,7.196,8.19,10.785
							c2.583,3.569,5.098,7.201,7.542,10.502c0.599,0.808,1.221,1.608,1.692,2.167l0.159,0.188l0.039,0.047l0.01,0.012
							c-0.205-0.206-0.047-0.047-0.088-0.088l0.035,0.036l0.142,0.146l0.565,0.583l1.131,1.166c1.507,1.555,3.013,3.107,4.516,4.658
							c0.75,0.787,1.508,1.524,2.249,2.352l2.218,2.49c1.475,1.659,2.948,3.316,4.42,4.973c2.915,3.3,5.641,6.506,8.46,9.756
							c2.81,3.148,5.614,6.291,8.413,9.428c-3.139,1.431-6.277,2.86-9.38,4.274c-0.329-5.712-1.52-11.559-3.041-17.412
							c-1.523-5.864-3.406-11.75-5.203-17.774c-0.884-3.053-1.793-5.982-2.697-8.93l-2.707-8.849l-2.731-8.953l-1.362-4.478
							l-0.679-2.238c-0.039-0.171-0.156-0.479-0.271-0.787c-0.122-0.312-0.253-0.635-0.4-0.972c-0.575-1.337-1.261-2.779-1.895-4.3
							c-0.748-1.814-1.492-3.822-1.659-5.786c-0.286-1.983,0.443-3.982,1.591-5.584c1.13-1.638,2.701-2.933,4.374-3.995
							c0.877-0.562,1.626-0.942,2.383-1.313c0.763-0.371,1.529-0.7,2.297-1.009c1.537-0.61,3.078-1.118,4.621-1.569
							c3.084-0.897,6.174-1.57,9.24-2.182l4.561-0.896c0.773-0.163,1.431-0.284,2.203-0.491l2.259-0.57
							c3.02-0.741,6.008-1.557,9.059-2.231c3.202-0.725,5.647-1.297,8.573-1.896C179.918,97.593,182.927,97.013,185.938,96.434z"/>
						<path fill="#F8F5F1" d="M48.026,173.903c1.403-2.875,2.807-5.75,4.206-8.616c0.677-1.423,1.566-3.284,2.123-4.615
							c0.628-1.442,1.254-2.882,1.879-4.316c2.507-5.737,5.019-11.396,7.542-16.897c-2.564,4.877-5.426,10.719-8.276,16.715
							c-0.709,1.501-1.421,3.01-2.131,4.514c-0.328,0.721-0.759,1.575-1.169,2.399c-0.398,0.785-0.795,1.567-1.19,2.346
							c-1.522,2.926-3.01,5.785-4.413,8.482c-2.194,4.391-4.29,8.703-5.942,12.944c-1.689,4.237-2.896,8.41-3.408,12.286
							c-4.685-2.522-9.369-5.046-13.897-7.485c5.038-4.392,9.787-9.043,14.383-13.887c-4.756,4.689-9.652,9.174-14.8,13.4
							c4.917,2.648,9.934,5.351,14.95,8.053c0.344-1.915,0.804-3.892,1.453-5.933c0.673-2.044,1.417-4.122,2.341-6.247
							C43.454,182.804,45.687,178.443,48.026,173.903z"/>
						<path fill="#F8F5F1" d="M76.98,134.49l-1.083,1.593l-0.229,0.315l-0.113,0.156l-0.077,0.094
							c-0.076,0.097-0.109,0.116-0.134,0.186l-4.389,4.51c-2.812,2.936-5.643,5.891-8.489,8.861
							c-1.417,1.493-2.837,2.989-4.261,4.49l-1.065,1.132l-1.035,1.201l-2.07,2.411c-5.415,6.302-10.715,12.43-16.302,18.333
							c3.049-3.016,6.044-6.112,9.008-9.284c1.482-1.583,2.965-3.168,4.437-4.789l4.483-4.927l2.277-2.509l2.349-2.367l4.698-4.739
							c3.126-3.167,6.259-6.341,9.403-9.526c-0.146-0.122-0.092-0.422,0.132-0.87c0.112-0.224,0.266-0.484,0.458-0.779
							c0.185-0.268,0.394-0.573,0.626-0.912c0.013-0.075,0.027-0.122,0.054-0.217c0.026-0.076,0.159-0.315,0.289-0.551
							C76.266,135.744,76.614,135.133,76.98,134.49z"/>
					</g>
				</g>
			</g>
		</g>
	</g>
</g>
</svg>
